<?xml version="1.0" encoding="UTF-8" standalone="no"?>
<!DOCTYPE svg PUBLIC "-//W3C//DTD SVG 1.1//EN"
 "http://www.w3.org/Graphics/SVG/1.1/DTD/svg11.dtd">
<!-- Generated by graphviz version 2.40.1 (20161225.0304)
 -->
<!-- Title: companies Pages: 1 -->
<svg width="1346pt" height="802pt"
 viewBox="0.00 0.00 1345.50 802.00" xmlns="http://www.w3.org/2000/svg" xmlns:xlink="http://www.w3.org/1999/xlink">
<g id="graph0" class="graph" transform="scale(1 1) rotate(0) translate(4 798)">
<title>companies</title>
<polygon fill="#ffffff" stroke="transparent" points="-4,4 -4,-798 1341.5,-798 1341.5,4 -4,4"/>
<!-- companies -->
<g id="node1" class="node">
<title>companies</title>
<polygon fill="#efefef" stroke="transparent" points="585.5,-315.5 585.5,-350.5 787.5,-350.5 787.5,-315.5 585.5,-315.5"/>
<polygon fill="none" stroke="#000000" points="585.5,-315.5 585.5,-350.5 787.5,-350.5 787.5,-315.5 585.5,-315.5"/>
<text text-anchor="start" x="594.3644" y="-328.3" font-family="Arial Bold" font-size="18.00" fill="#000000">companies</text>
<text text-anchor="start" x="681.3818" y="-328.3" font-family="Arial" font-size="14.00" fill="#000000"> </text>
<text text-anchor="start" x="685.2724" y="-328.3" font-family="Arial" font-size="14.00" fill="#666666">[BASE TABLE]</text>
<polygon fill="none" stroke="#000000" points="585.5,-285.5 585.5,-315.5 787.5,-315.5 787.5,-285.5 585.5,-285.5"/>
<text text-anchor="start" x="592.5" y="-296.9" font-family="Arial" font-size="14.00" fill="#000000">id </text>
<text text-anchor="start" x="607.2798" y="-296.9" font-family="Arial" font-size="14.00" fill="#666666">[bigint unsigned]</text>
<polygon fill="none" stroke="#000000" points="585.5,-255.5 585.5,-285.5 787.5,-285.5 787.5,-255.5 585.5,-255.5"/>
<text text-anchor="start" x="592.5" y="-266.9" font-family="Arial" font-size="14.00" fill="#000000">name </text>
<text text-anchor="start" x="631.399" y="-266.9" font-family="Arial" font-size="14.00" fill="#666666">[varchar(255)]</text>
<polygon fill="none" stroke="#000000" points="585.5,-225.5 585.5,-255.5 787.5,-255.5 787.5,-225.5 585.5,-225.5"/>
<text text-anchor="start" x="592.5" y="-236.9" font-family="Arial" font-size="14.00" fill="#000000">email </text>
<text text-anchor="start" x="629.8296" y="-236.9" font-family="Arial" font-size="14.00" fill="#666666">[varchar(255)]</text>
<polygon fill="none" stroke="#000000" points="585.5,-195.5 585.5,-225.5 787.5,-225.5 787.5,-195.5 585.5,-195.5"/>
<text text-anchor="start" x="592.5" y="-206.9" font-family="Arial" font-size="14.00" fill="#000000">password </text>
<text text-anchor="start" x="656.2882" y="-206.9" font-family="Arial" font-size="14.00" fill="#666666">[varchar(255)]</text>
<polygon fill="none" stroke="#000000" points="585.5,-165.5 585.5,-195.5 787.5,-195.5 787.5,-165.5 585.5,-165.5"/>
<text text-anchor="start" x="592.5" y="-176.9" font-family="Arial" font-size="14.00" fill="#000000">profile </text>
<text text-anchor="start" x="634.5028" y="-176.9" font-family="Arial" font-size="14.00" fill="#666666">[varchar(255)]</text>
<polygon fill="none" stroke="#000000" points="585.5,-135.5 585.5,-165.5 787.5,-165.5 787.5,-135.5 585.5,-135.5"/>
<text text-anchor="start" x="592.3773" y="-146.9" font-family="Arial" font-size="14.00" fill="#000000">is_enable_interview </text>
<text text-anchor="start" x="719.1781" y="-146.9" font-family="Arial" font-size="14.00" fill="#666666">[tinyint(1)]</text>
<polygon fill="none" stroke="#000000" points="585.5,-105.5 585.5,-135.5 787.5,-135.5 787.5,-105.5 585.5,-105.5"/>
<text text-anchor="start" x="592.5" y="-116.9" font-family="Arial" font-size="14.00" fill="#000000">created_at </text>
<text text-anchor="start" x="662.528" y="-116.9" font-family="Arial" font-size="14.00" fill="#666666">[timestamp]</text>
<polygon fill="none" stroke="#000000" points="585.5,-75.5 585.5,-105.5 787.5,-105.5 787.5,-75.5 585.5,-75.5"/>
<text text-anchor="start" x="592.5" y="-86.9" font-family="Arial" font-size="14.00" fill="#000000">updated_at </text>
<text text-anchor="start" x="666.4326" y="-86.9" font-family="Arial" font-size="14.00" fill="#666666">[timestamp]</text>
<polygon fill="none" stroke="#000000" points="585.5,-45.5 585.5,-75.5 787.5,-75.5 787.5,-45.5 585.5,-45.5"/>
<text text-anchor="start" x="592.5" y="-56.9" font-family="Arial" font-size="14.00" fill="#000000">deleted_at </text>
<text text-anchor="start" x="661.7566" y="-56.9" font-family="Arial" font-size="14.00" fill="#666666">[datetime]</text>
<polygon fill="none" stroke="#000000" stroke-width="3" points="584,-44.5 584,-352.5 789,-352.5 789,-44.5 584,-44.5"/>
</g>
<!-- favorite_companies -->
<g id="node2" class="node">
<title>favorite_companies</title>
<polygon fill="#efefef" stroke="transparent" points="43.5,-685.5 43.5,-720.5 310.5,-720.5 310.5,-685.5 43.5,-685.5"/>
<polygon fill="none" stroke="#000000" points="43.5,-685.5 43.5,-720.5 310.5,-720.5 310.5,-685.5 43.5,-685.5"/>
<text text-anchor="start" x="50.3566" y="-698.3" font-family="Arial Bold" font-size="18.00" fill="#000000">favorite_companies</text>
<text text-anchor="start" x="206.3896" y="-698.3" font-family="Arial" font-size="14.00" fill="#000000"> </text>
<text text-anchor="start" x="210.2802" y="-698.3" font-family="Arial" font-size="14.00" fill="#666666">[BASE TABLE]</text>
<polygon fill="none" stroke="#000000" points="43.5,-655.5 43.5,-685.5 310.5,-685.5 310.5,-655.5 43.5,-655.5"/>
<text text-anchor="start" x="50.5" y="-666.9" font-family="Arial" font-size="14.00" fill="#000000">id </text>
<text text-anchor="start" x="65.2798" y="-666.9" font-family="Arial" font-size="14.00" fill="#666666">[bigint unsigned]</text>
<polygon fill="none" stroke="#000000" points="43.5,-625.5 43.5,-655.5 310.5,-655.5 310.5,-625.5 43.5,-625.5"/>
<text text-anchor="start" x="50.5" y="-636.9" font-family="Arial" font-size="14.00" fill="#000000">user_id </text>
<text text-anchor="start" x="100.2882" y="-636.9" font-family="Arial" font-size="14.00" fill="#666666">[bigint unsigned]</text>
<polygon fill="none" stroke="#000000" points="43.5,-595.5 43.5,-625.5 310.5,-625.5 310.5,-595.5 43.5,-595.5"/>
<text text-anchor="start" x="50.5" y="-606.9" font-family="Arial" font-size="14.00" fill="#000000">company_id </text>
<text text-anchor="start" x="129.8534" y="-606.9" font-family="Arial" font-size="14.00" fill="#666666">[bigint unsigned]</text>
<polygon fill="none" stroke="#000000" points="43.5,-565.5 43.5,-595.5 310.5,-595.5 310.5,-565.5 43.5,-565.5"/>
<text text-anchor="start" x="50.5" y="-576.9" font-family="Arial" font-size="14.00" fill="#000000">created_at </text>
<text text-anchor="start" x="120.528" y="-576.9" font-family="Arial" font-size="14.00" fill="#666666">[timestamp]</text>
<polygon fill="none" stroke="#000000" points="43.5,-535.5 43.5,-565.5 310.5,-565.5 310.5,-535.5 43.5,-535.5"/>
<text text-anchor="start" x="50.5" y="-546.9" font-family="Arial" font-size="14.00" fill="#000000">updated_at </text>
<text text-anchor="start" x="124.4326" y="-546.9" font-family="Arial" font-size="14.00" fill="#666666">[timestamp]</text>
<polygon fill="none" stroke="#000000" points="43.5,-505.5 43.5,-535.5 310.5,-535.5 310.5,-505.5 43.5,-505.5"/>
<text text-anchor="start" x="50.5" y="-516.9" font-family="Arial" font-size="14.00" fill="#000000">deleted_at </text>
<text text-anchor="start" x="119.7566" y="-516.9" font-family="Arial" font-size="14.00" fill="#666666">[datetime]</text>
</g>
<!-- favorite_companies&#45;&gt;companies -->
<g id="edge1" class="edge">
<title>favorite_companies:company_id&#45;&gt;companies:id</title>
<path fill="none" stroke="#000000" d="M320.6194,-609.8331C385.7279,-600.4841 314.3738,-495.0319 362.5,-433 433.1683,-341.9127 470.2138,-300.5 585.5,-300.5"/>
<polygon fill="#000000" stroke="#000000" points="320.4784,-609.8423 310.2041,-606.0097 315.4892,-610.1712 310.5,-610.5 310.5,-610.5 310.5,-610.5 315.4892,-610.1712 310.7959,-614.9903 320.4784,-609.8423 320.4784,-609.8423"/>
<text text-anchor="start" x="175.438" y="-594.5" font-family="Arial" font-size="10.00" fill="#000000">FOREIGN KEY (company_id) REFERENCES companies (id)</text>
</g>
<!-- favorite_users -->
<g id="node3" class="node">
<title>favorite_users</title>
<polygon fill="#efefef" stroke="transparent" points="414.5,-685.5 414.5,-720.5 638.5,-720.5 638.5,-685.5 414.5,-685.5"/>
<polygon fill="none" stroke="#000000" points="414.5,-685.5 414.5,-720.5 638.5,-720.5 638.5,-685.5 414.5,-685.5"/>
<text text-anchor="start" x="421.363" y="-698.3" font-family="Arial Bold" font-size="18.00" fill="#000000">favorite_users</text>
<text text-anchor="start" x="534.3832" y="-698.3" font-family="Arial" font-size="14.00" fill="#000000"> </text>
<text text-anchor="start" x="538.2738" y="-698.3" font-family="Arial" font-size="14.00" fill="#666666">[BASE TABLE]</text>
<polygon fill="none" stroke="#000000" points="414.5,-655.5 414.5,-685.5 638.5,-685.5 638.5,-655.5 414.5,-655.5"/>
<text text-anchor="start" x="421.5" y="-666.9" font-family="Arial" font-size="14.00" fill="#000000">id </text>
<text text-anchor="start" x="436.2798" y="-666.9" font-family="Arial" font-size="14.00" fill="#666666">[bigint unsigned]</text>
<polygon fill="none" stroke="#000000" points="414.5,-625.5 414.5,-655.5 638.5,-655.5 638.5,-625.5 414.5,-625.5"/>
<text text-anchor="start" x="421.5" y="-636.9" font-family="Arial" font-size="14.00" fill="#000000">company_id </text>
<text text-anchor="start" x="500.8534" y="-636.9" font-family="Arial" font-size="14.00" fill="#666666">[bigint unsigned]</text>
<polygon fill="none" stroke="#000000" points="414.5,-595.5 414.5,-625.5 638.5,-625.5 638.5,-595.5 414.5,-595.5"/>
<text text-anchor="start" x="421.5" y="-606.9" font-family="Arial" font-size="14.00" fill="#000000">user_id </text>
<text text-anchor="start" x="471.2882" y="-606.9" font-family="Arial" font-size="14.00" fill="#666666">[bigint unsigned]</text>
<polygon fill="none" stroke="#000000" points="414.5,-565.5 414.5,-595.5 638.5,-595.5 638.5,-565.5 414.5,-565.5"/>
<text text-anchor="start" x="421.5" y="-576.9" font-family="Arial" font-size="14.00" fill="#000000">created_at </text>
<text text-anchor="start" x="491.528" y="-576.9" font-family="Arial" font-size="14.00" fill="#666666">[timestamp]</text>
<polygon fill="none" stroke="#000000" points="414.5,-535.5 414.5,-565.5 638.5,-565.5 638.5,-535.5 414.5,-535.5"/>
<text text-anchor="start" x="421.5" y="-546.9" font-family="Arial" font-size="14.00" fill="#000000">updated_at </text>
<text text-anchor="start" x="495.4326" y="-546.9" font-family="Arial" font-size="14.00" fill="#666666">[timestamp]</text>
<polygon fill="none" stroke="#000000" points="414.5,-505.5 414.5,-535.5 638.5,-535.5 638.5,-505.5 414.5,-505.5"/>
<text text-anchor="start" x="421.5" y="-516.9" font-family="Arial" font-size="14.00" fill="#000000">deleted_at </text>
<text text-anchor="start" x="490.7566" y="-516.9" font-family="Arial" font-size="14.00" fill="#666666">[datetime]</text>
</g>
<!-- favorite_users&#45;&gt;companies -->
<g id="edge2" class="edge">
<title>favorite_users:company_id&#45;&gt;companies:id</title>
<path fill="none" stroke="#000000" d="M648.7426,-639.8341C712.5058,-630.899 663.4542,-533.9293 638.5,-463 626.0146,-427.5117 597.9854,-432.4883 585.5,-397 571.2662,-356.5419 542.6111,-300.5 585.5,-300.5"/>
<polygon fill="#000000" stroke="#000000" points="648.4789,-639.8511 638.208,-636.0095 643.4895,-640.1756 638.5,-640.5 638.5,-640.5 638.5,-640.5 643.4895,-640.1756 638.792,-644.9905 648.4789,-639.8511 648.4789,-639.8511"/>
<text text-anchor="start" x="360.938" y="-650.5" font-family="Arial" font-size="10.00" fill="#000000">FOREIGN KEY (company_id) REFERENCES companies (id)</text>
</g>
<!-- interviews -->
<g id="node4" class="node">
<title>interviews</title>
<polygon fill="#efefef" stroke="transparent" points="743.5,-715.5 743.5,-750.5 948.5,-750.5 948.5,-715.5 743.5,-715.5"/>
<polygon fill="none" stroke="#000000" points="743.5,-715.5 743.5,-750.5 948.5,-750.5 948.5,-715.5 743.5,-715.5"/>
<text text-anchor="start" x="757.3753" y="-728.3" font-family="Arial Bold" font-size="18.00" fill="#000000">interviews</text>
<text text-anchor="start" x="837.3709" y="-728.3" font-family="Arial" font-size="14.00" fill="#000000"> </text>
<text text-anchor="start" x="841.2615" y="-728.3" font-family="Arial" font-size="14.00" fill="#666666">[BASE TABLE]</text>
<polygon fill="none" stroke="#000000" points="743.5,-685.5 743.5,-715.5 948.5,-715.5 948.5,-685.5 743.5,-685.5"/>
<text text-anchor="start" x="750.5" y="-696.9" font-family="Arial" font-size="14.00" fill="#000000">id </text>
<text text-anchor="start" x="765.2798" y="-696.9" font-family="Arial" font-size="14.00" fill="#666666">[bigint unsigned]</text>
<polygon fill="none" stroke="#000000" points="743.5,-655.5 743.5,-685.5 948.5,-685.5 948.5,-655.5 743.5,-655.5"/>
<text text-anchor="start" x="750.5" y="-666.9" font-family="Arial" font-size="14.00" fill="#000000">interview_datetime </text>
<text text-anchor="start" x="871.0708" y="-666.9" font-family="Arial" font-size="14.00" fill="#666666">[datetime]</text>
<polygon fill="none" stroke="#000000" points="743.5,-625.5 743.5,-655.5 948.5,-655.5 948.5,-625.5 743.5,-625.5"/>
<text text-anchor="start" x="750.3212" y="-636.9" font-family="Arial" font-size="14.00" fill="#000000">interivew_status </text>
<text text-anchor="start" x="854.5596" y="-636.9" font-family="Arial" font-size="14.00" fill="#666666">[varchar(255)]</text>
<polygon fill="none" stroke="#000000" points="743.5,-595.5 743.5,-625.5 948.5,-625.5 948.5,-595.5 743.5,-595.5"/>
<text text-anchor="start" x="750.5" y="-606.9" font-family="Arial" font-size="14.00" fill="#000000">user_id </text>
<text text-anchor="start" x="800.2882" y="-606.9" font-family="Arial" font-size="14.00" fill="#666666">[bigint unsigned]</text>
<polygon fill="none" stroke="#000000" points="743.5,-565.5 743.5,-595.5 948.5,-595.5 948.5,-565.5 743.5,-565.5"/>
<text text-anchor="start" x="750.5" y="-576.9" font-family="Arial" font-size="14.00" fill="#000000">company_id </text>
<text text-anchor="start" x="829.8534" y="-576.9" font-family="Arial" font-size="14.00" fill="#666666">[bigint unsigned]</text>
<polygon fill="none" stroke="#000000" points="743.5,-535.5 743.5,-565.5 948.5,-565.5 948.5,-535.5 743.5,-535.5"/>
<text text-anchor="start" x="750.5" y="-546.9" font-family="Arial" font-size="14.00" fill="#000000">created_at </text>
<text text-anchor="start" x="820.528" y="-546.9" font-family="Arial" font-size="14.00" fill="#666666">[timestamp]</text>
<polygon fill="none" stroke="#000000" points="743.5,-505.5 743.5,-535.5 948.5,-535.5 948.5,-505.5 743.5,-505.5"/>
<text text-anchor="start" x="750.5" y="-516.9" font-family="Arial" font-size="14.00" fill="#000000">updated_at </text>
<text text-anchor="start" x="824.4326" y="-516.9" font-family="Arial" font-size="14.00" fill="#666666">[timestamp]</text>
<polygon fill="none" stroke="#000000" points="743.5,-475.5 743.5,-505.5 948.5,-505.5 948.5,-475.5 743.5,-475.5"/>
<text text-anchor="start" x="750.5" y="-486.9" font-family="Arial" font-size="14.00" fill="#000000">deleted_at </text>
<text text-anchor="start" x="819.7566" y="-486.9" font-family="Arial" font-size="14.00" fill="#666666">[datetime]</text>
</g>
<!-- interviews&#45;&gt;companies -->
<g id="edge3" class="edge">
<title>interviews:company_id&#45;&gt;companies:id</title>
<path fill="none" stroke="#000000" d="M733.3319,-579.6719C682.1603,-570.595 717.0172,-488.8851 743.5,-433 754.3201,-410.167 776.6799,-419.833 787.5,-397 805.8663,-358.2426 830.3889,-300.5 787.5,-300.5"/>
<polygon fill="#000000" stroke="#000000" points="733.533,-579.6881 743.1347,-584.9851 738.5165,-580.0941 743.5,-580.5 743.5,-580.5 743.5,-580.5 738.5165,-580.0941 743.8653,-576.0149 733.533,-579.6881 733.533,-579.6881"/>
<text text-anchor="start" x="750.938" y="-590.5" font-family="Arial" font-size="10.00" fill="#000000">FOREIGN KEY (company_id) REFERENCES companies (id)</text>
</g>
<!-- messages -->
<g id="node5" class="node">
<title>messages</title>
<polygon fill="#efefef" stroke="transparent" points="1052.5,-715.5 1052.5,-750.5 1247.5,-750.5 1247.5,-715.5 1052.5,-715.5"/>
<polygon fill="none" stroke="#000000" points="1052.5,-715.5 1052.5,-750.5 1247.5,-750.5 1247.5,-715.5 1052.5,-715.5"/>
<text text-anchor="start" x="1060.3646" y="-728.3" font-family="Arial Bold" font-size="18.00" fill="#000000">messages</text>
<text text-anchor="start" x="1142.3816" y="-728.3" font-family="Arial" font-size="14.00" fill="#000000"> </text>
<text text-anchor="start" x="1146.2722" y="-728.3" font-family="Arial" font-size="14.00" fill="#666666">[BASE TABLE]</text>
<polygon fill="none" stroke="#000000" points="1052.5,-685.5 1052.5,-715.5 1247.5,-715.5 1247.5,-685.5 1052.5,-685.5"/>
<text text-anchor="start" x="1059.5" y="-696.9" font-family="Arial" font-size="14.00" fill="#000000">id </text>
<text text-anchor="start" x="1074.2798" y="-696.9" font-family="Arial" font-size="14.00" fill="#666666">[bigint unsigned]</text>
<polygon fill="none" stroke="#000000" points="1052.5,-655.5 1052.5,-685.5 1247.5,-685.5 1247.5,-655.5 1052.5,-655.5"/>
<text text-anchor="start" x="1059.5" y="-666.9" font-family="Arial" font-size="14.00" fill="#000000">body </text>
<text text-anchor="start" x="1093.7384" y="-666.9" font-family="Arial" font-size="14.00" fill="#666666">[varchar(255)]</text>
<polygon fill="none" stroke="#000000" points="1052.5,-625.5 1052.5,-655.5 1247.5,-655.5 1247.5,-625.5 1052.5,-625.5"/>
<text text-anchor="start" x="1059.5" y="-636.9" font-family="Arial" font-size="14.00" fill="#000000">interview_id </text>
<text text-anchor="start" x="1137.2812" y="-636.9" font-family="Arial" font-size="14.00" fill="#666666">[bigint unsigned]</text>
<polygon fill="none" stroke="#000000" points="1052.5,-595.5 1052.5,-625.5 1247.5,-625.5 1247.5,-595.5 1052.5,-595.5"/>
<text text-anchor="start" x="1059.5" y="-606.9" font-family="Arial" font-size="14.00" fill="#000000">user_id </text>
<text text-anchor="start" x="1109.2882" y="-606.9" font-family="Arial" font-size="14.00" fill="#666666">[bigint unsigned]</text>
<polygon fill="none" stroke="#000000" points="1052.5,-565.5 1052.5,-595.5 1247.5,-595.5 1247.5,-565.5 1052.5,-565.5"/>
<text text-anchor="start" x="1059.3605" y="-576.9" font-family="Arial" font-size="14.00" fill="#000000">company_id </text>
<text text-anchor="start" x="1138.7139" y="-576.9" font-family="Arial" font-size="14.00" fill="#666666">[bigint unsigned]</text>
<polygon fill="none" stroke="#000000" points="1052.5,-535.5 1052.5,-565.5 1247.5,-565.5 1247.5,-535.5 1052.5,-535.5"/>
<text text-anchor="start" x="1059.5" y="-546.9" font-family="Arial" font-size="14.00" fill="#000000">created_at </text>
<text text-anchor="start" x="1129.528" y="-546.9" font-family="Arial" font-size="14.00" fill="#666666">[timestamp]</text>
<polygon fill="none" stroke="#000000" points="1052.5,-505.5 1052.5,-535.5 1247.5,-535.5 1247.5,-505.5 1052.5,-505.5"/>
<text text-anchor="start" x="1059.5" y="-516.9" font-family="Arial" font-size="14.00" fill="#000000">updated_at </text>
<text text-anchor="start" x="1133.4326" y="-516.9" font-family="Arial" font-size="14.00" fill="#666666">[timestamp]</text>
<polygon fill="none" stroke="#000000" points="1052.5,-475.5 1052.5,-505.5 1247.5,-505.5 1247.5,-475.5 1052.5,-475.5"/>
<text text-anchor="start" x="1059.5" y="-486.9" font-family="Arial" font-size="14.00" fill="#000000">deleted_at </text>
<text text-anchor="start" x="1128.7566" y="-486.9" font-family="Arial" font-size="14.00" fill="#666666">[datetime]</text>
</g>
<!-- messages&#45;&gt;companies -->
<g id="edge4" class="edge">
<title>messages:company_id&#45;&gt;companies:id</title>
<path fill="none" stroke="#000000" d="M1042.2288,-579.6845C989.3529,-570.4119 1041.6445,-484.2325 1000.5,-433 930.6899,-346.0734 898.9885,-300.5 787.5,-300.5"/>
<polygon fill="#000000" stroke="#000000" points="1042.5314,-579.7085 1052.1438,-584.9859 1047.5157,-580.1042 1052.5,-580.5 1052.5,-580.5 1052.5,-580.5 1047.5157,-580.1042 1052.8562,-576.0141 1042.5314,-579.7085 1042.5314,-579.7085"/>
<text text-anchor="start" x="1059.938" y="-590.5" font-family="Arial" font-size="10.00" fill="#000000">FOREIGN KEY (company_id) REFERENCES companies (id)</text>
</g>
</g>
</svg>
