<?xml version="1.0" encoding="UTF-8" standalone="no"?>
<!DOCTYPE svg PUBLIC "-//W3C//DTD SVG 1.1//EN"
 "http://www.w3.org/Graphics/SVG/1.1/DTD/svg11.dtd">
<!-- Generated by graphviz version 2.40.1 (20161225.0304)
 -->
<!-- Title: companies Pages: 1 -->
<svg width="1346pt" height="832pt"
 viewBox="0.00 0.00 1345.50 832.00" xmlns="http://www.w3.org/2000/svg" xmlns:xlink="http://www.w3.org/1999/xlink">
<g id="graph0" class="graph" transform="scale(1 1) rotate(0) translate(4 828)">
<title>companies</title>
<polygon fill="#ffffff" stroke="transparent" points="-4,4 -4,-828 1341.5,-828 1341.5,4 -4,4"/>
<!-- companies -->
<g id="node1" class="node">
<title>companies</title>
<polygon fill="#efefef" stroke="transparent" points="579.5,-345.5 579.5,-380.5 793.5,-380.5 793.5,-345.5 579.5,-345.5"/>
<polygon fill="none" stroke="#000000" points="579.5,-345.5 579.5,-380.5 793.5,-380.5 793.5,-345.5 579.5,-345.5"/>
<text text-anchor="start" x="594.3644" y="-358.3" font-family="Arial Bold" font-size="18.00" fill="#000000">companies</text>
<text text-anchor="start" x="681.3818" y="-358.3" font-family="Arial" font-size="14.00" fill="#000000"> </text>
<text text-anchor="start" x="685.2724" y="-358.3" font-family="Arial" font-size="14.00" fill="#666666">[BASE TABLE]</text>
<polygon fill="none" stroke="#000000" points="579.5,-315.5 579.5,-345.5 793.5,-345.5 793.5,-315.5 579.5,-315.5"/>
<text text-anchor="start" x="586.5" y="-326.9" font-family="Arial" font-size="14.00" fill="#000000">id </text>
<text text-anchor="start" x="601.2798" y="-326.9" font-family="Arial" font-size="14.00" fill="#666666">[bigint unsigned]</text>
<polygon fill="none" stroke="#000000" points="579.5,-285.5 579.5,-315.5 793.5,-315.5 793.5,-285.5 579.5,-285.5"/>
<text text-anchor="start" x="586.5" y="-296.9" font-family="Arial" font-size="14.00" fill="#000000">name </text>
<text text-anchor="start" x="625.399" y="-296.9" font-family="Arial" font-size="14.00" fill="#666666">[varchar(255)]</text>
<polygon fill="none" stroke="#000000" points="579.5,-255.5 579.5,-285.5 793.5,-285.5 793.5,-255.5 579.5,-255.5"/>
<text text-anchor="start" x="586.5" y="-266.9" font-family="Arial" font-size="14.00" fill="#000000">email </text>
<text text-anchor="start" x="623.8296" y="-266.9" font-family="Arial" font-size="14.00" fill="#666666">[varchar(255)]</text>
<polygon fill="none" stroke="#000000" points="579.5,-225.5 579.5,-255.5 793.5,-255.5 793.5,-225.5 579.5,-225.5"/>
<text text-anchor="start" x="586.5" y="-236.9" font-family="Arial" font-size="14.00" fill="#000000">password </text>
<text text-anchor="start" x="650.2882" y="-236.9" font-family="Arial" font-size="14.00" fill="#666666">[varchar(255)]</text>
<polygon fill="none" stroke="#000000" points="579.5,-195.5 579.5,-225.5 793.5,-225.5 793.5,-195.5 579.5,-195.5"/>
<text text-anchor="start" x="586.5" y="-206.9" font-family="Arial" font-size="14.00" fill="#000000">profile </text>
<text text-anchor="start" x="628.5028" y="-206.9" font-family="Arial" font-size="14.00" fill="#666666">[varchar(255)]</text>
<polygon fill="none" stroke="#000000" points="579.5,-165.5 579.5,-195.5 793.5,-195.5 793.5,-165.5 579.5,-165.5"/>
<text text-anchor="start" x="586.5" y="-176.9" font-family="Arial" font-size="14.00" fill="#000000">is_enable_interview </text>
<text text-anchor="start" x="713.3008" y="-176.9" font-family="Arial" font-size="14.00" fill="#666666">[tinyint(1)]</text>
<polygon fill="none" stroke="#000000" points="579.5,-135.5 579.5,-165.5 793.5,-165.5 793.5,-135.5 579.5,-135.5"/>
<text text-anchor="start" x="586.141" y="-146.9" font-family="Arial" font-size="14.00" fill="#000000">enable_interview_datetime </text>
<text text-anchor="start" x="756.514" y="-146.9" font-family="Arial" font-size="14.00" fill="#666666">[text]</text>
<polygon fill="none" stroke="#000000" points="579.5,-105.5 579.5,-135.5 793.5,-135.5 793.5,-105.5 579.5,-105.5"/>
<text text-anchor="start" x="586.5" y="-116.9" font-family="Arial" font-size="14.00" fill="#000000">created_at </text>
<text text-anchor="start" x="656.528" y="-116.9" font-family="Arial" font-size="14.00" fill="#666666">[timestamp]</text>
<polygon fill="none" stroke="#000000" points="579.5,-75.5 579.5,-105.5 793.5,-105.5 793.5,-75.5 579.5,-75.5"/>
<text text-anchor="start" x="586.5" y="-86.9" font-family="Arial" font-size="14.00" fill="#000000">updated_at </text>
<text text-anchor="start" x="660.4326" y="-86.9" font-family="Arial" font-size="14.00" fill="#666666">[timestamp]</text>
<polygon fill="none" stroke="#000000" points="579.5,-45.5 579.5,-75.5 793.5,-75.5 793.5,-45.5 579.5,-45.5"/>
<text text-anchor="start" x="586.5" y="-56.9" font-family="Arial" font-size="14.00" fill="#000000">deleted_at </text>
<text text-anchor="start" x="655.7566" y="-56.9" font-family="Arial" font-size="14.00" fill="#666666">[datetime]</text>
<polygon fill="none" stroke="#000000" stroke-width="3" points="578,-44.5 578,-382.5 795,-382.5 795,-44.5 578,-44.5"/>
</g>
<!-- favorite_companies -->
<g id="node2" class="node">
<title>favorite_companies</title>
<polygon fill="#efefef" stroke="transparent" points="43.5,-715.5 43.5,-750.5 310.5,-750.5 310.5,-715.5 43.5,-715.5"/>
<polygon fill="none" stroke="#000000" points="43.5,-715.5 43.5,-750.5 310.5,-750.5 310.5,-715.5 43.5,-715.5"/>
<text text-anchor="start" x="50.3566" y="-728.3" font-family="Arial Bold" font-size="18.00" fill="#000000">favorite_companies</text>
<text text-anchor="start" x="206.3896" y="-728.3" font-family="Arial" font-size="14.00" fill="#000000"> </text>
<text text-anchor="start" x="210.2802" y="-728.3" font-family="Arial" font-size="14.00" fill="#666666">[BASE TABLE]</text>
<polygon fill="none" stroke="#000000" points="43.5,-685.5 43.5,-715.5 310.5,-715.5 310.5,-685.5 43.5,-685.5"/>
<text text-anchor="start" x="50.5" y="-696.9" font-family="Arial" font-size="14.00" fill="#000000">id </text>
<text text-anchor="start" x="65.2798" y="-696.9" font-family="Arial" font-size="14.00" fill="#666666">[bigint unsigned]</text>
<polygon fill="none" stroke="#000000" points="43.5,-655.5 43.5,-685.5 310.5,-685.5 310.5,-655.5 43.5,-655.5"/>
<text text-anchor="start" x="50.5" y="-666.9" font-family="Arial" font-size="14.00" fill="#000000">user_id </text>
<text text-anchor="start" x="100.2882" y="-666.9" font-family="Arial" font-size="14.00" fill="#666666">[bigint unsigned]</text>
<polygon fill="none" stroke="#000000" points="43.5,-625.5 43.5,-655.5 310.5,-655.5 310.5,-625.5 43.5,-625.5"/>
<text text-anchor="start" x="50.5" y="-636.9" font-family="Arial" font-size="14.00" fill="#000000">company_id </text>
<text text-anchor="start" x="129.8534" y="-636.9" font-family="Arial" font-size="14.00" fill="#666666">[bigint unsigned]</text>
<polygon fill="none" stroke="#000000" points="43.5,-595.5 43.5,-625.5 310.5,-625.5 310.5,-595.5 43.5,-595.5"/>
<text text-anchor="start" x="50.5" y="-606.9" font-family="Arial" font-size="14.00" fill="#000000">created_at </text>
<text text-anchor="start" x="120.528" y="-606.9" font-family="Arial" font-size="14.00" fill="#666666">[timestamp]</text>
<polygon fill="none" stroke="#000000" points="43.5,-565.5 43.5,-595.5 310.5,-595.5 310.5,-565.5 43.5,-565.5"/>
<text text-anchor="start" x="50.5" y="-576.9" font-family="Arial" font-size="14.00" fill="#000000">updated_at </text>
<text text-anchor="start" x="124.4326" y="-576.9" font-family="Arial" font-size="14.00" fill="#666666">[timestamp]</text>
<polygon fill="none" stroke="#000000" points="43.5,-535.5 43.5,-565.5 310.5,-565.5 310.5,-535.5 43.5,-535.5"/>
<text text-anchor="start" x="50.5" y="-546.9" font-family="Arial" font-size="14.00" fill="#000000">deleted_at </text>
<text text-anchor="start" x="119.7566" y="-546.9" font-family="Arial" font-size="14.00" fill="#666666">[datetime]</text>
</g>
<!-- favorite_companies&#45;&gt;companies -->
<g id="edge1" class="edge">
<title>favorite_companies:company_id&#45;&gt;companies:id</title>
<path fill="none" stroke="#000000" d="M320.6217,-639.8349C385.7616,-630.5101 314.7485,-525.3208 362.5,-463 431.2287,-373.3016 466.4981,-330.5 579.5,-330.5"/>
<polygon fill="#000000" stroke="#000000" points="320.4785,-639.8442 310.2049,-636.0097 315.4892,-640.1721 310.5,-640.5 310.5,-640.5 310.5,-640.5 315.4892,-640.1721 310.7951,-644.9903 320.4785,-639.8442 320.4785,-639.8442"/>
<text text-anchor="start" x="175.438" y="-624.5" font-family="Arial" font-size="10.00" fill="#000000">FOREIGN KEY (company_id) REFERENCES companies (id)</text>
</g>
<!-- favorite_users -->
<g id="node3" class="node">
<title>favorite_users</title>
<polygon fill="#efefef" stroke="transparent" points="414.5,-715.5 414.5,-750.5 638.5,-750.5 638.5,-715.5 414.5,-715.5"/>
<polygon fill="none" stroke="#000000" points="414.5,-715.5 414.5,-750.5 638.5,-750.5 638.5,-715.5 414.5,-715.5"/>
<text text-anchor="start" x="421.363" y="-728.3" font-family="Arial Bold" font-size="18.00" fill="#000000">favorite_users</text>
<text text-anchor="start" x="534.3832" y="-728.3" font-family="Arial" font-size="14.00" fill="#000000"> </text>
<text text-anchor="start" x="538.2738" y="-728.3" font-family="Arial" font-size="14.00" fill="#666666">[BASE TABLE]</text>
<polygon fill="none" stroke="#000000" points="414.5,-685.5 414.5,-715.5 638.5,-715.5 638.5,-685.5 414.5,-685.5"/>
<text text-anchor="start" x="421.5" y="-696.9" font-family="Arial" font-size="14.00" fill="#000000">id </text>
<text text-anchor="start" x="436.2798" y="-696.9" font-family="Arial" font-size="14.00" fill="#666666">[bigint unsigned]</text>
<polygon fill="none" stroke="#000000" points="414.5,-655.5 414.5,-685.5 638.5,-685.5 638.5,-655.5 414.5,-655.5"/>
<text text-anchor="start" x="421.5" y="-666.9" font-family="Arial" font-size="14.00" fill="#000000">company_id </text>
<text text-anchor="start" x="500.8534" y="-666.9" font-family="Arial" font-size="14.00" fill="#666666">[bigint unsigned]</text>
<polygon fill="none" stroke="#000000" points="414.5,-625.5 414.5,-655.5 638.5,-655.5 638.5,-625.5 414.5,-625.5"/>
<text text-anchor="start" x="421.5" y="-636.9" font-family="Arial" font-size="14.00" fill="#000000">user_id </text>
<text text-anchor="start" x="471.2882" y="-636.9" font-family="Arial" font-size="14.00" fill="#666666">[bigint unsigned]</text>
<polygon fill="none" stroke="#000000" points="414.5,-595.5 414.5,-625.5 638.5,-625.5 638.5,-595.5 414.5,-595.5"/>
<text text-anchor="start" x="421.5" y="-606.9" font-family="Arial" font-size="14.00" fill="#000000">created_at </text>
<text text-anchor="start" x="491.528" y="-606.9" font-family="Arial" font-size="14.00" fill="#666666">[timestamp]</text>
<polygon fill="none" stroke="#000000" points="414.5,-565.5 414.5,-595.5 638.5,-595.5 638.5,-565.5 414.5,-565.5"/>
<text text-anchor="start" x="421.5" y="-576.9" font-family="Arial" font-size="14.00" fill="#000000">updated_at </text>
<text text-anchor="start" x="495.4326" y="-576.9" font-family="Arial" font-size="14.00" fill="#666666">[timestamp]</text>
<polygon fill="none" stroke="#000000" points="414.5,-535.5 414.5,-565.5 638.5,-565.5 638.5,-535.5 414.5,-535.5"/>
<text text-anchor="start" x="421.5" y="-546.9" font-family="Arial" font-size="14.00" fill="#000000">deleted_at </text>
<text text-anchor="start" x="490.7566" y="-546.9" font-family="Arial" font-size="14.00" fill="#666666">[datetime]</text>
</g>
<!-- favorite_users&#45;&gt;companies -->
<g id="edge2" class="edge">
<title>favorite_users:company_id&#45;&gt;companies:id</title>
<path fill="none" stroke="#000000" d="M648.7549,-669.8296C712.6808,-660.8349 665.3203,-563.245 638.5,-493 624.4657,-456.2428 593.5343,-463.7572 579.5,-427 564.2017,-386.9323 536.6111,-330.5 579.5,-330.5"/>
<polygon fill="#000000" stroke="#000000" points="648.4787,-669.8475 638.2064,-666.0096 643.4893,-670.1738 638.5,-670.5 638.5,-670.5 638.5,-670.5 643.4893,-670.1738 638.7936,-674.9904 648.4787,-669.8475 648.4787,-669.8475"/>
<text text-anchor="start" x="360.938" y="-680.5" font-family="Arial" font-size="10.00" fill="#000000">FOREIGN KEY (company_id) REFERENCES companies (id)</text>
</g>
<!-- interviews -->
<g id="node4" class="node">
<title>interviews</title>
<polygon fill="#efefef" stroke="transparent" points="743.5,-745.5 743.5,-780.5 948.5,-780.5 948.5,-745.5 743.5,-745.5"/>
<polygon fill="none" stroke="#000000" points="743.5,-745.5 743.5,-780.5 948.5,-780.5 948.5,-745.5 743.5,-745.5"/>
<text text-anchor="start" x="757.3753" y="-758.3" font-family="Arial Bold" font-size="18.00" fill="#000000">interviews</text>
<text text-anchor="start" x="837.3709" y="-758.3" font-family="Arial" font-size="14.00" fill="#000000"> </text>
<text text-anchor="start" x="841.2615" y="-758.3" font-family="Arial" font-size="14.00" fill="#666666">[BASE TABLE]</text>
<polygon fill="none" stroke="#000000" points="743.5,-715.5 743.5,-745.5 948.5,-745.5 948.5,-715.5 743.5,-715.5"/>
<text text-anchor="start" x="750.5" y="-726.9" font-family="Arial" font-size="14.00" fill="#000000">id </text>
<text text-anchor="start" x="765.2798" y="-726.9" font-family="Arial" font-size="14.00" fill="#666666">[bigint unsigned]</text>
<polygon fill="none" stroke="#000000" points="743.5,-685.5 743.5,-715.5 948.5,-715.5 948.5,-685.5 743.5,-685.5"/>
<text text-anchor="start" x="750.5" y="-696.9" font-family="Arial" font-size="14.00" fill="#000000">interview_datetime </text>
<text text-anchor="start" x="871.0708" y="-696.9" font-family="Arial" font-size="14.00" fill="#666666">[datetime]</text>
<polygon fill="none" stroke="#000000" points="743.5,-655.5 743.5,-685.5 948.5,-685.5 948.5,-655.5 743.5,-655.5"/>
<text text-anchor="start" x="750.3212" y="-666.9" font-family="Arial" font-size="14.00" fill="#000000">interivew_status </text>
<text text-anchor="start" x="854.5596" y="-666.9" font-family="Arial" font-size="14.00" fill="#666666">[varchar(255)]</text>
<polygon fill="none" stroke="#000000" points="743.5,-625.5 743.5,-655.5 948.5,-655.5 948.5,-625.5 743.5,-625.5"/>
<text text-anchor="start" x="750.5" y="-636.9" font-family="Arial" font-size="14.00" fill="#000000">user_id </text>
<text text-anchor="start" x="800.2882" y="-636.9" font-family="Arial" font-size="14.00" fill="#666666">[bigint unsigned]</text>
<polygon fill="none" stroke="#000000" points="743.5,-595.5 743.5,-625.5 948.5,-625.5 948.5,-595.5 743.5,-595.5"/>
<text text-anchor="start" x="750.5" y="-606.9" font-family="Arial" font-size="14.00" fill="#000000">company_id </text>
<text text-anchor="start" x="829.8534" y="-606.9" font-family="Arial" font-size="14.00" fill="#666666">[bigint unsigned]</text>
<polygon fill="none" stroke="#000000" points="743.5,-565.5 743.5,-595.5 948.5,-595.5 948.5,-565.5 743.5,-565.5"/>
<text text-anchor="start" x="750.5" y="-576.9" font-family="Arial" font-size="14.00" fill="#000000">created_at </text>
<text text-anchor="start" x="820.528" y="-576.9" font-family="Arial" font-size="14.00" fill="#666666">[timestamp]</text>
<polygon fill="none" stroke="#000000" points="743.5,-535.5 743.5,-565.5 948.5,-565.5 948.5,-535.5 743.5,-535.5"/>
<text text-anchor="start" x="750.5" y="-546.9" font-family="Arial" font-size="14.00" fill="#000000">updated_at </text>
<text text-anchor="start" x="824.4326" y="-546.9" font-family="Arial" font-size="14.00" fill="#666666">[timestamp]</text>
<polygon fill="none" stroke="#000000" points="743.5,-505.5 743.5,-535.5 948.5,-535.5 948.5,-505.5 743.5,-505.5"/>
<text text-anchor="start" x="750.5" y="-516.9" font-family="Arial" font-size="14.00" fill="#000000">deleted_at </text>
<text text-anchor="start" x="819.7566" y="-516.9" font-family="Arial" font-size="14.00" fill="#666666">[datetime]</text>
</g>
<!-- interviews&#45;&gt;companies -->
<g id="edge3" class="edge">
<title>interviews:company_id&#45;&gt;companies:id</title>
<path fill="none" stroke="#000000" d="M733.3155,-609.6637C681.9665,-600.4994 715.3058,-518.0416 743.5,-463 755.984,-438.6283 781.016,-451.3717 793.5,-427 813.0532,-388.8276 836.3889,-330.5 793.5,-330.5"/>
<polygon fill="#000000" stroke="#000000" points="733.5335,-609.6816 743.1317,-614.9849 738.5168,-610.0908 743.5,-610.5 743.5,-610.5 743.5,-610.5 738.5168,-610.0908 743.8683,-606.0151 733.5335,-609.6816 733.5335,-609.6816"/>
<text text-anchor="start" x="750.938" y="-620.5" font-family="Arial" font-size="10.00" fill="#000000">FOREIGN KEY (company_id) REFERENCES companies (id)</text>
</g>
<!-- messages -->
<g id="node5" class="node">
<title>messages</title>
<polygon fill="#efefef" stroke="transparent" points="1052.5,-745.5 1052.5,-780.5 1247.5,-780.5 1247.5,-745.5 1052.5,-745.5"/>
<polygon fill="none" stroke="#000000" points="1052.5,-745.5 1052.5,-780.5 1247.5,-780.5 1247.5,-745.5 1052.5,-745.5"/>
<text text-anchor="start" x="1060.3646" y="-758.3" font-family="Arial Bold" font-size="18.00" fill="#000000">messages</text>
<text text-anchor="start" x="1142.3816" y="-758.3" font-family="Arial" font-size="14.00" fill="#000000"> </text>
<text text-anchor="start" x="1146.2722" y="-758.3" font-family="Arial" font-size="14.00" fill="#666666">[BASE TABLE]</text>
<polygon fill="none" stroke="#000000" points="1052.5,-715.5 1052.5,-745.5 1247.5,-745.5 1247.5,-715.5 1052.5,-715.5"/>
<text text-anchor="start" x="1059.5" y="-726.9" font-family="Arial" font-size="14.00" fill="#000000">id </text>
<text text-anchor="start" x="1074.2798" y="-726.9" font-family="Arial" font-size="14.00" fill="#666666">[bigint unsigned]</text>
<polygon fill="none" stroke="#000000" points="1052.5,-685.5 1052.5,-715.5 1247.5,-715.5 1247.5,-685.5 1052.5,-685.5"/>
<text text-anchor="start" x="1059.5" y="-696.9" font-family="Arial" font-size="14.00" fill="#000000">body </text>
<text text-anchor="start" x="1093.7384" y="-696.9" font-family="Arial" font-size="14.00" fill="#666666">[varchar(255)]</text>
<polygon fill="none" stroke="#000000" points="1052.5,-655.5 1052.5,-685.5 1247.5,-685.5 1247.5,-655.5 1052.5,-655.5"/>
<text text-anchor="start" x="1059.5" y="-666.9" font-family="Arial" font-size="14.00" fill="#000000">interview_id </text>
<text text-anchor="start" x="1137.2812" y="-666.9" font-family="Arial" font-size="14.00" fill="#666666">[bigint unsigned]</text>
<polygon fill="none" stroke="#000000" points="1052.5,-625.5 1052.5,-655.5 1247.5,-655.5 1247.5,-625.5 1052.5,-625.5"/>
<text text-anchor="start" x="1059.5" y="-636.9" font-family="Arial" font-size="14.00" fill="#000000">user_id </text>
<text text-anchor="start" x="1109.2882" y="-636.9" font-family="Arial" font-size="14.00" fill="#666666">[bigint unsigned]</text>
<polygon fill="none" stroke="#000000" points="1052.5,-595.5 1052.5,-625.5 1247.5,-625.5 1247.5,-595.5 1052.5,-595.5"/>
<text text-anchor="start" x="1059.3605" y="-606.9" font-family="Arial" font-size="14.00" fill="#000000">company_id </text>
<text text-anchor="start" x="1138.7139" y="-606.9" font-family="Arial" font-size="14.00" fill="#666666">[bigint unsigned]</text>
<polygon fill="none" stroke="#000000" points="1052.5,-565.5 1052.5,-595.5 1247.5,-595.5 1247.5,-565.5 1052.5,-565.5"/>
<text text-anchor="start" x="1059.5" y="-576.9" font-family="Arial" font-size="14.00" fill="#000000">created_at </text>
<text text-anchor="start" x="1129.528" y="-576.9" font-family="Arial" font-size="14.00" fill="#666666">[timestamp]</text>
<polygon fill="none" stroke="#000000" points="1052.5,-535.5 1052.5,-565.5 1247.5,-565.5 1247.5,-535.5 1052.5,-535.5"/>
<text text-anchor="start" x="1059.5" y="-546.9" font-family="Arial" font-size="14.00" fill="#000000">updated_at </text>
<text text-anchor="start" x="1133.4326" y="-546.9" font-family="Arial" font-size="14.00" fill="#666666">[timestamp]</text>
<polygon fill="none" stroke="#000000" points="1052.5,-505.5 1052.5,-535.5 1247.5,-535.5 1247.5,-505.5 1052.5,-505.5"/>
<text text-anchor="start" x="1059.5" y="-516.9" font-family="Arial" font-size="14.00" fill="#000000">deleted_at </text>
<text text-anchor="start" x="1128.7566" y="-516.9" font-family="Arial" font-size="14.00" fill="#666666">[datetime]</text>
</g>
<!-- messages&#45;&gt;companies -->
<g id="edge4" class="edge">
<title>messages:company_id&#45;&gt;companies:id</title>
<path fill="none" stroke="#000000" d="M1042.2258,-609.6869C989.3167,-600.4408 1041.3133,-514.4968 1000.5,-463 932.6526,-377.3926 902.7332,-330.5 793.5,-330.5"/>
<polygon fill="#000000" stroke="#000000" points="1042.5312,-609.711 1052.1449,-614.986 1047.5156,-610.1055 1052.5,-610.5 1052.5,-610.5 1052.5,-610.5 1047.5156,-610.1055 1052.8551,-606.014 1042.5312,-609.711 1042.5312,-609.711"/>
<text text-anchor="start" x="1059.938" y="-620.5" font-family="Arial" font-size="10.00" fill="#000000">FOREIGN KEY (company_id) REFERENCES companies (id)</text>
</g>
</g>
</svg>
