<?xml version="1.0" encoding="UTF-8" standalone="no"?>
<!DOCTYPE svg PUBLIC "-//W3C//DTD SVG 1.1//EN"
 "http://www.w3.org/Graphics/SVG/1.1/DTD/svg11.dtd">
<!-- Generated by graphviz version 2.40.1 (20161225.0304)
 -->
<!-- Title: favorite_companies Pages: 1 -->
<svg width="800pt" height="772pt"
 viewBox="0.00 0.00 800.00 772.00" xmlns="http://www.w3.org/2000/svg" xmlns:xlink="http://www.w3.org/1999/xlink">
<g id="graph0" class="graph" transform="scale(1 1) rotate(0) translate(4 768)">
<title>favorite_companies</title>
<polygon fill="#ffffff" stroke="transparent" points="-4,4 -4,-768 796,-768 796,4 -4,4"/>
<!-- favorite_companies -->
<g id="node1" class="node">
<title>favorite_companies</title>
<polygon fill="#efefef" stroke="transparent" points="240,-682.5 240,-717.5 507,-717.5 507,-682.5 240,-682.5"/>
<polygon fill="none" stroke="#000000" points="240,-682.5 240,-717.5 507,-717.5 507,-682.5 240,-682.5"/>
<text text-anchor="start" x="246.8566" y="-695.3" font-family="Arial Bold" font-size="18.00" fill="#000000">favorite_companies</text>
<text text-anchor="start" x="402.8896" y="-695.3" font-family="Arial" font-size="14.00" fill="#000000"> </text>
<text text-anchor="start" x="406.7802" y="-695.3" font-family="Arial" font-size="14.00" fill="#666666">[BASE TABLE]</text>
<polygon fill="none" stroke="#000000" points="240,-652.5 240,-682.5 507,-682.5 507,-652.5 240,-652.5"/>
<text text-anchor="start" x="247" y="-663.9" font-family="Arial" font-size="14.00" fill="#000000">id </text>
<text text-anchor="start" x="261.7798" y="-663.9" font-family="Arial" font-size="14.00" fill="#666666">[bigint unsigned]</text>
<polygon fill="none" stroke="#000000" points="240,-622.5 240,-652.5 507,-652.5 507,-622.5 240,-622.5"/>
<text text-anchor="start" x="247" y="-633.9" font-family="Arial" font-size="14.00" fill="#000000">user_id </text>
<text text-anchor="start" x="296.7882" y="-633.9" font-family="Arial" font-size="14.00" fill="#666666">[bigint unsigned]</text>
<polygon fill="none" stroke="#000000" points="240,-592.5 240,-622.5 507,-622.5 507,-592.5 240,-592.5"/>
<text text-anchor="start" x="247" y="-603.9" font-family="Arial" font-size="14.00" fill="#000000">company_id </text>
<text text-anchor="start" x="326.3534" y="-603.9" font-family="Arial" font-size="14.00" fill="#666666">[bigint unsigned]</text>
<polygon fill="none" stroke="#000000" points="240,-562.5 240,-592.5 507,-592.5 507,-562.5 240,-562.5"/>
<text text-anchor="start" x="247" y="-573.9" font-family="Arial" font-size="14.00" fill="#000000">created_at </text>
<text text-anchor="start" x="317.028" y="-573.9" font-family="Arial" font-size="14.00" fill="#666666">[timestamp]</text>
<polygon fill="none" stroke="#000000" points="240,-532.5 240,-562.5 507,-562.5 507,-532.5 240,-532.5"/>
<text text-anchor="start" x="247" y="-543.9" font-family="Arial" font-size="14.00" fill="#000000">updated_at </text>
<text text-anchor="start" x="320.9326" y="-543.9" font-family="Arial" font-size="14.00" fill="#666666">[timestamp]</text>
<polygon fill="none" stroke="#000000" points="240,-502.5 240,-532.5 507,-532.5 507,-502.5 240,-502.5"/>
<text text-anchor="start" x="247" y="-513.9" font-family="Arial" font-size="14.00" fill="#000000">deleted_at </text>
<text text-anchor="start" x="316.2566" y="-513.9" font-family="Arial" font-size="14.00" fill="#666666">[datetime]</text>
<polygon fill="none" stroke="#000000" stroke-width="3" points="238,-501.5 238,-719.5 508,-719.5 508,-501.5 238,-501.5"/>
</g>
<!-- users -->
<g id="node2" class="node">
<title>users</title>
<polygon fill="#efefef" stroke="transparent" points="111,-327.5 111,-362.5 321,-362.5 321,-327.5 111,-327.5"/>
<polygon fill="none" stroke="#000000" points="111,-327.5 111,-362.5 321,-362.5 321,-327.5 111,-327.5"/>
<text text-anchor="start" x="145.3708" y="-340.3" font-family="Arial Bold" font-size="18.00" fill="#000000">users</text>
<text text-anchor="start" x="189.3754" y="-340.3" font-family="Arial" font-size="14.00" fill="#000000"> </text>
<text text-anchor="start" x="193.266" y="-340.3" font-family="Arial" font-size="14.00" fill="#666666">[BASE TABLE]</text>
<polygon fill="none" stroke="#000000" points="111,-297.5 111,-327.5 321,-327.5 321,-297.5 111,-297.5"/>
<text text-anchor="start" x="118" y="-308.9" font-family="Arial" font-size="14.00" fill="#000000">id </text>
<text text-anchor="start" x="132.7798" y="-308.9" font-family="Arial" font-size="14.00" fill="#666666">[bigint unsigned]</text>
<polygon fill="none" stroke="#000000" points="111,-267.5 111,-297.5 321,-297.5 321,-267.5 111,-267.5"/>
<text text-anchor="start" x="118" y="-278.9" font-family="Arial" font-size="14.00" fill="#000000">name </text>
<text text-anchor="start" x="156.899" y="-278.9" font-family="Arial" font-size="14.00" fill="#666666">[varchar(255)]</text>
<polygon fill="none" stroke="#000000" points="111,-237.5 111,-267.5 321,-267.5 321,-237.5 111,-237.5"/>
<text text-anchor="start" x="118" y="-248.9" font-family="Arial" font-size="14.00" fill="#000000">email </text>
<text text-anchor="start" x="155.3296" y="-248.9" font-family="Arial" font-size="14.00" fill="#666666">[varchar(255)]</text>
<polygon fill="none" stroke="#000000" points="111,-207.5 111,-237.5 321,-237.5 321,-207.5 111,-207.5"/>
<text text-anchor="start" x="118" y="-218.9" font-family="Arial" font-size="14.00" fill="#000000">email_verified_at </text>
<text text-anchor="start" x="227.6802" y="-218.9" font-family="Arial" font-size="14.00" fill="#666666">[timestamp]</text>
<polygon fill="none" stroke="#000000" points="111,-177.5 111,-207.5 321,-207.5 321,-177.5 111,-177.5"/>
<text text-anchor="start" x="118" y="-188.9" font-family="Arial" font-size="14.00" fill="#000000">password </text>
<text text-anchor="start" x="181.7882" y="-188.9" font-family="Arial" font-size="14.00" fill="#666666">[varchar(255)]</text>
<polygon fill="none" stroke="#000000" points="111,-147.5 111,-177.5 321,-177.5 321,-147.5 111,-147.5"/>
<text text-anchor="start" x="118" y="-158.9" font-family="Arial" font-size="14.00" fill="#000000">profile </text>
<text text-anchor="start" x="160.0028" y="-158.9" font-family="Arial" font-size="14.00" fill="#666666">[text]</text>
<polygon fill="none" stroke="#000000" points="111,-117.5 111,-147.5 321,-147.5 321,-117.5 111,-117.5"/>
<text text-anchor="start" x="117.5982" y="-128.9" font-family="Arial" font-size="14.00" fill="#000000">remember_token </text>
<text text-anchor="start" x="227.2826" y="-128.9" font-family="Arial" font-size="14.00" fill="#666666">[varchar(100)]</text>
<polygon fill="none" stroke="#000000" points="111,-87.5 111,-117.5 321,-117.5 321,-87.5 111,-87.5"/>
<text text-anchor="start" x="118" y="-98.9" font-family="Arial" font-size="14.00" fill="#000000">created_at </text>
<text text-anchor="start" x="188.028" y="-98.9" font-family="Arial" font-size="14.00" fill="#666666">[timestamp]</text>
<polygon fill="none" stroke="#000000" points="111,-57.5 111,-87.5 321,-87.5 321,-57.5 111,-57.5"/>
<text text-anchor="start" x="118" y="-68.9" font-family="Arial" font-size="14.00" fill="#000000">updated_at </text>
<text text-anchor="start" x="191.9326" y="-68.9" font-family="Arial" font-size="14.00" fill="#666666">[timestamp]</text>
</g>
<!-- favorite_companies&#45;&gt;users -->
<g id="edge1" class="edge">
<title>favorite_companies:user_id&#45;&gt;users:id</title>
<path fill="none" stroke="#000000" d="M229.9141,-636.8461C163.4964,-627.6738 202.9691,-524.0754 240,-457 260.5609,-419.7572 300.4391,-443.2428 321,-406 341.0844,-369.6203 362.5556,-312.5 321,-312.5"/>
<polygon fill="#000000" stroke="#000000" points="230.021,-636.8529 239.7088,-641.9906 235.0105,-637.1764 240,-637.5 240,-637.5 240,-637.5 235.0105,-637.1764 240.2912,-633.0094 230.021,-636.8529 230.021,-636.8529"/>
<text text-anchor="start" x="6.945" y="-647.5" font-family="Arial" font-size="10.00" fill="#000000">FOREIGN KEY (user_id) REFERENCES users (id)</text>
</g>
<!-- companies -->
<g id="node3" class="node">
<title>companies</title>
<polygon fill="#efefef" stroke="transparent" points="425,-342.5 425,-377.5 639,-377.5 639,-342.5 425,-342.5"/>
<polygon fill="none" stroke="#000000" points="425,-342.5 425,-377.5 639,-377.5 639,-342.5 425,-342.5"/>
<text text-anchor="start" x="439.8644" y="-355.3" font-family="Arial Bold" font-size="18.00" fill="#000000">companies</text>
<text text-anchor="start" x="526.8818" y="-355.3" font-family="Arial" font-size="14.00" fill="#000000"> </text>
<text text-anchor="start" x="530.7724" y="-355.3" font-family="Arial" font-size="14.00" fill="#666666">[BASE TABLE]</text>
<polygon fill="none" stroke="#000000" points="425,-312.5 425,-342.5 639,-342.5 639,-312.5 425,-312.5"/>
<text text-anchor="start" x="432" y="-323.9" font-family="Arial" font-size="14.00" fill="#000000">id </text>
<text text-anchor="start" x="446.7798" y="-323.9" font-family="Arial" font-size="14.00" fill="#666666">[bigint unsigned]</text>
<polygon fill="none" stroke="#000000" points="425,-282.5 425,-312.5 639,-312.5 639,-282.5 425,-282.5"/>
<text text-anchor="start" x="432" y="-293.9" font-family="Arial" font-size="14.00" fill="#000000">name </text>
<text text-anchor="start" x="470.899" y="-293.9" font-family="Arial" font-size="14.00" fill="#666666">[varchar(255)]</text>
<polygon fill="none" stroke="#000000" points="425,-252.5 425,-282.5 639,-282.5 639,-252.5 425,-252.5"/>
<text text-anchor="start" x="432" y="-263.9" font-family="Arial" font-size="14.00" fill="#000000">email </text>
<text text-anchor="start" x="469.3296" y="-263.9" font-family="Arial" font-size="14.00" fill="#666666">[varchar(255)]</text>
<polygon fill="none" stroke="#000000" points="425,-222.5 425,-252.5 639,-252.5 639,-222.5 425,-222.5"/>
<text text-anchor="start" x="432" y="-233.9" font-family="Arial" font-size="14.00" fill="#000000">password </text>
<text text-anchor="start" x="495.7882" y="-233.9" font-family="Arial" font-size="14.00" fill="#666666">[varchar(255)]</text>
<polygon fill="none" stroke="#000000" points="425,-192.5 425,-222.5 639,-222.5 639,-192.5 425,-192.5"/>
<text text-anchor="start" x="432" y="-203.9" font-family="Arial" font-size="14.00" fill="#000000">profile </text>
<text text-anchor="start" x="474.0028" y="-203.9" font-family="Arial" font-size="14.00" fill="#666666">[varchar(255)]</text>
<polygon fill="none" stroke="#000000" points="425,-162.5 425,-192.5 639,-192.5 639,-162.5 425,-162.5"/>
<text text-anchor="start" x="432" y="-173.9" font-family="Arial" font-size="14.00" fill="#000000">is_enable_interview </text>
<text text-anchor="start" x="558.8008" y="-173.9" font-family="Arial" font-size="14.00" fill="#666666">[tinyint(1)]</text>
<polygon fill="none" stroke="#000000" points="425,-132.5 425,-162.5 639,-162.5 639,-132.5 425,-132.5"/>
<text text-anchor="start" x="431.641" y="-143.9" font-family="Arial" font-size="14.00" fill="#000000">enable_interview_datetime </text>
<text text-anchor="start" x="602.014" y="-143.9" font-family="Arial" font-size="14.00" fill="#666666">[text]</text>
<polygon fill="none" stroke="#000000" points="425,-102.5 425,-132.5 639,-132.5 639,-102.5 425,-102.5"/>
<text text-anchor="start" x="432" y="-113.9" font-family="Arial" font-size="14.00" fill="#000000">created_at </text>
<text text-anchor="start" x="502.028" y="-113.9" font-family="Arial" font-size="14.00" fill="#666666">[timestamp]</text>
<polygon fill="none" stroke="#000000" points="425,-72.5 425,-102.5 639,-102.5 639,-72.5 425,-72.5"/>
<text text-anchor="start" x="432" y="-83.9" font-family="Arial" font-size="14.00" fill="#000000">updated_at </text>
<text text-anchor="start" x="505.9326" y="-83.9" font-family="Arial" font-size="14.00" fill="#666666">[timestamp]</text>
<polygon fill="none" stroke="#000000" points="425,-42.5 425,-72.5 639,-72.5 639,-42.5 425,-42.5"/>
<text text-anchor="start" x="432" y="-53.9" font-family="Arial" font-size="14.00" fill="#000000">deleted_at </text>
<text text-anchor="start" x="501.2566" y="-53.9" font-family="Arial" font-size="14.00" fill="#666666">[datetime]</text>
</g>
<!-- favorite_companies&#45;&gt;companies -->
<g id="edge2" class="edge">
<title>favorite_companies:company_id&#45;&gt;companies:id</title>
<path fill="none" stroke="#000000" d="M517.1167,-606.6739C570.5547,-597.2795 541.5755,-509.9404 507,-457 485.2357,-423.6756 446.7643,-454.3244 425,-421 402.2769,-386.2074 383.4444,-327.5 425,-327.5"/>
<polygon fill="#000000" stroke="#000000" points="516.9668,-606.6861 506.6337,-603.0149 511.9834,-607.093 507,-607.5 507,-607.5 507,-607.5 511.9834,-607.093 507.3663,-611.9851 516.9668,-606.6861 516.9668,-606.6861"/>
<text text-anchor="start" x="514.438" y="-617.5" font-family="Arial" font-size="10.00" fill="#000000">FOREIGN KEY (company_id) REFERENCES companies (id)</text>
</g>
</g>
</svg>
