<?xml version="1.0" encoding="UTF-8" standalone="no"?>
<!DOCTYPE svg PUBLIC "-//W3C//DTD SVG 1.1//EN"
 "http://www.w3.org/Graphics/SVG/1.1/DTD/svg11.dtd">
<!-- Generated by graphviz version 2.40.1 (20161225.0304)
 -->
<!-- Title: favorite_users Pages: 1 -->
<svg width="757pt" height="742pt"
 viewBox="0.00 0.00 757.00 742.00" xmlns="http://www.w3.org/2000/svg" xmlns:xlink="http://www.w3.org/1999/xlink">
<g id="graph0" class="graph" transform="scale(1 1) rotate(0) translate(4 738)">
<title>favorite_users</title>
<polygon fill="#ffffff" stroke="transparent" points="-4,4 -4,-738 753,-738 753,4 -4,4"/>
<!-- favorite_users -->
<g id="node1" class="node">
<title>favorite_users</title>
<polygon fill="#efefef" stroke="transparent" points="285,-652.5 285,-687.5 509,-687.5 509,-652.5 285,-652.5"/>
<polygon fill="none" stroke="#000000" points="285,-652.5 285,-687.5 509,-687.5 509,-652.5 285,-652.5"/>
<text text-anchor="start" x="291.863" y="-665.3" font-family="Arial Bold" font-size="18.00" fill="#000000">favorite_users</text>
<text text-anchor="start" x="404.8832" y="-665.3" font-family="Arial" font-size="14.00" fill="#000000"> </text>
<text text-anchor="start" x="408.7738" y="-665.3" font-family="Arial" font-size="14.00" fill="#666666">[BASE TABLE]</text>
<polygon fill="none" stroke="#000000" points="285,-622.5 285,-652.5 509,-652.5 509,-622.5 285,-622.5"/>
<text text-anchor="start" x="292" y="-633.9" font-family="Arial" font-size="14.00" fill="#000000">id </text>
<text text-anchor="start" x="306.7798" y="-633.9" font-family="Arial" font-size="14.00" fill="#666666">[bigint unsigned]</text>
<polygon fill="none" stroke="#000000" points="285,-592.5 285,-622.5 509,-622.5 509,-592.5 285,-592.5"/>
<text text-anchor="start" x="292" y="-603.9" font-family="Arial" font-size="14.00" fill="#000000">company_id </text>
<text text-anchor="start" x="371.3534" y="-603.9" font-family="Arial" font-size="14.00" fill="#666666">[bigint unsigned]</text>
<polygon fill="none" stroke="#000000" points="285,-562.5 285,-592.5 509,-592.5 509,-562.5 285,-562.5"/>
<text text-anchor="start" x="292" y="-573.9" font-family="Arial" font-size="14.00" fill="#000000">user_id </text>
<text text-anchor="start" x="341.7882" y="-573.9" font-family="Arial" font-size="14.00" fill="#666666">[bigint unsigned]</text>
<polygon fill="none" stroke="#000000" points="285,-532.5 285,-562.5 509,-562.5 509,-532.5 285,-532.5"/>
<text text-anchor="start" x="292" y="-543.9" font-family="Arial" font-size="14.00" fill="#000000">created_at </text>
<text text-anchor="start" x="362.028" y="-543.9" font-family="Arial" font-size="14.00" fill="#666666">[timestamp]</text>
<polygon fill="none" stroke="#000000" points="285,-502.5 285,-532.5 509,-532.5 509,-502.5 285,-502.5"/>
<text text-anchor="start" x="292" y="-513.9" font-family="Arial" font-size="14.00" fill="#000000">updated_at </text>
<text text-anchor="start" x="365.9326" y="-513.9" font-family="Arial" font-size="14.00" fill="#666666">[timestamp]</text>
<polygon fill="none" stroke="#000000" points="285,-472.5 285,-502.5 509,-502.5 509,-472.5 285,-472.5"/>
<text text-anchor="start" x="292" y="-483.9" font-family="Arial" font-size="14.00" fill="#000000">deleted_at </text>
<text text-anchor="start" x="361.2566" y="-483.9" font-family="Arial" font-size="14.00" fill="#666666">[datetime]</text>
<polygon fill="none" stroke="#000000" stroke-width="3" points="283.5,-471.5 283.5,-689.5 510.5,-689.5 510.5,-471.5 283.5,-471.5"/>
</g>
<!-- companies -->
<g id="node2" class="node">
<title>companies</title>
<polygon fill="#efefef" stroke="transparent" points="141,-312.5 141,-347.5 343,-347.5 343,-312.5 141,-312.5"/>
<polygon fill="none" stroke="#000000" points="141,-312.5 141,-347.5 343,-347.5 343,-312.5 141,-312.5"/>
<text text-anchor="start" x="149.8644" y="-325.3" font-family="Arial Bold" font-size="18.00" fill="#000000">companies</text>
<text text-anchor="start" x="236.8818" y="-325.3" font-family="Arial" font-size="14.00" fill="#000000"> </text>
<text text-anchor="start" x="240.7724" y="-325.3" font-family="Arial" font-size="14.00" fill="#666666">[BASE TABLE]</text>
<polygon fill="none" stroke="#000000" points="141,-282.5 141,-312.5 343,-312.5 343,-282.5 141,-282.5"/>
<text text-anchor="start" x="148" y="-293.9" font-family="Arial" font-size="14.00" fill="#000000">id </text>
<text text-anchor="start" x="162.7798" y="-293.9" font-family="Arial" font-size="14.00" fill="#666666">[bigint unsigned]</text>
<polygon fill="none" stroke="#000000" points="141,-252.5 141,-282.5 343,-282.5 343,-252.5 141,-252.5"/>
<text text-anchor="start" x="148" y="-263.9" font-family="Arial" font-size="14.00" fill="#000000">name </text>
<text text-anchor="start" x="186.899" y="-263.9" font-family="Arial" font-size="14.00" fill="#666666">[varchar(255)]</text>
<polygon fill="none" stroke="#000000" points="141,-222.5 141,-252.5 343,-252.5 343,-222.5 141,-222.5"/>
<text text-anchor="start" x="148" y="-233.9" font-family="Arial" font-size="14.00" fill="#000000">email </text>
<text text-anchor="start" x="185.3296" y="-233.9" font-family="Arial" font-size="14.00" fill="#666666">[varchar(255)]</text>
<polygon fill="none" stroke="#000000" points="141,-192.5 141,-222.5 343,-222.5 343,-192.5 141,-192.5"/>
<text text-anchor="start" x="148" y="-203.9" font-family="Arial" font-size="14.00" fill="#000000">password </text>
<text text-anchor="start" x="211.7882" y="-203.9" font-family="Arial" font-size="14.00" fill="#666666">[varchar(255)]</text>
<polygon fill="none" stroke="#000000" points="141,-162.5 141,-192.5 343,-192.5 343,-162.5 141,-162.5"/>
<text text-anchor="start" x="148" y="-173.9" font-family="Arial" font-size="14.00" fill="#000000">profile </text>
<text text-anchor="start" x="190.0028" y="-173.9" font-family="Arial" font-size="14.00" fill="#666666">[varchar(255)]</text>
<polygon fill="none" stroke="#000000" points="141,-132.5 141,-162.5 343,-162.5 343,-132.5 141,-132.5"/>
<text text-anchor="start" x="147.8773" y="-143.9" font-family="Arial" font-size="14.00" fill="#000000">is_enable_interview </text>
<text text-anchor="start" x="274.6781" y="-143.9" font-family="Arial" font-size="14.00" fill="#666666">[tinyint(1)]</text>
<polygon fill="none" stroke="#000000" points="141,-102.5 141,-132.5 343,-132.5 343,-102.5 141,-102.5"/>
<text text-anchor="start" x="148" y="-113.9" font-family="Arial" font-size="14.00" fill="#000000">created_at </text>
<text text-anchor="start" x="218.028" y="-113.9" font-family="Arial" font-size="14.00" fill="#666666">[timestamp]</text>
<polygon fill="none" stroke="#000000" points="141,-72.5 141,-102.5 343,-102.5 343,-72.5 141,-72.5"/>
<text text-anchor="start" x="148" y="-83.9" font-family="Arial" font-size="14.00" fill="#000000">updated_at </text>
<text text-anchor="start" x="221.9326" y="-83.9" font-family="Arial" font-size="14.00" fill="#666666">[timestamp]</text>
<polygon fill="none" stroke="#000000" points="141,-42.5 141,-72.5 343,-72.5 343,-42.5 141,-42.5"/>
<text text-anchor="start" x="148" y="-53.9" font-family="Arial" font-size="14.00" fill="#000000">deleted_at </text>
<text text-anchor="start" x="217.2566" y="-53.9" font-family="Arial" font-size="14.00" fill="#666666">[datetime]</text>
</g>
<!-- favorite_users&#45;&gt;companies -->
<g id="edge1" class="edge">
<title>favorite_users:company_id&#45;&gt;companies:id</title>
<path fill="none" stroke="#000000" d="M274.8655,-607.4555C-109.9066,-604.0224 336.2786,-403.0829 343,-391 363.2012,-354.6851 384.5556,-297.5 343,-297.5"/>
<polygon fill="#000000" stroke="#000000" points="275.0001,-607.456 284.9802,-612 280,-607.478 285,-607.5 285,-607.5 285,-607.5 280,-607.478 285.0198,-603 275.0001,-607.456 275.0001,-607.456"/>
<text text-anchor="start" x="7.438" y="-617.5" font-family="Arial" font-size="10.00" fill="#000000">FOREIGN KEY (company_id) REFERENCES companies (id)</text>
</g>
<!-- users -->
<g id="node3" class="node">
<title>users</title>
<polygon fill="#efefef" stroke="transparent" points="447,-312.5 447,-347.5 657,-347.5 657,-312.5 447,-312.5"/>
<polygon fill="none" stroke="#000000" points="447,-312.5 447,-347.5 657,-347.5 657,-312.5 447,-312.5"/>
<text text-anchor="start" x="481.3708" y="-325.3" font-family="Arial Bold" font-size="18.00" fill="#000000">users</text>
<text text-anchor="start" x="525.3754" y="-325.3" font-family="Arial" font-size="14.00" fill="#000000"> </text>
<text text-anchor="start" x="529.266" y="-325.3" font-family="Arial" font-size="14.00" fill="#666666">[BASE TABLE]</text>
<polygon fill="none" stroke="#000000" points="447,-282.5 447,-312.5 657,-312.5 657,-282.5 447,-282.5"/>
<text text-anchor="start" x="454" y="-293.9" font-family="Arial" font-size="14.00" fill="#000000">id </text>
<text text-anchor="start" x="468.7798" y="-293.9" font-family="Arial" font-size="14.00" fill="#666666">[bigint unsigned]</text>
<polygon fill="none" stroke="#000000" points="447,-252.5 447,-282.5 657,-282.5 657,-252.5 447,-252.5"/>
<text text-anchor="start" x="454" y="-263.9" font-family="Arial" font-size="14.00" fill="#000000">name </text>
<text text-anchor="start" x="492.899" y="-263.9" font-family="Arial" font-size="14.00" fill="#666666">[varchar(255)]</text>
<polygon fill="none" stroke="#000000" points="447,-222.5 447,-252.5 657,-252.5 657,-222.5 447,-222.5"/>
<text text-anchor="start" x="454" y="-233.9" font-family="Arial" font-size="14.00" fill="#000000">email </text>
<text text-anchor="start" x="491.3296" y="-233.9" font-family="Arial" font-size="14.00" fill="#666666">[varchar(255)]</text>
<polygon fill="none" stroke="#000000" points="447,-192.5 447,-222.5 657,-222.5 657,-192.5 447,-192.5"/>
<text text-anchor="start" x="454" y="-203.9" font-family="Arial" font-size="14.00" fill="#000000">email_verified_at </text>
<text text-anchor="start" x="563.6802" y="-203.9" font-family="Arial" font-size="14.00" fill="#666666">[timestamp]</text>
<polygon fill="none" stroke="#000000" points="447,-162.5 447,-192.5 657,-192.5 657,-162.5 447,-162.5"/>
<text text-anchor="start" x="454" y="-173.9" font-family="Arial" font-size="14.00" fill="#000000">password </text>
<text text-anchor="start" x="517.7882" y="-173.9" font-family="Arial" font-size="14.00" fill="#666666">[varchar(255)]</text>
<polygon fill="none" stroke="#000000" points="447,-132.5 447,-162.5 657,-162.5 657,-132.5 447,-132.5"/>
<text text-anchor="start" x="454" y="-143.9" font-family="Arial" font-size="14.00" fill="#000000">profile </text>
<text text-anchor="start" x="496.0028" y="-143.9" font-family="Arial" font-size="14.00" fill="#666666">[varchar(255)]</text>
<polygon fill="none" stroke="#000000" points="447,-102.5 447,-132.5 657,-132.5 657,-102.5 447,-102.5"/>
<text text-anchor="start" x="453.5982" y="-113.9" font-family="Arial" font-size="14.00" fill="#000000">remember_token </text>
<text text-anchor="start" x="563.2826" y="-113.9" font-family="Arial" font-size="14.00" fill="#666666">[varchar(100)]</text>
<polygon fill="none" stroke="#000000" points="447,-72.5 447,-102.5 657,-102.5 657,-72.5 447,-72.5"/>
<text text-anchor="start" x="454" y="-83.9" font-family="Arial" font-size="14.00" fill="#000000">created_at </text>
<text text-anchor="start" x="524.028" y="-83.9" font-family="Arial" font-size="14.00" fill="#666666">[timestamp]</text>
<polygon fill="none" stroke="#000000" points="447,-42.5 447,-72.5 657,-72.5 657,-42.5 447,-42.5"/>
<text text-anchor="start" x="454" y="-53.9" font-family="Arial" font-size="14.00" fill="#000000">updated_at </text>
<text text-anchor="start" x="527.9326" y="-53.9" font-family="Arial" font-size="14.00" fill="#666666">[timestamp]</text>
</g>
<!-- favorite_users&#45;&gt;users -->
<g id="edge2" class="edge">
<title>favorite_users:user_id&#45;&gt;users:id</title>
<path fill="none" stroke="#000000" d="M519.0896,-576.6906C572.2235,-567.4828 540.5479,-481.7985 509,-427 493.1021,-399.3854 462.8979,-418.6146 447,-391 426.2666,-354.9862 405.4444,-297.5 447,-297.5"/>
<polygon fill="#000000" stroke="#000000" points="518.968,-576.7002 508.6401,-573.0144 513.984,-577.1001 509,-577.5 509,-577.5 509,-577.5 513.984,-577.1001 509.3599,-581.9856 518.968,-576.7002 518.968,-576.7002"/>
<text text-anchor="start" x="515.945" y="-587.5" font-family="Arial" font-size="10.00" fill="#000000">FOREIGN KEY (user_id) REFERENCES users (id)</text>
</g>
</g>
</svg>
