<?xml version="1.0" encoding="UTF-8" standalone="no"?>
<!DOCTYPE svg PUBLIC "-//W3C//DTD SVG 1.1//EN"
 "http://www.w3.org/Graphics/SVG/1.1/DTD/svg11.dtd">
<!-- Generated by graphviz version 2.40.1 (20161225.0304)
 -->
<!-- Title: favorite_users Pages: 1 -->
<svg width="757pt" height="772pt"
 viewBox="0.00 0.00 757.00 772.00" xmlns="http://www.w3.org/2000/svg" xmlns:xlink="http://www.w3.org/1999/xlink">
<g id="graph0" class="graph" transform="scale(1 1) rotate(0) translate(4 768)">
<title>favorite_users</title>
<polygon fill="#ffffff" stroke="transparent" points="-4,4 -4,-768 753,-768 753,4 -4,4"/>
<!-- favorite_users -->
<g id="node1" class="node">
<title>favorite_users</title>
<polygon fill="#efefef" stroke="transparent" points="285,-682.5 285,-717.5 509,-717.5 509,-682.5 285,-682.5"/>
<polygon fill="none" stroke="#000000" points="285,-682.5 285,-717.5 509,-717.5 509,-682.5 285,-682.5"/>
<text text-anchor="start" x="291.863" y="-695.3" font-family="Arial Bold" font-size="18.00" fill="#000000">favorite_users</text>
<text text-anchor="start" x="404.8832" y="-695.3" font-family="Arial" font-size="14.00" fill="#000000"> </text>
<text text-anchor="start" x="408.7738" y="-695.3" font-family="Arial" font-size="14.00" fill="#666666">[BASE TABLE]</text>
<polygon fill="none" stroke="#000000" points="285,-652.5 285,-682.5 509,-682.5 509,-652.5 285,-652.5"/>
<text text-anchor="start" x="292" y="-663.9" font-family="Arial" font-size="14.00" fill="#000000">id </text>
<text text-anchor="start" x="306.7798" y="-663.9" font-family="Arial" font-size="14.00" fill="#666666">[bigint unsigned]</text>
<polygon fill="none" stroke="#000000" points="285,-622.5 285,-652.5 509,-652.5 509,-622.5 285,-622.5"/>
<text text-anchor="start" x="292" y="-633.9" font-family="Arial" font-size="14.00" fill="#000000">company_id </text>
<text text-anchor="start" x="371.3534" y="-633.9" font-family="Arial" font-size="14.00" fill="#666666">[bigint unsigned]</text>
<polygon fill="none" stroke="#000000" points="285,-592.5 285,-622.5 509,-622.5 509,-592.5 285,-592.5"/>
<text text-anchor="start" x="292" y="-603.9" font-family="Arial" font-size="14.00" fill="#000000">user_id </text>
<text text-anchor="start" x="341.7882" y="-603.9" font-family="Arial" font-size="14.00" fill="#666666">[bigint unsigned]</text>
<polygon fill="none" stroke="#000000" points="285,-562.5 285,-592.5 509,-592.5 509,-562.5 285,-562.5"/>
<text text-anchor="start" x="292" y="-573.9" font-family="Arial" font-size="14.00" fill="#000000">created_at </text>
<text text-anchor="start" x="362.028" y="-573.9" font-family="Arial" font-size="14.00" fill="#666666">[datetime]</text>
<polygon fill="none" stroke="#000000" points="285,-532.5 285,-562.5 509,-562.5 509,-532.5 285,-532.5"/>
<text text-anchor="start" x="292" y="-543.9" font-family="Arial" font-size="14.00" fill="#000000">updated_at </text>
<text text-anchor="start" x="365.9326" y="-543.9" font-family="Arial" font-size="14.00" fill="#666666">[datetime]</text>
<polygon fill="none" stroke="#000000" points="285,-502.5 285,-532.5 509,-532.5 509,-502.5 285,-502.5"/>
<text text-anchor="start" x="292" y="-513.9" font-family="Arial" font-size="14.00" fill="#000000">deleted_at </text>
<text text-anchor="start" x="361.2566" y="-513.9" font-family="Arial" font-size="14.00" fill="#666666">[datetime]</text>
<polygon fill="none" stroke="#000000" stroke-width="3" points="283.5,-501.5 283.5,-719.5 510.5,-719.5 510.5,-501.5 283.5,-501.5"/>
</g>
<!-- companies -->
<g id="node2" class="node">
<title>companies</title>
<polygon fill="#efefef" stroke="transparent" points="132,-342.5 132,-377.5 346,-377.5 346,-342.5 132,-342.5"/>
<polygon fill="none" stroke="#000000" points="132,-342.5 132,-377.5 346,-377.5 346,-342.5 132,-342.5"/>
<text text-anchor="start" x="146.8644" y="-355.3" font-family="Arial Bold" font-size="18.00" fill="#000000">companies</text>
<text text-anchor="start" x="233.8818" y="-355.3" font-family="Arial" font-size="14.00" fill="#000000"> </text>
<text text-anchor="start" x="237.7724" y="-355.3" font-family="Arial" font-size="14.00" fill="#666666">[BASE TABLE]</text>
<polygon fill="none" stroke="#000000" points="132,-312.5 132,-342.5 346,-342.5 346,-312.5 132,-312.5"/>
<text text-anchor="start" x="139" y="-323.9" font-family="Arial" font-size="14.00" fill="#000000">id </text>
<text text-anchor="start" x="153.7798" y="-323.9" font-family="Arial" font-size="14.00" fill="#666666">[bigint unsigned]</text>
<polygon fill="none" stroke="#000000" points="132,-282.5 132,-312.5 346,-312.5 346,-282.5 132,-282.5"/>
<text text-anchor="start" x="139" y="-293.9" font-family="Arial" font-size="14.00" fill="#000000">name </text>
<text text-anchor="start" x="177.899" y="-293.9" font-family="Arial" font-size="14.00" fill="#666666">[varchar(255)]</text>
<polygon fill="none" stroke="#000000" points="132,-252.5 132,-282.5 346,-282.5 346,-252.5 132,-252.5"/>
<text text-anchor="start" x="139" y="-263.9" font-family="Arial" font-size="14.00" fill="#000000">email </text>
<text text-anchor="start" x="176.3296" y="-263.9" font-family="Arial" font-size="14.00" fill="#666666">[varchar(255)]</text>
<polygon fill="none" stroke="#000000" points="132,-222.5 132,-252.5 346,-252.5 346,-222.5 132,-222.5"/>
<text text-anchor="start" x="139" y="-233.9" font-family="Arial" font-size="14.00" fill="#000000">password </text>
<text text-anchor="start" x="202.7882" y="-233.9" font-family="Arial" font-size="14.00" fill="#666666">[varchar(255)]</text>
<polygon fill="none" stroke="#000000" points="132,-192.5 132,-222.5 346,-222.5 346,-192.5 132,-192.5"/>
<text text-anchor="start" x="139" y="-203.9" font-family="Arial" font-size="14.00" fill="#000000">profile </text>
<text text-anchor="start" x="181.0028" y="-203.9" font-family="Arial" font-size="14.00" fill="#666666">[varchar(255)]</text>
<polygon fill="none" stroke="#000000" points="132,-162.5 132,-192.5 346,-192.5 346,-162.5 132,-162.5"/>
<text text-anchor="start" x="139" y="-173.9" font-family="Arial" font-size="14.00" fill="#000000">is_enable_interview </text>
<text text-anchor="start" x="265.8008" y="-173.9" font-family="Arial" font-size="14.00" fill="#666666">[tinyint(1)]</text>
<polygon fill="none" stroke="#000000" points="132,-132.5 132,-162.5 346,-162.5 346,-132.5 132,-132.5"/>
<text text-anchor="start" x="138.641" y="-143.9" font-family="Arial" font-size="14.00" fill="#000000">enable_interview_datetime </text>
<text text-anchor="start" x="309.014" y="-143.9" font-family="Arial" font-size="14.00" fill="#666666">[text]</text>
<polygon fill="none" stroke="#000000" points="132,-102.5 132,-132.5 346,-132.5 346,-102.5 132,-102.5"/>
<text text-anchor="start" x="139" y="-113.9" font-family="Arial" font-size="14.00" fill="#000000">created_at </text>
<text text-anchor="start" x="209.028" y="-113.9" font-family="Arial" font-size="14.00" fill="#666666">[datetime]</text>
<polygon fill="none" stroke="#000000" points="132,-72.5 132,-102.5 346,-102.5 346,-72.5 132,-72.5"/>
<text text-anchor="start" x="139" y="-83.9" font-family="Arial" font-size="14.00" fill="#000000">updated_at </text>
<text text-anchor="start" x="212.9326" y="-83.9" font-family="Arial" font-size="14.00" fill="#666666">[datetime]</text>
<polygon fill="none" stroke="#000000" points="132,-42.5 132,-72.5 346,-72.5 346,-42.5 132,-42.5"/>
<text text-anchor="start" x="139" y="-53.9" font-family="Arial" font-size="14.00" fill="#000000">deleted_at </text>
<text text-anchor="start" x="208.2566" y="-53.9" font-family="Arial" font-size="14.00" fill="#666666">[datetime]</text>
</g>
<!-- favorite_users&#45;&gt;companies -->
<g id="edge1" class="edge">
<title>favorite_users:company_id&#45;&gt;companies:id</title>
<path fill="none" stroke="#000000" d="M274.9804,-637.4592C-116.9351,-634.2174 335.7954,-438.8716 346,-421 366.6056,-384.913 387.5556,-327.5 346,-327.5"/>
<polygon fill="#000000" stroke="#000000" points="275.0001,-637.4592 284.9816,-642 280,-637.4796 285,-637.5 285,-637.5 285,-637.5 280,-637.4796 285.0184,-633 275.0001,-637.4592 275.0001,-637.4592"/>
<text text-anchor="start" x="7.438" y="-647.5" font-family="Arial" font-size="10.00" fill="#000000">FOREIGN KEY (company_id) REFERENCES companies (id)</text>
</g>
<!-- users -->
<g id="node3" class="node">
<title>users</title>
<polygon fill="#efefef" stroke="transparent" points="450,-342.5 450,-377.5 660,-377.5 660,-342.5 450,-342.5"/>
<polygon fill="none" stroke="#000000" points="450,-342.5 450,-377.5 660,-377.5 660,-342.5 450,-342.5"/>
<text text-anchor="start" x="484.3708" y="-355.3" font-family="Arial Bold" font-size="18.00" fill="#000000">users</text>
<text text-anchor="start" x="528.3754" y="-355.3" font-family="Arial" font-size="14.00" fill="#000000"> </text>
<text text-anchor="start" x="532.266" y="-355.3" font-family="Arial" font-size="14.00" fill="#666666">[BASE TABLE]</text>
<polygon fill="none" stroke="#000000" points="450,-312.5 450,-342.5 660,-342.5 660,-312.5 450,-312.5"/>
<text text-anchor="start" x="457" y="-323.9" font-family="Arial" font-size="14.00" fill="#000000">id </text>
<text text-anchor="start" x="471.7798" y="-323.9" font-family="Arial" font-size="14.00" fill="#666666">[bigint unsigned]</text>
<polygon fill="none" stroke="#000000" points="450,-282.5 450,-312.5 660,-312.5 660,-282.5 450,-282.5"/>
<text text-anchor="start" x="457" y="-293.9" font-family="Arial" font-size="14.00" fill="#000000">name </text>
<text text-anchor="start" x="495.899" y="-293.9" font-family="Arial" font-size="14.00" fill="#666666">[varchar(255)]</text>
<polygon fill="none" stroke="#000000" points="450,-252.5 450,-282.5 660,-282.5 660,-252.5 450,-252.5"/>
<text text-anchor="start" x="457" y="-263.9" font-family="Arial" font-size="14.00" fill="#000000">email </text>
<text text-anchor="start" x="494.3296" y="-263.9" font-family="Arial" font-size="14.00" fill="#666666">[varchar(255)]</text>
<polygon fill="none" stroke="#000000" points="450,-222.5 450,-252.5 660,-252.5 660,-222.5 450,-222.5"/>
<text text-anchor="start" x="457" y="-233.9" font-family="Arial" font-size="14.00" fill="#000000">email_verified_at </text>
<text text-anchor="start" x="566.6802" y="-233.9" font-family="Arial" font-size="14.00" fill="#666666">[timestamp]</text>
<polygon fill="none" stroke="#000000" points="450,-192.5 450,-222.5 660,-222.5 660,-192.5 450,-192.5"/>
<text text-anchor="start" x="457" y="-203.9" font-family="Arial" font-size="14.00" fill="#000000">password </text>
<text text-anchor="start" x="520.7882" y="-203.9" font-family="Arial" font-size="14.00" fill="#666666">[varchar(255)]</text>
<polygon fill="none" stroke="#000000" points="450,-162.5 450,-192.5 660,-192.5 660,-162.5 450,-162.5"/>
<text text-anchor="start" x="457" y="-173.9" font-family="Arial" font-size="14.00" fill="#000000">profile </text>
<text text-anchor="start" x="499.0028" y="-173.9" font-family="Arial" font-size="14.00" fill="#666666">[text]</text>
<polygon fill="none" stroke="#000000" points="450,-132.5 450,-162.5 660,-162.5 660,-132.5 450,-132.5"/>
<text text-anchor="start" x="456.5982" y="-143.9" font-family="Arial" font-size="14.00" fill="#000000">remember_token </text>
<text text-anchor="start" x="566.2826" y="-143.9" font-family="Arial" font-size="14.00" fill="#666666">[varchar(100)]</text>
<polygon fill="none" stroke="#000000" points="450,-102.5 450,-132.5 660,-132.5 660,-102.5 450,-102.5"/>
<text text-anchor="start" x="457" y="-113.9" font-family="Arial" font-size="14.00" fill="#000000">created_at </text>
<text text-anchor="start" x="527.028" y="-113.9" font-family="Arial" font-size="14.00" fill="#666666">[datetime]</text>
<polygon fill="none" stroke="#000000" points="450,-72.5 450,-102.5 660,-102.5 660,-72.5 450,-72.5"/>
<text text-anchor="start" x="457" y="-83.9" font-family="Arial" font-size="14.00" fill="#000000">updated_at </text>
<text text-anchor="start" x="530.9326" y="-83.9" font-family="Arial" font-size="14.00" fill="#666666">[datetime]</text>
<polygon fill="none" stroke="#000000" points="450,-42.5 450,-72.5 660,-72.5 660,-42.5 450,-42.5"/>
<text text-anchor="start" x="457" y="-53.9" font-family="Arial" font-size="14.00" fill="#000000">deleted_at </text>
<text text-anchor="start" x="526.2566" y="-53.9" font-family="Arial" font-size="14.00" fill="#666666">[datetime]</text>
</g>
<!-- favorite_users&#45;&gt;users -->
<g id="edge2" class="edge">
<title>favorite_users:user_id&#45;&gt;users:id</title>
<path fill="none" stroke="#000000" d="M519.0842,-606.6936C572.158,-597.52 539.9488,-512.1391 509,-457 493.9648,-430.2129 465.0352,-447.7871 450,-421 429.6604,-384.7624 408.4444,-327.5 450,-327.5"/>
<polygon fill="#000000" stroke="#000000" points="518.9682,-606.7028 508.6413,-603.0143 513.9841,-607.1014 509,-607.5 509,-607.5 509,-607.5 513.9841,-607.1014 509.3587,-611.9857 518.9682,-606.7028 518.9682,-606.7028"/>
<text text-anchor="start" x="515.945" y="-617.5" font-family="Arial" font-size="10.00" fill="#000000">FOREIGN KEY (user_id) REFERENCES users (id)</text>
</g>
</g>
</svg>
