<?xml version="1.0" encoding="UTF-8" standalone="no"?>
<!DOCTYPE svg PUBLIC "-//W3C//DTD SVG 1.1//EN"
 "http://www.w3.org/Graphics/SVG/1.1/DTD/svg11.dtd">
<!-- Generated by graphviz version 2.40.1 (20161225.0304)
 -->
<!-- Title: favorite_companies Pages: 1 -->
<svg width="800pt" height="742pt"
 viewBox="0.00 0.00 800.00 742.00" xmlns="http://www.w3.org/2000/svg" xmlns:xlink="http://www.w3.org/1999/xlink">
<g id="graph0" class="graph" transform="scale(1 1) rotate(0) translate(4 738)">
<title>favorite_companies</title>
<polygon fill="#ffffff" stroke="transparent" points="-4,4 -4,-738 796,-738 796,4 -4,4"/>
<!-- favorite_companies -->
<g id="node1" class="node">
<title>favorite_companies</title>
<polygon fill="#efefef" stroke="transparent" points="240,-652.5 240,-687.5 507,-687.5 507,-652.5 240,-652.5"/>
<polygon fill="none" stroke="#000000" points="240,-652.5 240,-687.5 507,-687.5 507,-652.5 240,-652.5"/>
<text text-anchor="start" x="246.8566" y="-665.3" font-family="Arial Bold" font-size="18.00" fill="#000000">favorite_companies</text>
<text text-anchor="start" x="402.8896" y="-665.3" font-family="Arial" font-size="14.00" fill="#000000"> </text>
<text text-anchor="start" x="406.7802" y="-665.3" font-family="Arial" font-size="14.00" fill="#666666">[BASE TABLE]</text>
<polygon fill="none" stroke="#000000" points="240,-622.5 240,-652.5 507,-652.5 507,-622.5 240,-622.5"/>
<text text-anchor="start" x="247" y="-633.9" font-family="Arial" font-size="14.00" fill="#000000">id </text>
<text text-anchor="start" x="261.7798" y="-633.9" font-family="Arial" font-size="14.00" fill="#666666">[bigint unsigned]</text>
<polygon fill="none" stroke="#000000" points="240,-592.5 240,-622.5 507,-622.5 507,-592.5 240,-592.5"/>
<text text-anchor="start" x="247" y="-603.9" font-family="Arial" font-size="14.00" fill="#000000">user_id </text>
<text text-anchor="start" x="296.7882" y="-603.9" font-family="Arial" font-size="14.00" fill="#666666">[bigint unsigned]</text>
<polygon fill="none" stroke="#000000" points="240,-562.5 240,-592.5 507,-592.5 507,-562.5 240,-562.5"/>
<text text-anchor="start" x="247" y="-573.9" font-family="Arial" font-size="14.00" fill="#000000">company_id </text>
<text text-anchor="start" x="326.3534" y="-573.9" font-family="Arial" font-size="14.00" fill="#666666">[bigint unsigned]</text>
<polygon fill="none" stroke="#000000" points="240,-532.5 240,-562.5 507,-562.5 507,-532.5 240,-532.5"/>
<text text-anchor="start" x="247" y="-543.9" font-family="Arial" font-size="14.00" fill="#000000">created_at </text>
<text text-anchor="start" x="317.028" y="-543.9" font-family="Arial" font-size="14.00" fill="#666666">[timestamp]</text>
<polygon fill="none" stroke="#000000" points="240,-502.5 240,-532.5 507,-532.5 507,-502.5 240,-502.5"/>
<text text-anchor="start" x="247" y="-513.9" font-family="Arial" font-size="14.00" fill="#000000">updated_at </text>
<text text-anchor="start" x="320.9326" y="-513.9" font-family="Arial" font-size="14.00" fill="#666666">[timestamp]</text>
<polygon fill="none" stroke="#000000" points="240,-472.5 240,-502.5 507,-502.5 507,-472.5 240,-472.5"/>
<text text-anchor="start" x="247" y="-483.9" font-family="Arial" font-size="14.00" fill="#000000">deleted_at </text>
<text text-anchor="start" x="316.2566" y="-483.9" font-family="Arial" font-size="14.00" fill="#666666">[datetime]</text>
<polygon fill="none" stroke="#000000" stroke-width="3" points="238,-471.5 238,-689.5 508,-689.5 508,-471.5 238,-471.5"/>
</g>
<!-- users -->
<g id="node2" class="node">
<title>users</title>
<polygon fill="#efefef" stroke="transparent" points="114,-312.5 114,-347.5 324,-347.5 324,-312.5 114,-312.5"/>
<polygon fill="none" stroke="#000000" points="114,-312.5 114,-347.5 324,-347.5 324,-312.5 114,-312.5"/>
<text text-anchor="start" x="148.3708" y="-325.3" font-family="Arial Bold" font-size="18.00" fill="#000000">users</text>
<text text-anchor="start" x="192.3754" y="-325.3" font-family="Arial" font-size="14.00" fill="#000000"> </text>
<text text-anchor="start" x="196.266" y="-325.3" font-family="Arial" font-size="14.00" fill="#666666">[BASE TABLE]</text>
<polygon fill="none" stroke="#000000" points="114,-282.5 114,-312.5 324,-312.5 324,-282.5 114,-282.5"/>
<text text-anchor="start" x="121" y="-293.9" font-family="Arial" font-size="14.00" fill="#000000">id </text>
<text text-anchor="start" x="135.7798" y="-293.9" font-family="Arial" font-size="14.00" fill="#666666">[bigint unsigned]</text>
<polygon fill="none" stroke="#000000" points="114,-252.5 114,-282.5 324,-282.5 324,-252.5 114,-252.5"/>
<text text-anchor="start" x="121" y="-263.9" font-family="Arial" font-size="14.00" fill="#000000">name </text>
<text text-anchor="start" x="159.899" y="-263.9" font-family="Arial" font-size="14.00" fill="#666666">[varchar(255)]</text>
<polygon fill="none" stroke="#000000" points="114,-222.5 114,-252.5 324,-252.5 324,-222.5 114,-222.5"/>
<text text-anchor="start" x="121" y="-233.9" font-family="Arial" font-size="14.00" fill="#000000">email </text>
<text text-anchor="start" x="158.3296" y="-233.9" font-family="Arial" font-size="14.00" fill="#666666">[varchar(255)]</text>
<polygon fill="none" stroke="#000000" points="114,-192.5 114,-222.5 324,-222.5 324,-192.5 114,-192.5"/>
<text text-anchor="start" x="121" y="-203.9" font-family="Arial" font-size="14.00" fill="#000000">email_verified_at </text>
<text text-anchor="start" x="230.6802" y="-203.9" font-family="Arial" font-size="14.00" fill="#666666">[timestamp]</text>
<polygon fill="none" stroke="#000000" points="114,-162.5 114,-192.5 324,-192.5 324,-162.5 114,-162.5"/>
<text text-anchor="start" x="121" y="-173.9" font-family="Arial" font-size="14.00" fill="#000000">password </text>
<text text-anchor="start" x="184.7882" y="-173.9" font-family="Arial" font-size="14.00" fill="#666666">[varchar(255)]</text>
<polygon fill="none" stroke="#000000" points="114,-132.5 114,-162.5 324,-162.5 324,-132.5 114,-132.5"/>
<text text-anchor="start" x="121" y="-143.9" font-family="Arial" font-size="14.00" fill="#000000">profile </text>
<text text-anchor="start" x="163.0028" y="-143.9" font-family="Arial" font-size="14.00" fill="#666666">[varchar(255)]</text>
<polygon fill="none" stroke="#000000" points="114,-102.5 114,-132.5 324,-132.5 324,-102.5 114,-102.5"/>
<text text-anchor="start" x="120.5982" y="-113.9" font-family="Arial" font-size="14.00" fill="#000000">remember_token </text>
<text text-anchor="start" x="230.2826" y="-113.9" font-family="Arial" font-size="14.00" fill="#666666">[varchar(100)]</text>
<polygon fill="none" stroke="#000000" points="114,-72.5 114,-102.5 324,-102.5 324,-72.5 114,-72.5"/>
<text text-anchor="start" x="121" y="-83.9" font-family="Arial" font-size="14.00" fill="#000000">created_at </text>
<text text-anchor="start" x="191.028" y="-83.9" font-family="Arial" font-size="14.00" fill="#666666">[timestamp]</text>
<polygon fill="none" stroke="#000000" points="114,-42.5 114,-72.5 324,-72.5 324,-42.5 114,-42.5"/>
<text text-anchor="start" x="121" y="-53.9" font-family="Arial" font-size="14.00" fill="#000000">updated_at </text>
<text text-anchor="start" x="194.9326" y="-53.9" font-family="Arial" font-size="14.00" fill="#666666">[timestamp]</text>
</g>
<!-- favorite_companies&#45;&gt;users -->
<g id="edge1" class="edge">
<title>favorite_companies:user_id&#45;&gt;users:id</title>
<path fill="none" stroke="#000000" d="M229.883,-606.8272C163.0339,-597.3942 197.8222,-490.9643 240,-427 262.3595,-393.0909 301.6405,-424.9091 324,-391 346.876,-356.3077 365.5556,-297.5 324,-297.5"/>
<polygon fill="#000000" stroke="#000000" points="230.022,-606.8364 239.7014,-611.9901 235.011,-607.1682 240,-607.5 240,-607.5 240,-607.5 235.011,-607.1682 240.2986,-603.0099 230.022,-606.8364 230.022,-606.8364"/>
<text text-anchor="start" x="6.945" y="-617.5" font-family="Arial" font-size="10.00" fill="#000000">FOREIGN KEY (user_id) REFERENCES users (id)</text>
</g>
<!-- companies -->
<g id="node3" class="node">
<title>companies</title>
<polygon fill="#efefef" stroke="transparent" points="428,-312.5 428,-347.5 630,-347.5 630,-312.5 428,-312.5"/>
<polygon fill="none" stroke="#000000" points="428,-312.5 428,-347.5 630,-347.5 630,-312.5 428,-312.5"/>
<text text-anchor="start" x="436.8644" y="-325.3" font-family="Arial Bold" font-size="18.00" fill="#000000">companies</text>
<text text-anchor="start" x="523.8818" y="-325.3" font-family="Arial" font-size="14.00" fill="#000000"> </text>
<text text-anchor="start" x="527.7724" y="-325.3" font-family="Arial" font-size="14.00" fill="#666666">[BASE TABLE]</text>
<polygon fill="none" stroke="#000000" points="428,-282.5 428,-312.5 630,-312.5 630,-282.5 428,-282.5"/>
<text text-anchor="start" x="435" y="-293.9" font-family="Arial" font-size="14.00" fill="#000000">id </text>
<text text-anchor="start" x="449.7798" y="-293.9" font-family="Arial" font-size="14.00" fill="#666666">[bigint unsigned]</text>
<polygon fill="none" stroke="#000000" points="428,-252.5 428,-282.5 630,-282.5 630,-252.5 428,-252.5"/>
<text text-anchor="start" x="435" y="-263.9" font-family="Arial" font-size="14.00" fill="#000000">name </text>
<text text-anchor="start" x="473.899" y="-263.9" font-family="Arial" font-size="14.00" fill="#666666">[varchar(255)]</text>
<polygon fill="none" stroke="#000000" points="428,-222.5 428,-252.5 630,-252.5 630,-222.5 428,-222.5"/>
<text text-anchor="start" x="435" y="-233.9" font-family="Arial" font-size="14.00" fill="#000000">email </text>
<text text-anchor="start" x="472.3296" y="-233.9" font-family="Arial" font-size="14.00" fill="#666666">[varchar(255)]</text>
<polygon fill="none" stroke="#000000" points="428,-192.5 428,-222.5 630,-222.5 630,-192.5 428,-192.5"/>
<text text-anchor="start" x="435" y="-203.9" font-family="Arial" font-size="14.00" fill="#000000">password </text>
<text text-anchor="start" x="498.7882" y="-203.9" font-family="Arial" font-size="14.00" fill="#666666">[varchar(255)]</text>
<polygon fill="none" stroke="#000000" points="428,-162.5 428,-192.5 630,-192.5 630,-162.5 428,-162.5"/>
<text text-anchor="start" x="435" y="-173.9" font-family="Arial" font-size="14.00" fill="#000000">profile </text>
<text text-anchor="start" x="477.0028" y="-173.9" font-family="Arial" font-size="14.00" fill="#666666">[varchar(255)]</text>
<polygon fill="none" stroke="#000000" points="428,-132.5 428,-162.5 630,-162.5 630,-132.5 428,-132.5"/>
<text text-anchor="start" x="434.8773" y="-143.9" font-family="Arial" font-size="14.00" fill="#000000">is_enable_interview </text>
<text text-anchor="start" x="561.6781" y="-143.9" font-family="Arial" font-size="14.00" fill="#666666">[tinyint(1)]</text>
<polygon fill="none" stroke="#000000" points="428,-102.5 428,-132.5 630,-132.5 630,-102.5 428,-102.5"/>
<text text-anchor="start" x="435" y="-113.9" font-family="Arial" font-size="14.00" fill="#000000">created_at </text>
<text text-anchor="start" x="505.028" y="-113.9" font-family="Arial" font-size="14.00" fill="#666666">[timestamp]</text>
<polygon fill="none" stroke="#000000" points="428,-72.5 428,-102.5 630,-102.5 630,-72.5 428,-72.5"/>
<text text-anchor="start" x="435" y="-83.9" font-family="Arial" font-size="14.00" fill="#000000">updated_at </text>
<text text-anchor="start" x="508.9326" y="-83.9" font-family="Arial" font-size="14.00" fill="#666666">[timestamp]</text>
<polygon fill="none" stroke="#000000" points="428,-42.5 428,-72.5 630,-72.5 630,-42.5 428,-42.5"/>
<text text-anchor="start" x="435" y="-53.9" font-family="Arial" font-size="14.00" fill="#000000">deleted_at </text>
<text text-anchor="start" x="504.2566" y="-53.9" font-family="Arial" font-size="14.00" fill="#666666">[datetime]</text>
</g>
<!-- favorite_companies&#45;&gt;companies -->
<g id="edge2" class="edge">
<title>favorite_companies:company_id&#45;&gt;companies:id</title>
<path fill="none" stroke="#000000" d="M517.1134,-576.6761C570.5143,-567.3056 541.207,-480.1792 507,-427 486.1262,-394.5489 448.8738,-423.4511 428,-391 405.5191,-356.0504 386.4444,-297.5 428,-297.5"/>
<polygon fill="#000000" stroke="#000000" points="516.967,-576.6879 506.6346,-573.0149 511.9835,-577.0939 507,-577.5 507,-577.5 507,-577.5 511.9835,-577.0939 507.3654,-581.9851 516.967,-576.6879 516.967,-576.6879"/>
<text text-anchor="start" x="514.438" y="-587.5" font-family="Arial" font-size="10.00" fill="#000000">FOREIGN KEY (company_id) REFERENCES companies (id)</text>
</g>
</g>
</svg>
