<?xml version="1.0" encoding="UTF-8" standalone="no"?>
<!DOCTYPE svg PUBLIC "-//W3C//DTD SVG 1.1//EN"
 "http://www.w3.org/Graphics/SVG/1.1/DTD/svg11.dtd">
<!-- Generated by graphviz version 2.40.1 (20161225.0304)
 -->
<!-- Title: interviews Pages: 1 -->
<svg width="773pt" height="1199pt"
 viewBox="0.00 0.00 773.00 1199.00" xmlns="http://www.w3.org/2000/svg" xmlns:xlink="http://www.w3.org/1999/xlink">
<g id="graph0" class="graph" transform="scale(1 1) rotate(0) translate(4 1195)">
<title>interviews</title>
<polygon fill="#ffffff" stroke="transparent" points="-4,4 -4,-1195 769,-1195 769,4 -4,4"/>
<!-- interviews -->
<g id="node1" class="node">
<title>interviews</title>
<polygon fill="#efefef" stroke="transparent" points="275,-712.5 275,-747.5 480,-747.5 480,-712.5 275,-712.5"/>
<polygon fill="none" stroke="#000000" points="275,-712.5 275,-747.5 480,-747.5 480,-712.5 275,-712.5"/>
<text text-anchor="start" x="288.8753" y="-725.3" font-family="Arial Bold" font-size="18.00" fill="#000000">interviews</text>
<text text-anchor="start" x="368.8709" y="-725.3" font-family="Arial" font-size="14.00" fill="#000000"> </text>
<text text-anchor="start" x="372.7615" y="-725.3" font-family="Arial" font-size="14.00" fill="#666666">[BASE TABLE]</text>
<polygon fill="none" stroke="#000000" points="275,-682.5 275,-712.5 480,-712.5 480,-682.5 275,-682.5"/>
<text text-anchor="start" x="282" y="-693.9" font-family="Arial" font-size="14.00" fill="#000000">id </text>
<text text-anchor="start" x="296.7798" y="-693.9" font-family="Arial" font-size="14.00" fill="#666666">[bigint unsigned]</text>
<polygon fill="none" stroke="#000000" points="275,-652.5 275,-682.5 480,-682.5 480,-652.5 275,-652.5"/>
<text text-anchor="start" x="282" y="-663.9" font-family="Arial" font-size="14.00" fill="#000000">interview_datetime </text>
<text text-anchor="start" x="402.5708" y="-663.9" font-family="Arial" font-size="14.00" fill="#666666">[datetime]</text>
<polygon fill="none" stroke="#000000" points="275,-622.5 275,-652.5 480,-652.5 480,-622.5 275,-622.5"/>
<text text-anchor="start" x="281.8212" y="-633.9" font-family="Arial" font-size="14.00" fill="#000000">interivew_status </text>
<text text-anchor="start" x="386.0596" y="-633.9" font-family="Arial" font-size="14.00" fill="#666666">[varchar(255)]</text>
<polygon fill="none" stroke="#000000" points="275,-592.5 275,-622.5 480,-622.5 480,-592.5 275,-592.5"/>
<text text-anchor="start" x="282" y="-603.9" font-family="Arial" font-size="14.00" fill="#000000">user_id </text>
<text text-anchor="start" x="331.7882" y="-603.9" font-family="Arial" font-size="14.00" fill="#666666">[bigint unsigned]</text>
<polygon fill="none" stroke="#000000" points="275,-562.5 275,-592.5 480,-592.5 480,-562.5 275,-562.5"/>
<text text-anchor="start" x="282" y="-573.9" font-family="Arial" font-size="14.00" fill="#000000">company_id </text>
<text text-anchor="start" x="361.3534" y="-573.9" font-family="Arial" font-size="14.00" fill="#666666">[bigint unsigned]</text>
<polygon fill="none" stroke="#000000" points="275,-532.5 275,-562.5 480,-562.5 480,-532.5 275,-532.5"/>
<text text-anchor="start" x="282" y="-543.9" font-family="Arial" font-size="14.00" fill="#000000">created_at </text>
<text text-anchor="start" x="352.028" y="-543.9" font-family="Arial" font-size="14.00" fill="#666666">[timestamp]</text>
<polygon fill="none" stroke="#000000" points="275,-502.5 275,-532.5 480,-532.5 480,-502.5 275,-502.5"/>
<text text-anchor="start" x="282" y="-513.9" font-family="Arial" font-size="14.00" fill="#000000">updated_at </text>
<text text-anchor="start" x="355.9326" y="-513.9" font-family="Arial" font-size="14.00" fill="#666666">[timestamp]</text>
<polygon fill="none" stroke="#000000" points="275,-472.5 275,-502.5 480,-502.5 480,-472.5 275,-472.5"/>
<text text-anchor="start" x="282" y="-483.9" font-family="Arial" font-size="14.00" fill="#000000">deleted_at </text>
<text text-anchor="start" x="351.2566" y="-483.9" font-family="Arial" font-size="14.00" fill="#666666">[datetime]</text>
<polygon fill="none" stroke="#000000" stroke-width="3" points="273,-471.5 273,-749.5 481,-749.5 481,-471.5 273,-471.5"/>
</g>
<!-- users -->
<g id="node3" class="node">
<title>users</title>
<polygon fill="#efefef" stroke="transparent" points="118,-312.5 118,-347.5 328,-347.5 328,-312.5 118,-312.5"/>
<polygon fill="none" stroke="#000000" points="118,-312.5 118,-347.5 328,-347.5 328,-312.5 118,-312.5"/>
<text text-anchor="start" x="152.3708" y="-325.3" font-family="Arial Bold" font-size="18.00" fill="#000000">users</text>
<text text-anchor="start" x="196.3754" y="-325.3" font-family="Arial" font-size="14.00" fill="#000000"> </text>
<text text-anchor="start" x="200.266" y="-325.3" font-family="Arial" font-size="14.00" fill="#666666">[BASE TABLE]</text>
<polygon fill="none" stroke="#000000" points="118,-282.5 118,-312.5 328,-312.5 328,-282.5 118,-282.5"/>
<text text-anchor="start" x="125" y="-293.9" font-family="Arial" font-size="14.00" fill="#000000">id </text>
<text text-anchor="start" x="139.7798" y="-293.9" font-family="Arial" font-size="14.00" fill="#666666">[bigint unsigned]</text>
<polygon fill="none" stroke="#000000" points="118,-252.5 118,-282.5 328,-282.5 328,-252.5 118,-252.5"/>
<text text-anchor="start" x="125" y="-263.9" font-family="Arial" font-size="14.00" fill="#000000">name </text>
<text text-anchor="start" x="163.899" y="-263.9" font-family="Arial" font-size="14.00" fill="#666666">[varchar(255)]</text>
<polygon fill="none" stroke="#000000" points="118,-222.5 118,-252.5 328,-252.5 328,-222.5 118,-222.5"/>
<text text-anchor="start" x="125" y="-233.9" font-family="Arial" font-size="14.00" fill="#000000">email </text>
<text text-anchor="start" x="162.3296" y="-233.9" font-family="Arial" font-size="14.00" fill="#666666">[varchar(255)]</text>
<polygon fill="none" stroke="#000000" points="118,-192.5 118,-222.5 328,-222.5 328,-192.5 118,-192.5"/>
<text text-anchor="start" x="125" y="-203.9" font-family="Arial" font-size="14.00" fill="#000000">email_verified_at </text>
<text text-anchor="start" x="234.6802" y="-203.9" font-family="Arial" font-size="14.00" fill="#666666">[timestamp]</text>
<polygon fill="none" stroke="#000000" points="118,-162.5 118,-192.5 328,-192.5 328,-162.5 118,-162.5"/>
<text text-anchor="start" x="125" y="-173.9" font-family="Arial" font-size="14.00" fill="#000000">password </text>
<text text-anchor="start" x="188.7882" y="-173.9" font-family="Arial" font-size="14.00" fill="#666666">[varchar(255)]</text>
<polygon fill="none" stroke="#000000" points="118,-132.5 118,-162.5 328,-162.5 328,-132.5 118,-132.5"/>
<text text-anchor="start" x="125" y="-143.9" font-family="Arial" font-size="14.00" fill="#000000">profile </text>
<text text-anchor="start" x="167.0028" y="-143.9" font-family="Arial" font-size="14.00" fill="#666666">[varchar(255)]</text>
<polygon fill="none" stroke="#000000" points="118,-102.5 118,-132.5 328,-132.5 328,-102.5 118,-102.5"/>
<text text-anchor="start" x="124.5982" y="-113.9" font-family="Arial" font-size="14.00" fill="#000000">remember_token </text>
<text text-anchor="start" x="234.2826" y="-113.9" font-family="Arial" font-size="14.00" fill="#666666">[varchar(100)]</text>
<polygon fill="none" stroke="#000000" points="118,-72.5 118,-102.5 328,-102.5 328,-72.5 118,-72.5"/>
<text text-anchor="start" x="125" y="-83.9" font-family="Arial" font-size="14.00" fill="#000000">created_at </text>
<text text-anchor="start" x="195.028" y="-83.9" font-family="Arial" font-size="14.00" fill="#666666">[timestamp]</text>
<polygon fill="none" stroke="#000000" points="118,-42.5 118,-72.5 328,-72.5 328,-42.5 118,-42.5"/>
<text text-anchor="start" x="125" y="-53.9" font-family="Arial" font-size="14.00" fill="#000000">updated_at </text>
<text text-anchor="start" x="198.9326" y="-53.9" font-family="Arial" font-size="14.00" fill="#666666">[timestamp]</text>
</g>
<!-- interviews&#45;&gt;users -->
<g id="edge2" class="edge">
<title>interviews:user_id&#45;&gt;users:id</title>
<path fill="none" stroke="#000000" d="M264.9163,-607.4507C-106.9817,-603.7539 326.709,-393.4376 328,-391 347.4495,-354.277 369.5556,-297.5 328,-297.5"/>
<polygon fill="#000000" stroke="#000000" points="265.0001,-607.451 274.9779,-611.9999 270.0001,-607.4755 275,-607.5 275,-607.5 275,-607.5 270.0001,-607.4755 275.0221,-603.0001 265.0001,-607.451 265.0001,-607.451"/>
<text text-anchor="start" x="41.945" y="-617.5" font-family="Arial" font-size="10.00" fill="#000000">FOREIGN KEY (user_id) REFERENCES users (id)</text>
</g>
<!-- companies -->
<g id="node4" class="node">
<title>companies</title>
<polygon fill="#efefef" stroke="transparent" points="432,-312.5 432,-347.5 634,-347.5 634,-312.5 432,-312.5"/>
<polygon fill="none" stroke="#000000" points="432,-312.5 432,-347.5 634,-347.5 634,-312.5 432,-312.5"/>
<text text-anchor="start" x="440.8644" y="-325.3" font-family="Arial Bold" font-size="18.00" fill="#000000">companies</text>
<text text-anchor="start" x="527.8818" y="-325.3" font-family="Arial" font-size="14.00" fill="#000000"> </text>
<text text-anchor="start" x="531.7724" y="-325.3" font-family="Arial" font-size="14.00" fill="#666666">[BASE TABLE]</text>
<polygon fill="none" stroke="#000000" points="432,-282.5 432,-312.5 634,-312.5 634,-282.5 432,-282.5"/>
<text text-anchor="start" x="439" y="-293.9" font-family="Arial" font-size="14.00" fill="#000000">id </text>
<text text-anchor="start" x="453.7798" y="-293.9" font-family="Arial" font-size="14.00" fill="#666666">[bigint unsigned]</text>
<polygon fill="none" stroke="#000000" points="432,-252.5 432,-282.5 634,-282.5 634,-252.5 432,-252.5"/>
<text text-anchor="start" x="439" y="-263.9" font-family="Arial" font-size="14.00" fill="#000000">name </text>
<text text-anchor="start" x="477.899" y="-263.9" font-family="Arial" font-size="14.00" fill="#666666">[varchar(255)]</text>
<polygon fill="none" stroke="#000000" points="432,-222.5 432,-252.5 634,-252.5 634,-222.5 432,-222.5"/>
<text text-anchor="start" x="439" y="-233.9" font-family="Arial" font-size="14.00" fill="#000000">email </text>
<text text-anchor="start" x="476.3296" y="-233.9" font-family="Arial" font-size="14.00" fill="#666666">[varchar(255)]</text>
<polygon fill="none" stroke="#000000" points="432,-192.5 432,-222.5 634,-222.5 634,-192.5 432,-192.5"/>
<text text-anchor="start" x="439" y="-203.9" font-family="Arial" font-size="14.00" fill="#000000">password </text>
<text text-anchor="start" x="502.7882" y="-203.9" font-family="Arial" font-size="14.00" fill="#666666">[varchar(255)]</text>
<polygon fill="none" stroke="#000000" points="432,-162.5 432,-192.5 634,-192.5 634,-162.5 432,-162.5"/>
<text text-anchor="start" x="439" y="-173.9" font-family="Arial" font-size="14.00" fill="#000000">profile </text>
<text text-anchor="start" x="481.0028" y="-173.9" font-family="Arial" font-size="14.00" fill="#666666">[varchar(255)]</text>
<polygon fill="none" stroke="#000000" points="432,-132.5 432,-162.5 634,-162.5 634,-132.5 432,-132.5"/>
<text text-anchor="start" x="438.8773" y="-143.9" font-family="Arial" font-size="14.00" fill="#000000">is_enable_interview </text>
<text text-anchor="start" x="565.6781" y="-143.9" font-family="Arial" font-size="14.00" fill="#666666">[tinyint(1)]</text>
<polygon fill="none" stroke="#000000" points="432,-102.5 432,-132.5 634,-132.5 634,-102.5 432,-102.5"/>
<text text-anchor="start" x="439" y="-113.9" font-family="Arial" font-size="14.00" fill="#000000">created_at </text>
<text text-anchor="start" x="509.028" y="-113.9" font-family="Arial" font-size="14.00" fill="#666666">[timestamp]</text>
<polygon fill="none" stroke="#000000" points="432,-72.5 432,-102.5 634,-102.5 634,-72.5 432,-72.5"/>
<text text-anchor="start" x="439" y="-83.9" font-family="Arial" font-size="14.00" fill="#000000">updated_at </text>
<text text-anchor="start" x="512.9326" y="-83.9" font-family="Arial" font-size="14.00" fill="#666666">[timestamp]</text>
<polygon fill="none" stroke="#000000" points="432,-42.5 432,-72.5 634,-72.5 634,-42.5 432,-42.5"/>
<text text-anchor="start" x="439" y="-53.9" font-family="Arial" font-size="14.00" fill="#000000">deleted_at </text>
<text text-anchor="start" x="508.2566" y="-53.9" font-family="Arial" font-size="14.00" fill="#666666">[datetime]</text>
</g>
<!-- interviews&#45;&gt;companies -->
<g id="edge3" class="edge">
<title>interviews:company_id&#45;&gt;companies:id</title>
<path fill="none" stroke="#000000" d="M490.2096,-577.4248C769.8595,-573.2124 433.2343,-393.4686 432,-391 413.4158,-353.8316 390.4444,-297.5 432,-297.5"/>
<polygon fill="#000000" stroke="#000000" points="489.9997,-577.4262 479.9668,-573.0001 484.9999,-577.4631 480,-577.5 480,-577.5 480,-577.5 484.9999,-577.4631 480.0332,-581.9999 489.9997,-577.4262 489.9997,-577.4262"/>
<text text-anchor="start" x="487.438" y="-587.5" font-family="Arial" font-size="10.00" fill="#000000">FOREIGN KEY (company_id) REFERENCES companies (id)</text>
</g>
<!-- messages -->
<g id="node2" class="node">
<title>messages</title>
<polygon fill="#efefef" stroke="transparent" points="280,-1112.5 280,-1147.5 475,-1147.5 475,-1112.5 280,-1112.5"/>
<polygon fill="none" stroke="#000000" points="280,-1112.5 280,-1147.5 475,-1147.5 475,-1112.5 280,-1112.5"/>
<text text-anchor="start" x="287.8646" y="-1125.3" font-family="Arial Bold" font-size="18.00" fill="#000000">messages</text>
<text text-anchor="start" x="369.8816" y="-1125.3" font-family="Arial" font-size="14.00" fill="#000000"> </text>
<text text-anchor="start" x="373.7722" y="-1125.3" font-family="Arial" font-size="14.00" fill="#666666">[BASE TABLE]</text>
<polygon fill="none" stroke="#000000" points="280,-1082.5 280,-1112.5 475,-1112.5 475,-1082.5 280,-1082.5"/>
<text text-anchor="start" x="287" y="-1093.9" font-family="Arial" font-size="14.00" fill="#000000">id </text>
<text text-anchor="start" x="301.7798" y="-1093.9" font-family="Arial" font-size="14.00" fill="#666666">[bigint unsigned]</text>
<polygon fill="none" stroke="#000000" points="280,-1052.5 280,-1082.5 475,-1082.5 475,-1052.5 280,-1052.5"/>
<text text-anchor="start" x="287" y="-1063.9" font-family="Arial" font-size="14.00" fill="#000000">body </text>
<text text-anchor="start" x="321.2384" y="-1063.9" font-family="Arial" font-size="14.00" fill="#666666">[varchar(255)]</text>
<polygon fill="none" stroke="#000000" points="280,-1022.5 280,-1052.5 475,-1052.5 475,-1022.5 280,-1022.5"/>
<text text-anchor="start" x="287" y="-1033.9" font-family="Arial" font-size="14.00" fill="#000000">interview_id </text>
<text text-anchor="start" x="364.7812" y="-1033.9" font-family="Arial" font-size="14.00" fill="#666666">[bigint unsigned]</text>
<polygon fill="none" stroke="#000000" points="280,-992.5 280,-1022.5 475,-1022.5 475,-992.5 280,-992.5"/>
<text text-anchor="start" x="287" y="-1003.9" font-family="Arial" font-size="14.00" fill="#000000">user_id </text>
<text text-anchor="start" x="336.7882" y="-1003.9" font-family="Arial" font-size="14.00" fill="#666666">[bigint unsigned]</text>
<polygon fill="none" stroke="#000000" points="280,-962.5 280,-992.5 475,-992.5 475,-962.5 280,-962.5"/>
<text text-anchor="start" x="286.8605" y="-973.9" font-family="Arial" font-size="14.00" fill="#000000">company_id </text>
<text text-anchor="start" x="366.2139" y="-973.9" font-family="Arial" font-size="14.00" fill="#666666">[bigint unsigned]</text>
<polygon fill="none" stroke="#000000" points="280,-932.5 280,-962.5 475,-962.5 475,-932.5 280,-932.5"/>
<text text-anchor="start" x="287" y="-943.9" font-family="Arial" font-size="14.00" fill="#000000">created_at </text>
<text text-anchor="start" x="357.028" y="-943.9" font-family="Arial" font-size="14.00" fill="#666666">[timestamp]</text>
<polygon fill="none" stroke="#000000" points="280,-902.5 280,-932.5 475,-932.5 475,-902.5 280,-902.5"/>
<text text-anchor="start" x="287" y="-913.9" font-family="Arial" font-size="14.00" fill="#000000">updated_at </text>
<text text-anchor="start" x="360.9326" y="-913.9" font-family="Arial" font-size="14.00" fill="#666666">[timestamp]</text>
<polygon fill="none" stroke="#000000" points="280,-872.5 280,-902.5 475,-902.5 475,-872.5 280,-872.5"/>
<text text-anchor="start" x="287" y="-883.9" font-family="Arial" font-size="14.00" fill="#000000">deleted_at </text>
<text text-anchor="start" x="356.2566" y="-883.9" font-family="Arial" font-size="14.00" fill="#666666">[datetime]</text>
</g>
<!-- messages&#45;&gt;interviews -->
<g id="edge1" class="edge">
<title>messages:interview_id&#45;&gt;interviews:id</title>
<path fill="none" stroke="#000000" d="M269.6148,-1036.9485C128.7239,-1021.7493 127.4146,-697.5 275,-697.5"/>
<polygon fill="#000000" stroke="#000000" points="270.0141,-1036.9696 279.7613,-1041.9937 275.007,-1037.2348 280,-1037.5 280,-1037.5 280,-1037.5 275.007,-1037.2348 280.2387,-1033.0063 270.0141,-1036.9696 270.0141,-1036.9696"/>
<text text-anchor="start" x="6.95" y="-1047.5" font-family="Arial" font-size="10.00" fill="#000000">FOREIGN KEY (interview_id) REFERENCES interviews (id)</text>
</g>
</g>
</svg>
