<?xml version="1.0" encoding="UTF-8" standalone="no"?>
<!DOCTYPE svg PUBLIC "-//W3C//DTD SVG 1.1//EN"
 "http://www.w3.org/Graphics/SVG/1.1/DTD/svg11.dtd">
<!-- Generated by graphviz version 2.40.1 (20161225.0304)
 -->
<!-- Title: interviews Pages: 1 -->
<svg width="773pt" height="1229pt"
 viewBox="0.00 0.00 773.00 1229.00" xmlns="http://www.w3.org/2000/svg" xmlns:xlink="http://www.w3.org/1999/xlink">
<g id="graph0" class="graph" transform="scale(1 1) rotate(0) translate(4 1225)">
<title>interviews</title>
<polygon fill="#ffffff" stroke="transparent" points="-4,4 -4,-1225 769,-1225 769,4 -4,4"/>
<!-- interviews -->
<g id="node1" class="node">
<title>interviews</title>
<polygon fill="#efefef" stroke="transparent" points="275,-742.5 275,-777.5 480,-777.5 480,-742.5 275,-742.5"/>
<polygon fill="none" stroke="#000000" points="275,-742.5 275,-777.5 480,-777.5 480,-742.5 275,-742.5"/>
<text text-anchor="start" x="288.8753" y="-755.3" font-family="Arial Bold" font-size="18.00" fill="#000000">interviews</text>
<text text-anchor="start" x="368.8709" y="-755.3" font-family="Arial" font-size="14.00" fill="#000000"> </text>
<text text-anchor="start" x="372.7615" y="-755.3" font-family="Arial" font-size="14.00" fill="#666666">[BASE TABLE]</text>
<polygon fill="none" stroke="#000000" points="275,-712.5 275,-742.5 480,-742.5 480,-712.5 275,-712.5"/>
<text text-anchor="start" x="282" y="-723.9" font-family="Arial" font-size="14.00" fill="#000000">id </text>
<text text-anchor="start" x="296.7798" y="-723.9" font-family="Arial" font-size="14.00" fill="#666666">[bigint unsigned]</text>
<polygon fill="none" stroke="#000000" points="275,-682.5 275,-712.5 480,-712.5 480,-682.5 275,-682.5"/>
<text text-anchor="start" x="282" y="-693.9" font-family="Arial" font-size="14.00" fill="#000000">interview_datetime </text>
<text text-anchor="start" x="402.5708" y="-693.9" font-family="Arial" font-size="14.00" fill="#666666">[datetime]</text>
<polygon fill="none" stroke="#000000" points="275,-652.5 275,-682.5 480,-682.5 480,-652.5 275,-652.5"/>
<text text-anchor="start" x="281.8212" y="-663.9" font-family="Arial" font-size="14.00" fill="#000000">interview_status </text>
<text text-anchor="start" x="386.0596" y="-663.9" font-family="Arial" font-size="14.00" fill="#666666">[varchar(255)]</text>
<polygon fill="none" stroke="#000000" points="275,-622.5 275,-652.5 480,-652.5 480,-622.5 275,-622.5"/>
<text text-anchor="start" x="282" y="-633.9" font-family="Arial" font-size="14.00" fill="#000000">user_id </text>
<text text-anchor="start" x="331.7882" y="-633.9" font-family="Arial" font-size="14.00" fill="#666666">[bigint unsigned]</text>
<polygon fill="none" stroke="#000000" points="275,-592.5 275,-622.5 480,-622.5 480,-592.5 275,-592.5"/>
<text text-anchor="start" x="282" y="-603.9" font-family="Arial" font-size="14.00" fill="#000000">company_id </text>
<text text-anchor="start" x="361.3534" y="-603.9" font-family="Arial" font-size="14.00" fill="#666666">[bigint unsigned]</text>
<polygon fill="none" stroke="#000000" points="275,-562.5 275,-592.5 480,-592.5 480,-562.5 275,-562.5"/>
<text text-anchor="start" x="282" y="-573.9" font-family="Arial" font-size="14.00" fill="#000000">created_at </text>
<text text-anchor="start" x="352.028" y="-573.9" font-family="Arial" font-size="14.00" fill="#666666">[datetime]</text>
<polygon fill="none" stroke="#000000" points="275,-532.5 275,-562.5 480,-562.5 480,-532.5 275,-532.5"/>
<text text-anchor="start" x="282" y="-543.9" font-family="Arial" font-size="14.00" fill="#000000">updated_at </text>
<text text-anchor="start" x="355.9326" y="-543.9" font-family="Arial" font-size="14.00" fill="#666666">[datetime]</text>
<polygon fill="none" stroke="#000000" points="275,-502.5 275,-532.5 480,-532.5 480,-502.5 275,-502.5"/>
<text text-anchor="start" x="282" y="-513.9" font-family="Arial" font-size="14.00" fill="#000000">deleted_at </text>
<text text-anchor="start" x="351.2566" y="-513.9" font-family="Arial" font-size="14.00" fill="#666666">[datetime]</text>
<polygon fill="none" stroke="#000000" stroke-width="3" points="273,-501.5 273,-779.5 481,-779.5 481,-501.5 273,-501.5"/>
</g>
<!-- users -->
<g id="node3" class="node">
<title>users</title>
<polygon fill="#efefef" stroke="transparent" points="115,-342.5 115,-377.5 325,-377.5 325,-342.5 115,-342.5"/>
<polygon fill="none" stroke="#000000" points="115,-342.5 115,-377.5 325,-377.5 325,-342.5 115,-342.5"/>
<text text-anchor="start" x="149.3708" y="-355.3" font-family="Arial Bold" font-size="18.00" fill="#000000">users</text>
<text text-anchor="start" x="193.3754" y="-355.3" font-family="Arial" font-size="14.00" fill="#000000"> </text>
<text text-anchor="start" x="197.266" y="-355.3" font-family="Arial" font-size="14.00" fill="#666666">[BASE TABLE]</text>
<polygon fill="none" stroke="#000000" points="115,-312.5 115,-342.5 325,-342.5 325,-312.5 115,-312.5"/>
<text text-anchor="start" x="122" y="-323.9" font-family="Arial" font-size="14.00" fill="#000000">id </text>
<text text-anchor="start" x="136.7798" y="-323.9" font-family="Arial" font-size="14.00" fill="#666666">[bigint unsigned]</text>
<polygon fill="none" stroke="#000000" points="115,-282.5 115,-312.5 325,-312.5 325,-282.5 115,-282.5"/>
<text text-anchor="start" x="122" y="-293.9" font-family="Arial" font-size="14.00" fill="#000000">name </text>
<text text-anchor="start" x="160.899" y="-293.9" font-family="Arial" font-size="14.00" fill="#666666">[varchar(255)]</text>
<polygon fill="none" stroke="#000000" points="115,-252.5 115,-282.5 325,-282.5 325,-252.5 115,-252.5"/>
<text text-anchor="start" x="122" y="-263.9" font-family="Arial" font-size="14.00" fill="#000000">email </text>
<text text-anchor="start" x="159.3296" y="-263.9" font-family="Arial" font-size="14.00" fill="#666666">[varchar(255)]</text>
<polygon fill="none" stroke="#000000" points="115,-222.5 115,-252.5 325,-252.5 325,-222.5 115,-222.5"/>
<text text-anchor="start" x="122" y="-233.9" font-family="Arial" font-size="14.00" fill="#000000">email_verified_at </text>
<text text-anchor="start" x="231.6802" y="-233.9" font-family="Arial" font-size="14.00" fill="#666666">[timestamp]</text>
<polygon fill="none" stroke="#000000" points="115,-192.5 115,-222.5 325,-222.5 325,-192.5 115,-192.5"/>
<text text-anchor="start" x="122" y="-203.9" font-family="Arial" font-size="14.00" fill="#000000">password </text>
<text text-anchor="start" x="185.7882" y="-203.9" font-family="Arial" font-size="14.00" fill="#666666">[varchar(255)]</text>
<polygon fill="none" stroke="#000000" points="115,-162.5 115,-192.5 325,-192.5 325,-162.5 115,-162.5"/>
<text text-anchor="start" x="122" y="-173.9" font-family="Arial" font-size="14.00" fill="#000000">profile </text>
<text text-anchor="start" x="164.0028" y="-173.9" font-family="Arial" font-size="14.00" fill="#666666">[text]</text>
<polygon fill="none" stroke="#000000" points="115,-132.5 115,-162.5 325,-162.5 325,-132.5 115,-132.5"/>
<text text-anchor="start" x="121.5982" y="-143.9" font-family="Arial" font-size="14.00" fill="#000000">remember_token </text>
<text text-anchor="start" x="231.2826" y="-143.9" font-family="Arial" font-size="14.00" fill="#666666">[varchar(100)]</text>
<polygon fill="none" stroke="#000000" points="115,-102.5 115,-132.5 325,-132.5 325,-102.5 115,-102.5"/>
<text text-anchor="start" x="122" y="-113.9" font-family="Arial" font-size="14.00" fill="#000000">created_at </text>
<text text-anchor="start" x="192.028" y="-113.9" font-family="Arial" font-size="14.00" fill="#666666">[datetime]</text>
<polygon fill="none" stroke="#000000" points="115,-72.5 115,-102.5 325,-102.5 325,-72.5 115,-72.5"/>
<text text-anchor="start" x="122" y="-83.9" font-family="Arial" font-size="14.00" fill="#000000">updated_at </text>
<text text-anchor="start" x="195.9326" y="-83.9" font-family="Arial" font-size="14.00" fill="#666666">[datetime]</text>
<polygon fill="none" stroke="#000000" points="115,-42.5 115,-72.5 325,-72.5 325,-42.5 115,-42.5"/>
<text text-anchor="start" x="122" y="-53.9" font-family="Arial" font-size="14.00" fill="#000000">deleted_at </text>
<text text-anchor="start" x="191.2566" y="-53.9" font-family="Arial" font-size="14.00" fill="#666666">[datetime]</text>
</g>
<!-- interviews&#45;&gt;users -->
<g id="edge2" class="edge">
<title>interviews:user_id&#45;&gt;users:id</title>
<path fill="none" stroke="#000000" d="M264.9268,-636.8528C198.6851,-627.7741 240.0694,-525.1927 275,-457 287.484,-432.6283 312.516,-445.3717 325,-421 343.9453,-384.0143 366.5556,-327.5 325,-327.5"/>
<polygon fill="#000000" stroke="#000000" points="265.0206,-636.8588 274.7114,-641.9907 270.0103,-637.1794 275,-637.5 275,-637.5 275,-637.5 270.0103,-637.1794 275.2886,-633.0093 265.0206,-636.8588 265.0206,-636.8588"/>
<text text-anchor="start" x="41.945" y="-647.5" font-family="Arial" font-size="10.00" fill="#000000">FOREIGN KEY (user_id) REFERENCES users (id)</text>
</g>
<!-- companies -->
<g id="node4" class="node">
<title>companies</title>
<polygon fill="#efefef" stroke="transparent" points="429,-342.5 429,-377.5 643,-377.5 643,-342.5 429,-342.5"/>
<polygon fill="none" stroke="#000000" points="429,-342.5 429,-377.5 643,-377.5 643,-342.5 429,-342.5"/>
<text text-anchor="start" x="443.8644" y="-355.3" font-family="Arial Bold" font-size="18.00" fill="#000000">companies</text>
<text text-anchor="start" x="530.8818" y="-355.3" font-family="Arial" font-size="14.00" fill="#000000"> </text>
<text text-anchor="start" x="534.7724" y="-355.3" font-family="Arial" font-size="14.00" fill="#666666">[BASE TABLE]</text>
<polygon fill="none" stroke="#000000" points="429,-312.5 429,-342.5 643,-342.5 643,-312.5 429,-312.5"/>
<text text-anchor="start" x="436" y="-323.9" font-family="Arial" font-size="14.00" fill="#000000">id </text>
<text text-anchor="start" x="450.7798" y="-323.9" font-family="Arial" font-size="14.00" fill="#666666">[bigint unsigned]</text>
<polygon fill="none" stroke="#000000" points="429,-282.5 429,-312.5 643,-312.5 643,-282.5 429,-282.5"/>
<text text-anchor="start" x="436" y="-293.9" font-family="Arial" font-size="14.00" fill="#000000">name </text>
<text text-anchor="start" x="474.899" y="-293.9" font-family="Arial" font-size="14.00" fill="#666666">[varchar(255)]</text>
<polygon fill="none" stroke="#000000" points="429,-252.5 429,-282.5 643,-282.5 643,-252.5 429,-252.5"/>
<text text-anchor="start" x="436" y="-263.9" font-family="Arial" font-size="14.00" fill="#000000">email </text>
<text text-anchor="start" x="473.3296" y="-263.9" font-family="Arial" font-size="14.00" fill="#666666">[varchar(255)]</text>
<polygon fill="none" stroke="#000000" points="429,-222.5 429,-252.5 643,-252.5 643,-222.5 429,-222.5"/>
<text text-anchor="start" x="436" y="-233.9" font-family="Arial" font-size="14.00" fill="#000000">password </text>
<text text-anchor="start" x="499.7882" y="-233.9" font-family="Arial" font-size="14.00" fill="#666666">[varchar(255)]</text>
<polygon fill="none" stroke="#000000" points="429,-192.5 429,-222.5 643,-222.5 643,-192.5 429,-192.5"/>
<text text-anchor="start" x="436" y="-203.9" font-family="Arial" font-size="14.00" fill="#000000">profile </text>
<text text-anchor="start" x="478.0028" y="-203.9" font-family="Arial" font-size="14.00" fill="#666666">[varchar(255)]</text>
<polygon fill="none" stroke="#000000" points="429,-162.5 429,-192.5 643,-192.5 643,-162.5 429,-162.5"/>
<text text-anchor="start" x="436" y="-173.9" font-family="Arial" font-size="14.00" fill="#000000">is_enable_interview </text>
<text text-anchor="start" x="562.8008" y="-173.9" font-family="Arial" font-size="14.00" fill="#666666">[tinyint(1)]</text>
<polygon fill="none" stroke="#000000" points="429,-132.5 429,-162.5 643,-162.5 643,-132.5 429,-132.5"/>
<text text-anchor="start" x="435.641" y="-143.9" font-family="Arial" font-size="14.00" fill="#000000">enable_interview_datetime </text>
<text text-anchor="start" x="606.014" y="-143.9" font-family="Arial" font-size="14.00" fill="#666666">[text]</text>
<polygon fill="none" stroke="#000000" points="429,-102.5 429,-132.5 643,-132.5 643,-102.5 429,-102.5"/>
<text text-anchor="start" x="436" y="-113.9" font-family="Arial" font-size="14.00" fill="#000000">created_at </text>
<text text-anchor="start" x="506.028" y="-113.9" font-family="Arial" font-size="14.00" fill="#666666">[datetime]</text>
<polygon fill="none" stroke="#000000" points="429,-72.5 429,-102.5 643,-102.5 643,-72.5 429,-72.5"/>
<text text-anchor="start" x="436" y="-83.9" font-family="Arial" font-size="14.00" fill="#000000">updated_at </text>
<text text-anchor="start" x="509.9326" y="-83.9" font-family="Arial" font-size="14.00" fill="#666666">[datetime]</text>
<polygon fill="none" stroke="#000000" points="429,-42.5 429,-72.5 643,-72.5 643,-42.5 429,-42.5"/>
<text text-anchor="start" x="436" y="-53.9" font-family="Arial" font-size="14.00" fill="#000000">deleted_at </text>
<text text-anchor="start" x="505.2566" y="-53.9" font-family="Arial" font-size="14.00" fill="#666666">[datetime]</text>
</g>
<!-- interviews&#45;&gt;companies -->
<g id="edge3" class="edge">
<title>interviews:company_id&#45;&gt;companies:id</title>
<path fill="none" stroke="#000000" d="M490.058,-607.433C778.01,-603.516 433.1854,-429.0775 429,-421 409.8818,-384.1034 387.4444,-327.5 429,-327.5"/>
<polygon fill="#000000" stroke="#000000" points="489.9998,-607.4333 479.97,-603.0001 484.9999,-607.4667 480,-607.5 480,-607.5 480,-607.5 484.9999,-607.4667 480.03,-611.9999 489.9998,-607.4333 489.9998,-607.4333"/>
<text text-anchor="start" x="487.438" y="-617.5" font-family="Arial" font-size="10.00" fill="#000000">FOREIGN KEY (company_id) REFERENCES companies (id)</text>
</g>
<!-- messages -->
<g id="node2" class="node">
<title>messages</title>
<polygon fill="#efefef" stroke="transparent" points="280,-1142.5 280,-1177.5 475,-1177.5 475,-1142.5 280,-1142.5"/>
<polygon fill="none" stroke="#000000" points="280,-1142.5 280,-1177.5 475,-1177.5 475,-1142.5 280,-1142.5"/>
<text text-anchor="start" x="287.8646" y="-1155.3" font-family="Arial Bold" font-size="18.00" fill="#000000">messages</text>
<text text-anchor="start" x="369.8816" y="-1155.3" font-family="Arial" font-size="14.00" fill="#000000"> </text>
<text text-anchor="start" x="373.7722" y="-1155.3" font-family="Arial" font-size="14.00" fill="#666666">[BASE TABLE]</text>
<polygon fill="none" stroke="#000000" points="280,-1112.5 280,-1142.5 475,-1142.5 475,-1112.5 280,-1112.5"/>
<text text-anchor="start" x="287" y="-1123.9" font-family="Arial" font-size="14.00" fill="#000000">id </text>
<text text-anchor="start" x="301.7798" y="-1123.9" font-family="Arial" font-size="14.00" fill="#666666">[bigint unsigned]</text>
<polygon fill="none" stroke="#000000" points="280,-1082.5 280,-1112.5 475,-1112.5 475,-1082.5 280,-1082.5"/>
<text text-anchor="start" x="287" y="-1093.9" font-family="Arial" font-size="14.00" fill="#000000">body </text>
<text text-anchor="start" x="321.2384" y="-1093.9" font-family="Arial" font-size="14.00" fill="#666666">[varchar(255)]</text>
<polygon fill="none" stroke="#000000" points="280,-1052.5 280,-1082.5 475,-1082.5 475,-1052.5 280,-1052.5"/>
<text text-anchor="start" x="287" y="-1063.9" font-family="Arial" font-size="14.00" fill="#000000">interview_id </text>
<text text-anchor="start" x="364.7812" y="-1063.9" font-family="Arial" font-size="14.00" fill="#666666">[bigint unsigned]</text>
<polygon fill="none" stroke="#000000" points="280,-1022.5 280,-1052.5 475,-1052.5 475,-1022.5 280,-1022.5"/>
<text text-anchor="start" x="287" y="-1033.9" font-family="Arial" font-size="14.00" fill="#000000">user_id </text>
<text text-anchor="start" x="336.7882" y="-1033.9" font-family="Arial" font-size="14.00" fill="#666666">[bigint unsigned]</text>
<polygon fill="none" stroke="#000000" points="280,-992.5 280,-1022.5 475,-1022.5 475,-992.5 280,-992.5"/>
<text text-anchor="start" x="286.8605" y="-1003.9" font-family="Arial" font-size="14.00" fill="#000000">company_id </text>
<text text-anchor="start" x="366.2139" y="-1003.9" font-family="Arial" font-size="14.00" fill="#666666">[bigint unsigned]</text>
<polygon fill="none" stroke="#000000" points="280,-962.5 280,-992.5 475,-992.5 475,-962.5 280,-962.5"/>
<text text-anchor="start" x="287" y="-973.9" font-family="Arial" font-size="14.00" fill="#000000">created_at </text>
<text text-anchor="start" x="357.028" y="-973.9" font-family="Arial" font-size="14.00" fill="#666666">[datetime]</text>
<polygon fill="none" stroke="#000000" points="280,-932.5 280,-962.5 475,-962.5 475,-932.5 280,-932.5"/>
<text text-anchor="start" x="287" y="-943.9" font-family="Arial" font-size="14.00" fill="#000000">updated_at </text>
<text text-anchor="start" x="360.9326" y="-943.9" font-family="Arial" font-size="14.00" fill="#666666">[datetime]</text>
<polygon fill="none" stroke="#000000" points="280,-902.5 280,-932.5 475,-932.5 475,-902.5 280,-902.5"/>
<text text-anchor="start" x="287" y="-913.9" font-family="Arial" font-size="14.00" fill="#000000">deleted_at </text>
<text text-anchor="start" x="356.2566" y="-913.9" font-family="Arial" font-size="14.00" fill="#666666">[datetime]</text>
</g>
<!-- messages&#45;&gt;interviews -->
<g id="edge1" class="edge">
<title>messages:interview_id&#45;&gt;interviews:id</title>
<path fill="none" stroke="#000000" d="M269.6148,-1066.9485C128.7239,-1051.7493 127.4146,-727.5 275,-727.5"/>
<polygon fill="#000000" stroke="#000000" points="270.0141,-1066.9696 279.7613,-1071.9937 275.007,-1067.2348 280,-1067.5 280,-1067.5 280,-1067.5 275.007,-1067.2348 280.2387,-1063.0063 270.0141,-1066.9696 270.0141,-1066.9696"/>
<text text-anchor="start" x="6.95" y="-1077.5" font-family="Arial" font-size="10.00" fill="#000000">FOREIGN KEY (interview_id) REFERENCES interviews (id)</text>
</g>
</g>
</svg>
