<?xml version="1.0" encoding="UTF-8" standalone="no"?>
<!DOCTYPE svg PUBLIC "-//W3C//DTD SVG 1.1//EN"
 "http://www.w3.org/Graphics/SVG/1.1/DTD/svg11.dtd">
<!-- Generated by graphviz version 2.40.1 (20161225.0304)
 -->
<!-- Title: messages Pages: 1 -->
<svg width="920pt" height="802pt"
 viewBox="0.00 0.00 919.50 802.00" xmlns="http://www.w3.org/2000/svg" xmlns:xlink="http://www.w3.org/1999/xlink">
<g id="graph0" class="graph" transform="scale(1 1) rotate(0) translate(4 798)">
<title>messages</title>
<polygon fill="#ffffff" stroke="transparent" points="-4,4 -4,-798 915.5,-798 915.5,4 -4,4"/>
<!-- messages -->
<g id="node1" class="node">
<title>messages</title>
<polygon fill="#efefef" stroke="transparent" points="359.5,-712.5 359.5,-747.5 554.5,-747.5 554.5,-712.5 359.5,-712.5"/>
<polygon fill="none" stroke="#000000" points="359.5,-712.5 359.5,-747.5 554.5,-747.5 554.5,-712.5 359.5,-712.5"/>
<text text-anchor="start" x="367.3646" y="-725.3" font-family="Arial Bold" font-size="18.00" fill="#000000">messages</text>
<text text-anchor="start" x="449.3816" y="-725.3" font-family="Arial" font-size="14.00" fill="#000000"> </text>
<text text-anchor="start" x="453.2722" y="-725.3" font-family="Arial" font-size="14.00" fill="#666666">[BASE TABLE]</text>
<polygon fill="none" stroke="#000000" points="359.5,-682.5 359.5,-712.5 554.5,-712.5 554.5,-682.5 359.5,-682.5"/>
<text text-anchor="start" x="366.5" y="-693.9" font-family="Arial" font-size="14.00" fill="#000000">id </text>
<text text-anchor="start" x="381.2798" y="-693.9" font-family="Arial" font-size="14.00" fill="#666666">[bigint unsigned]</text>
<polygon fill="none" stroke="#000000" points="359.5,-652.5 359.5,-682.5 554.5,-682.5 554.5,-652.5 359.5,-652.5"/>
<text text-anchor="start" x="366.5" y="-663.9" font-family="Arial" font-size="14.00" fill="#000000">body </text>
<text text-anchor="start" x="400.7384" y="-663.9" font-family="Arial" font-size="14.00" fill="#666666">[varchar(255)]</text>
<polygon fill="none" stroke="#000000" points="359.5,-622.5 359.5,-652.5 554.5,-652.5 554.5,-622.5 359.5,-622.5"/>
<text text-anchor="start" x="366.5" y="-633.9" font-family="Arial" font-size="14.00" fill="#000000">interview_id </text>
<text text-anchor="start" x="444.2812" y="-633.9" font-family="Arial" font-size="14.00" fill="#666666">[bigint unsigned]</text>
<polygon fill="none" stroke="#000000" points="359.5,-592.5 359.5,-622.5 554.5,-622.5 554.5,-592.5 359.5,-592.5"/>
<text text-anchor="start" x="366.5" y="-603.9" font-family="Arial" font-size="14.00" fill="#000000">user_id </text>
<text text-anchor="start" x="416.2882" y="-603.9" font-family="Arial" font-size="14.00" fill="#666666">[bigint unsigned]</text>
<polygon fill="none" stroke="#000000" points="359.5,-562.5 359.5,-592.5 554.5,-592.5 554.5,-562.5 359.5,-562.5"/>
<text text-anchor="start" x="366.3605" y="-573.9" font-family="Arial" font-size="14.00" fill="#000000">company_id </text>
<text text-anchor="start" x="445.7139" y="-573.9" font-family="Arial" font-size="14.00" fill="#666666">[bigint unsigned]</text>
<polygon fill="none" stroke="#000000" points="359.5,-532.5 359.5,-562.5 554.5,-562.5 554.5,-532.5 359.5,-532.5"/>
<text text-anchor="start" x="366.5" y="-543.9" font-family="Arial" font-size="14.00" fill="#000000">created_at </text>
<text text-anchor="start" x="436.528" y="-543.9" font-family="Arial" font-size="14.00" fill="#666666">[timestamp]</text>
<polygon fill="none" stroke="#000000" points="359.5,-502.5 359.5,-532.5 554.5,-532.5 554.5,-502.5 359.5,-502.5"/>
<text text-anchor="start" x="366.5" y="-513.9" font-family="Arial" font-size="14.00" fill="#000000">updated_at </text>
<text text-anchor="start" x="440.4326" y="-513.9" font-family="Arial" font-size="14.00" fill="#666666">[timestamp]</text>
<polygon fill="none" stroke="#000000" points="359.5,-472.5 359.5,-502.5 554.5,-502.5 554.5,-472.5 359.5,-472.5"/>
<text text-anchor="start" x="366.5" y="-483.9" font-family="Arial" font-size="14.00" fill="#000000">deleted_at </text>
<text text-anchor="start" x="435.7566" y="-483.9" font-family="Arial" font-size="14.00" fill="#666666">[datetime]</text>
<polygon fill="none" stroke="#000000" stroke-width="3" points="357.5,-471.5 357.5,-749.5 555.5,-749.5 555.5,-471.5 357.5,-471.5"/>
</g>
<!-- interviews -->
<g id="node2" class="node">
<title>interviews</title>
<polygon fill="#efefef" stroke="transparent" points="43.5,-297.5 43.5,-332.5 248.5,-332.5 248.5,-297.5 43.5,-297.5"/>
<polygon fill="none" stroke="#000000" points="43.5,-297.5 43.5,-332.5 248.5,-332.5 248.5,-297.5 43.5,-297.5"/>
<text text-anchor="start" x="57.3753" y="-310.3" font-family="Arial Bold" font-size="18.00" fill="#000000">interviews</text>
<text text-anchor="start" x="137.3709" y="-310.3" font-family="Arial" font-size="14.00" fill="#000000"> </text>
<text text-anchor="start" x="141.2615" y="-310.3" font-family="Arial" font-size="14.00" fill="#666666">[BASE TABLE]</text>
<polygon fill="none" stroke="#000000" points="43.5,-267.5 43.5,-297.5 248.5,-297.5 248.5,-267.5 43.5,-267.5"/>
<text text-anchor="start" x="50.5" y="-278.9" font-family="Arial" font-size="14.00" fill="#000000">id </text>
<text text-anchor="start" x="65.2798" y="-278.9" font-family="Arial" font-size="14.00" fill="#666666">[bigint unsigned]</text>
<polygon fill="none" stroke="#000000" points="43.5,-237.5 43.5,-267.5 248.5,-267.5 248.5,-237.5 43.5,-237.5"/>
<text text-anchor="start" x="50.5" y="-248.9" font-family="Arial" font-size="14.00" fill="#000000">interview_datetime </text>
<text text-anchor="start" x="171.0708" y="-248.9" font-family="Arial" font-size="14.00" fill="#666666">[datetime]</text>
<polygon fill="none" stroke="#000000" points="43.5,-207.5 43.5,-237.5 248.5,-237.5 248.5,-207.5 43.5,-207.5"/>
<text text-anchor="start" x="50.3212" y="-218.9" font-family="Arial" font-size="14.00" fill="#000000">interivew_status </text>
<text text-anchor="start" x="154.5596" y="-218.9" font-family="Arial" font-size="14.00" fill="#666666">[varchar(255)]</text>
<polygon fill="none" stroke="#000000" points="43.5,-177.5 43.5,-207.5 248.5,-207.5 248.5,-177.5 43.5,-177.5"/>
<text text-anchor="start" x="50.5" y="-188.9" font-family="Arial" font-size="14.00" fill="#000000">user_id </text>
<text text-anchor="start" x="100.2882" y="-188.9" font-family="Arial" font-size="14.00" fill="#666666">[bigint unsigned]</text>
<polygon fill="none" stroke="#000000" points="43.5,-147.5 43.5,-177.5 248.5,-177.5 248.5,-147.5 43.5,-147.5"/>
<text text-anchor="start" x="50.5" y="-158.9" font-family="Arial" font-size="14.00" fill="#000000">company_id </text>
<text text-anchor="start" x="129.8534" y="-158.9" font-family="Arial" font-size="14.00" fill="#666666">[bigint unsigned]</text>
<polygon fill="none" stroke="#000000" points="43.5,-117.5 43.5,-147.5 248.5,-147.5 248.5,-117.5 43.5,-117.5"/>
<text text-anchor="start" x="50.5" y="-128.9" font-family="Arial" font-size="14.00" fill="#000000">created_at </text>
<text text-anchor="start" x="120.528" y="-128.9" font-family="Arial" font-size="14.00" fill="#666666">[timestamp]</text>
<polygon fill="none" stroke="#000000" points="43.5,-87.5 43.5,-117.5 248.5,-117.5 248.5,-87.5 43.5,-87.5"/>
<text text-anchor="start" x="50.5" y="-98.9" font-family="Arial" font-size="14.00" fill="#000000">updated_at </text>
<text text-anchor="start" x="124.4326" y="-98.9" font-family="Arial" font-size="14.00" fill="#666666">[timestamp]</text>
<polygon fill="none" stroke="#000000" points="43.5,-57.5 43.5,-87.5 248.5,-87.5 248.5,-57.5 43.5,-57.5"/>
<text text-anchor="start" x="50.5" y="-68.9" font-family="Arial" font-size="14.00" fill="#000000">deleted_at </text>
<text text-anchor="start" x="119.7566" y="-68.9" font-family="Arial" font-size="14.00" fill="#666666">[datetime]</text>
</g>
<!-- messages&#45;&gt;interviews -->
<g id="edge1" class="edge">
<title>messages:interview_id&#45;&gt;interviews:id</title>
<path fill="none" stroke="#000000" d="M349.5821,-635.59C281.2591,-607.6476 327.6037,-282.5 248.5,-282.5"/>
<polygon fill="#000000" stroke="#000000" points="349.6804,-635.6089 358.649,-641.9188 354.5902,-636.5544 359.5,-637.5 359.5,-637.5 359.5,-637.5 354.5902,-636.5544 360.351,-633.0812 349.6804,-635.6089 349.6804,-635.6089"/>
<text text-anchor="start" x="86.45" y="-647.5" font-family="Arial" font-size="10.00" fill="#000000">FOREIGN KEY (interview_id) REFERENCES interviews (id)</text>
</g>
<!-- users -->
<g id="node3" class="node">
<title>users</title>
<polygon fill="#efefef" stroke="transparent" points="352.5,-297.5 352.5,-332.5 562.5,-332.5 562.5,-297.5 352.5,-297.5"/>
<polygon fill="none" stroke="#000000" points="352.5,-297.5 352.5,-332.5 562.5,-332.5 562.5,-297.5 352.5,-297.5"/>
<text text-anchor="start" x="386.8708" y="-310.3" font-family="Arial Bold" font-size="18.00" fill="#000000">users</text>
<text text-anchor="start" x="430.8754" y="-310.3" font-family="Arial" font-size="14.00" fill="#000000"> </text>
<text text-anchor="start" x="434.766" y="-310.3" font-family="Arial" font-size="14.00" fill="#666666">[BASE TABLE]</text>
<polygon fill="none" stroke="#000000" points="352.5,-267.5 352.5,-297.5 562.5,-297.5 562.5,-267.5 352.5,-267.5"/>
<text text-anchor="start" x="359.5" y="-278.9" font-family="Arial" font-size="14.00" fill="#000000">id </text>
<text text-anchor="start" x="374.2798" y="-278.9" font-family="Arial" font-size="14.00" fill="#666666">[bigint unsigned]</text>
<polygon fill="none" stroke="#000000" points="352.5,-237.5 352.5,-267.5 562.5,-267.5 562.5,-237.5 352.5,-237.5"/>
<text text-anchor="start" x="359.5" y="-248.9" font-family="Arial" font-size="14.00" fill="#000000">name </text>
<text text-anchor="start" x="398.399" y="-248.9" font-family="Arial" font-size="14.00" fill="#666666">[varchar(255)]</text>
<polygon fill="none" stroke="#000000" points="352.5,-207.5 352.5,-237.5 562.5,-237.5 562.5,-207.5 352.5,-207.5"/>
<text text-anchor="start" x="359.5" y="-218.9" font-family="Arial" font-size="14.00" fill="#000000">email </text>
<text text-anchor="start" x="396.8296" y="-218.9" font-family="Arial" font-size="14.00" fill="#666666">[varchar(255)]</text>
<polygon fill="none" stroke="#000000" points="352.5,-177.5 352.5,-207.5 562.5,-207.5 562.5,-177.5 352.5,-177.5"/>
<text text-anchor="start" x="359.5" y="-188.9" font-family="Arial" font-size="14.00" fill="#000000">email_verified_at </text>
<text text-anchor="start" x="469.1802" y="-188.9" font-family="Arial" font-size="14.00" fill="#666666">[timestamp]</text>
<polygon fill="none" stroke="#000000" points="352.5,-147.5 352.5,-177.5 562.5,-177.5 562.5,-147.5 352.5,-147.5"/>
<text text-anchor="start" x="359.5" y="-158.9" font-family="Arial" font-size="14.00" fill="#000000">password </text>
<text text-anchor="start" x="423.2882" y="-158.9" font-family="Arial" font-size="14.00" fill="#666666">[varchar(255)]</text>
<polygon fill="none" stroke="#000000" points="352.5,-117.5 352.5,-147.5 562.5,-147.5 562.5,-117.5 352.5,-117.5"/>
<text text-anchor="start" x="359.0982" y="-128.9" font-family="Arial" font-size="14.00" fill="#000000">remember_token </text>
<text text-anchor="start" x="468.7826" y="-128.9" font-family="Arial" font-size="14.00" fill="#666666">[varchar(100)]</text>
<polygon fill="none" stroke="#000000" points="352.5,-87.5 352.5,-117.5 562.5,-117.5 562.5,-87.5 352.5,-87.5"/>
<text text-anchor="start" x="359.5" y="-98.9" font-family="Arial" font-size="14.00" fill="#000000">created_at </text>
<text text-anchor="start" x="429.528" y="-98.9" font-family="Arial" font-size="14.00" fill="#666666">[timestamp]</text>
<polygon fill="none" stroke="#000000" points="352.5,-57.5 352.5,-87.5 562.5,-87.5 562.5,-57.5 352.5,-57.5"/>
<text text-anchor="start" x="359.5" y="-68.9" font-family="Arial" font-size="14.00" fill="#000000">updated_at </text>
<text text-anchor="start" x="433.4326" y="-68.9" font-family="Arial" font-size="14.00" fill="#666666">[timestamp]</text>
</g>
<!-- messages&#45;&gt;users -->
<g id="edge2" class="edge">
<title>messages:user_id&#45;&gt;users:id</title>
<path fill="none" stroke="#000000" d="M564.6467,-606.8059C631.9066,-597.0781 601.5816,-487.446 554.5,-427 497.6009,-353.9499 409.3991,-449.0501 352.5,-376 326.9644,-343.2159 310.9444,-282.5 352.5,-282.5"/>
<polygon fill="#000000" stroke="#000000" points="564.4767,-606.8175 554.1929,-603.0105 559.4883,-607.1587 554.5,-607.5 554.5,-607.5 554.5,-607.5 559.4883,-607.1587 554.8071,-611.9895 564.4767,-606.8175 564.4767,-606.8175"/>
<text text-anchor="start" x="561.445" y="-617.5" font-family="Arial" font-size="10.00" fill="#000000">FOREIGN KEY (user_id) REFERENCES users (id)</text>
</g>
<!-- companies -->
<g id="node4" class="node">
<title>companies</title>
<polygon fill="#efefef" stroke="transparent" points="666.5,-312.5 666.5,-347.5 868.5,-347.5 868.5,-312.5 666.5,-312.5"/>
<polygon fill="none" stroke="#000000" points="666.5,-312.5 666.5,-347.5 868.5,-347.5 868.5,-312.5 666.5,-312.5"/>
<text text-anchor="start" x="675.3644" y="-325.3" font-family="Arial Bold" font-size="18.00" fill="#000000">companies</text>
<text text-anchor="start" x="762.3818" y="-325.3" font-family="Arial" font-size="14.00" fill="#000000"> </text>
<text text-anchor="start" x="766.2724" y="-325.3" font-family="Arial" font-size="14.00" fill="#666666">[BASE TABLE]</text>
<polygon fill="none" stroke="#000000" points="666.5,-282.5 666.5,-312.5 868.5,-312.5 868.5,-282.5 666.5,-282.5"/>
<text text-anchor="start" x="673.5" y="-293.9" font-family="Arial" font-size="14.00" fill="#000000">id </text>
<text text-anchor="start" x="688.2798" y="-293.9" font-family="Arial" font-size="14.00" fill="#666666">[bigint unsigned]</text>
<polygon fill="none" stroke="#000000" points="666.5,-252.5 666.5,-282.5 868.5,-282.5 868.5,-252.5 666.5,-252.5"/>
<text text-anchor="start" x="673.5" y="-263.9" font-family="Arial" font-size="14.00" fill="#000000">name </text>
<text text-anchor="start" x="712.399" y="-263.9" font-family="Arial" font-size="14.00" fill="#666666">[varchar(255)]</text>
<polygon fill="none" stroke="#000000" points="666.5,-222.5 666.5,-252.5 868.5,-252.5 868.5,-222.5 666.5,-222.5"/>
<text text-anchor="start" x="673.5" y="-233.9" font-family="Arial" font-size="14.00" fill="#000000">email </text>
<text text-anchor="start" x="710.8296" y="-233.9" font-family="Arial" font-size="14.00" fill="#666666">[varchar(255)]</text>
<polygon fill="none" stroke="#000000" points="666.5,-192.5 666.5,-222.5 868.5,-222.5 868.5,-192.5 666.5,-192.5"/>
<text text-anchor="start" x="673.5" y="-203.9" font-family="Arial" font-size="14.00" fill="#000000">password </text>
<text text-anchor="start" x="737.2882" y="-203.9" font-family="Arial" font-size="14.00" fill="#666666">[varchar(255)]</text>
<polygon fill="none" stroke="#000000" points="666.5,-162.5 666.5,-192.5 868.5,-192.5 868.5,-162.5 666.5,-162.5"/>
<text text-anchor="start" x="673.5" y="-173.9" font-family="Arial" font-size="14.00" fill="#000000">profile </text>
<text text-anchor="start" x="715.5028" y="-173.9" font-family="Arial" font-size="14.00" fill="#666666">[varchar(255)]</text>
<polygon fill="none" stroke="#000000" points="666.5,-132.5 666.5,-162.5 868.5,-162.5 868.5,-132.5 666.5,-132.5"/>
<text text-anchor="start" x="673.3773" y="-143.9" font-family="Arial" font-size="14.00" fill="#000000">is_enable_interview </text>
<text text-anchor="start" x="800.1781" y="-143.9" font-family="Arial" font-size="14.00" fill="#666666">[tinyint(1)]</text>
<polygon fill="none" stroke="#000000" points="666.5,-102.5 666.5,-132.5 868.5,-132.5 868.5,-102.5 666.5,-102.5"/>
<text text-anchor="start" x="673.5" y="-113.9" font-family="Arial" font-size="14.00" fill="#000000">created_at </text>
<text text-anchor="start" x="743.528" y="-113.9" font-family="Arial" font-size="14.00" fill="#666666">[timestamp]</text>
<polygon fill="none" stroke="#000000" points="666.5,-72.5 666.5,-102.5 868.5,-102.5 868.5,-72.5 666.5,-72.5"/>
<text text-anchor="start" x="673.5" y="-83.9" font-family="Arial" font-size="14.00" fill="#000000">updated_at </text>
<text text-anchor="start" x="747.4326" y="-83.9" font-family="Arial" font-size="14.00" fill="#666666">[timestamp]</text>
<polygon fill="none" stroke="#000000" points="666.5,-42.5 666.5,-72.5 868.5,-72.5 868.5,-42.5 666.5,-42.5"/>
<text text-anchor="start" x="673.5" y="-53.9" font-family="Arial" font-size="14.00" fill="#000000">deleted_at </text>
<text text-anchor="start" x="742.7566" y="-53.9" font-family="Arial" font-size="14.00" fill="#666666">[datetime]</text>
</g>
<!-- messages&#45;&gt;companies -->
<g id="edge3" class="edge">
<title>messages:company_id&#45;&gt;companies:id</title>
<path fill="none" stroke="#000000" d="M564.3853,-575.2462C619.4395,-548.7474 603.0186,-297.5 666.5,-297.5"/>
<polygon fill="#000000" stroke="#000000" points="564.2498,-575.277 553.4996,-573.1126 559.3749,-576.3885 554.5,-577.5 554.5,-577.5 554.5,-577.5 559.3749,-576.3885 555.5004,-581.8874 564.2498,-575.277 564.2498,-575.277"/>
<text text-anchor="start" x="561.938" y="-587.5" font-family="Arial" font-size="10.00" fill="#000000">FOREIGN KEY (company_id) REFERENCES companies (id)</text>
</g>
</g>
</svg>
