<?xml version="1.0" encoding="UTF-8" standalone="no"?>
<!DOCTYPE svg PUBLIC "-//W3C//DTD SVG 1.1//EN"
 "http://www.w3.org/Graphics/SVG/1.1/DTD/svg11.dtd">
<!-- Generated by graphviz version 2.40.1 (20161225.0304)
 -->
<!-- Title: messages Pages: 1 -->
<svg width="932pt" height="832pt"
 viewBox="0.00 0.00 931.50 832.00" xmlns="http://www.w3.org/2000/svg" xmlns:xlink="http://www.w3.org/1999/xlink">
<g id="graph0" class="graph" transform="scale(1 1) rotate(0) translate(4 828)">
<title>messages</title>
<polygon fill="#ffffff" stroke="transparent" points="-4,4 -4,-828 927.5,-828 927.5,4 -4,4"/>
<!-- messages -->
<g id="node1" class="node">
<title>messages</title>
<polygon fill="#efefef" stroke="transparent" points="359.5,-742.5 359.5,-777.5 554.5,-777.5 554.5,-742.5 359.5,-742.5"/>
<polygon fill="none" stroke="#000000" points="359.5,-742.5 359.5,-777.5 554.5,-777.5 554.5,-742.5 359.5,-742.5"/>
<text text-anchor="start" x="367.3646" y="-755.3" font-family="Arial Bold" font-size="18.00" fill="#000000">messages</text>
<text text-anchor="start" x="449.3816" y="-755.3" font-family="Arial" font-size="14.00" fill="#000000"> </text>
<text text-anchor="start" x="453.2722" y="-755.3" font-family="Arial" font-size="14.00" fill="#666666">[BASE TABLE]</text>
<polygon fill="none" stroke="#000000" points="359.5,-712.5 359.5,-742.5 554.5,-742.5 554.5,-712.5 359.5,-712.5"/>
<text text-anchor="start" x="366.5" y="-723.9" font-family="Arial" font-size="14.00" fill="#000000">id </text>
<text text-anchor="start" x="381.2798" y="-723.9" font-family="Arial" font-size="14.00" fill="#666666">[bigint unsigned]</text>
<polygon fill="none" stroke="#000000" points="359.5,-682.5 359.5,-712.5 554.5,-712.5 554.5,-682.5 359.5,-682.5"/>
<text text-anchor="start" x="366.5" y="-693.9" font-family="Arial" font-size="14.00" fill="#000000">body </text>
<text text-anchor="start" x="400.7384" y="-693.9" font-family="Arial" font-size="14.00" fill="#666666">[varchar(255)]</text>
<polygon fill="none" stroke="#000000" points="359.5,-652.5 359.5,-682.5 554.5,-682.5 554.5,-652.5 359.5,-652.5"/>
<text text-anchor="start" x="366.5" y="-663.9" font-family="Arial" font-size="14.00" fill="#000000">interview_id </text>
<text text-anchor="start" x="444.2812" y="-663.9" font-family="Arial" font-size="14.00" fill="#666666">[bigint unsigned]</text>
<polygon fill="none" stroke="#000000" points="359.5,-622.5 359.5,-652.5 554.5,-652.5 554.5,-622.5 359.5,-622.5"/>
<text text-anchor="start" x="366.5" y="-633.9" font-family="Arial" font-size="14.00" fill="#000000">user_id </text>
<text text-anchor="start" x="416.2882" y="-633.9" font-family="Arial" font-size="14.00" fill="#666666">[bigint unsigned]</text>
<polygon fill="none" stroke="#000000" points="359.5,-592.5 359.5,-622.5 554.5,-622.5 554.5,-592.5 359.5,-592.5"/>
<text text-anchor="start" x="366.3605" y="-603.9" font-family="Arial" font-size="14.00" fill="#000000">company_id </text>
<text text-anchor="start" x="445.7139" y="-603.9" font-family="Arial" font-size="14.00" fill="#666666">[bigint unsigned]</text>
<polygon fill="none" stroke="#000000" points="359.5,-562.5 359.5,-592.5 554.5,-592.5 554.5,-562.5 359.5,-562.5"/>
<text text-anchor="start" x="366.5" y="-573.9" font-family="Arial" font-size="14.00" fill="#000000">created_at </text>
<text text-anchor="start" x="436.528" y="-573.9" font-family="Arial" font-size="14.00" fill="#666666">[datetime]</text>
<polygon fill="none" stroke="#000000" points="359.5,-532.5 359.5,-562.5 554.5,-562.5 554.5,-532.5 359.5,-532.5"/>
<text text-anchor="start" x="366.5" y="-543.9" font-family="Arial" font-size="14.00" fill="#000000">updated_at </text>
<text text-anchor="start" x="440.4326" y="-543.9" font-family="Arial" font-size="14.00" fill="#666666">[datetime]</text>
<polygon fill="none" stroke="#000000" points="359.5,-502.5 359.5,-532.5 554.5,-532.5 554.5,-502.5 359.5,-502.5"/>
<text text-anchor="start" x="366.5" y="-513.9" font-family="Arial" font-size="14.00" fill="#000000">deleted_at </text>
<text text-anchor="start" x="435.7566" y="-513.9" font-family="Arial" font-size="14.00" fill="#666666">[datetime]</text>
<polygon fill="none" stroke="#000000" stroke-width="3" points="357.5,-501.5 357.5,-779.5 555.5,-779.5 555.5,-501.5 357.5,-501.5"/>
</g>
<!-- interviews -->
<g id="node2" class="node">
<title>interviews</title>
<polygon fill="#efefef" stroke="transparent" points="43.5,-312.5 43.5,-347.5 248.5,-347.5 248.5,-312.5 43.5,-312.5"/>
<polygon fill="none" stroke="#000000" points="43.5,-312.5 43.5,-347.5 248.5,-347.5 248.5,-312.5 43.5,-312.5"/>
<text text-anchor="start" x="57.3753" y="-325.3" font-family="Arial Bold" font-size="18.00" fill="#000000">interviews</text>
<text text-anchor="start" x="137.3709" y="-325.3" font-family="Arial" font-size="14.00" fill="#000000"> </text>
<text text-anchor="start" x="141.2615" y="-325.3" font-family="Arial" font-size="14.00" fill="#666666">[BASE TABLE]</text>
<polygon fill="none" stroke="#000000" points="43.5,-282.5 43.5,-312.5 248.5,-312.5 248.5,-282.5 43.5,-282.5"/>
<text text-anchor="start" x="50.5" y="-293.9" font-family="Arial" font-size="14.00" fill="#000000">id </text>
<text text-anchor="start" x="65.2798" y="-293.9" font-family="Arial" font-size="14.00" fill="#666666">[bigint unsigned]</text>
<polygon fill="none" stroke="#000000" points="43.5,-252.5 43.5,-282.5 248.5,-282.5 248.5,-252.5 43.5,-252.5"/>
<text text-anchor="start" x="50.5" y="-263.9" font-family="Arial" font-size="14.00" fill="#000000">interview_datetime </text>
<text text-anchor="start" x="171.0708" y="-263.9" font-family="Arial" font-size="14.00" fill="#666666">[datetime]</text>
<polygon fill="none" stroke="#000000" points="43.5,-222.5 43.5,-252.5 248.5,-252.5 248.5,-222.5 43.5,-222.5"/>
<text text-anchor="start" x="50.3212" y="-233.9" font-family="Arial" font-size="14.00" fill="#000000">interview_status </text>
<text text-anchor="start" x="154.5596" y="-233.9" font-family="Arial" font-size="14.00" fill="#666666">[varchar(255)]</text>
<polygon fill="none" stroke="#000000" points="43.5,-192.5 43.5,-222.5 248.5,-222.5 248.5,-192.5 43.5,-192.5"/>
<text text-anchor="start" x="50.5" y="-203.9" font-family="Arial" font-size="14.00" fill="#000000">user_id </text>
<text text-anchor="start" x="100.2882" y="-203.9" font-family="Arial" font-size="14.00" fill="#666666">[bigint unsigned]</text>
<polygon fill="none" stroke="#000000" points="43.5,-162.5 43.5,-192.5 248.5,-192.5 248.5,-162.5 43.5,-162.5"/>
<text text-anchor="start" x="50.5" y="-173.9" font-family="Arial" font-size="14.00" fill="#000000">company_id </text>
<text text-anchor="start" x="129.8534" y="-173.9" font-family="Arial" font-size="14.00" fill="#666666">[bigint unsigned]</text>
<polygon fill="none" stroke="#000000" points="43.5,-132.5 43.5,-162.5 248.5,-162.5 248.5,-132.5 43.5,-132.5"/>
<text text-anchor="start" x="50.5" y="-143.9" font-family="Arial" font-size="14.00" fill="#000000">created_at </text>
<text text-anchor="start" x="120.528" y="-143.9" font-family="Arial" font-size="14.00" fill="#666666">[datetime]</text>
<polygon fill="none" stroke="#000000" points="43.5,-102.5 43.5,-132.5 248.5,-132.5 248.5,-102.5 43.5,-102.5"/>
<text text-anchor="start" x="50.5" y="-113.9" font-family="Arial" font-size="14.00" fill="#000000">updated_at </text>
<text text-anchor="start" x="124.4326" y="-113.9" font-family="Arial" font-size="14.00" fill="#666666">[datetime]</text>
<polygon fill="none" stroke="#000000" points="43.5,-72.5 43.5,-102.5 248.5,-102.5 248.5,-72.5 43.5,-72.5"/>
<text text-anchor="start" x="50.5" y="-83.9" font-family="Arial" font-size="14.00" fill="#000000">deleted_at </text>
<text text-anchor="start" x="119.7566" y="-83.9" font-family="Arial" font-size="14.00" fill="#666666">[datetime]</text>
</g>
<!-- messages&#45;&gt;interviews -->
<g id="edge1" class="edge">
<title>messages:interview_id&#45;&gt;interviews:id</title>
<path fill="none" stroke="#000000" d="M349.6566,-665.6837C278.389,-637.7709 330.8216,-297.5 248.5,-297.5"/>
<polygon fill="#000000" stroke="#000000" points="349.666,-665.6854 358.6834,-671.9253 354.583,-666.5927 359.5,-667.5 359.5,-667.5 359.5,-667.5 354.583,-666.5927 360.3166,-663.0747 349.666,-665.6854 349.666,-665.6854"/>
<text text-anchor="start" x="86.45" y="-677.5" font-family="Arial" font-size="10.00" fill="#000000">FOREIGN KEY (interview_id) REFERENCES interviews (id)</text>
</g>
<!-- users -->
<g id="node3" class="node">
<title>users</title>
<polygon fill="#efefef" stroke="transparent" points="352.5,-342.5 352.5,-377.5 562.5,-377.5 562.5,-342.5 352.5,-342.5"/>
<polygon fill="none" stroke="#000000" points="352.5,-342.5 352.5,-377.5 562.5,-377.5 562.5,-342.5 352.5,-342.5"/>
<text text-anchor="start" x="386.8708" y="-355.3" font-family="Arial Bold" font-size="18.00" fill="#000000">users</text>
<text text-anchor="start" x="430.8754" y="-355.3" font-family="Arial" font-size="14.00" fill="#000000"> </text>
<text text-anchor="start" x="434.766" y="-355.3" font-family="Arial" font-size="14.00" fill="#666666">[BASE TABLE]</text>
<polygon fill="none" stroke="#000000" points="352.5,-312.5 352.5,-342.5 562.5,-342.5 562.5,-312.5 352.5,-312.5"/>
<text text-anchor="start" x="359.5" y="-323.9" font-family="Arial" font-size="14.00" fill="#000000">id </text>
<text text-anchor="start" x="374.2798" y="-323.9" font-family="Arial" font-size="14.00" fill="#666666">[bigint unsigned]</text>
<polygon fill="none" stroke="#000000" points="352.5,-282.5 352.5,-312.5 562.5,-312.5 562.5,-282.5 352.5,-282.5"/>
<text text-anchor="start" x="359.5" y="-293.9" font-family="Arial" font-size="14.00" fill="#000000">name </text>
<text text-anchor="start" x="398.399" y="-293.9" font-family="Arial" font-size="14.00" fill="#666666">[varchar(255)]</text>
<polygon fill="none" stroke="#000000" points="352.5,-252.5 352.5,-282.5 562.5,-282.5 562.5,-252.5 352.5,-252.5"/>
<text text-anchor="start" x="359.5" y="-263.9" font-family="Arial" font-size="14.00" fill="#000000">email </text>
<text text-anchor="start" x="396.8296" y="-263.9" font-family="Arial" font-size="14.00" fill="#666666">[varchar(255)]</text>
<polygon fill="none" stroke="#000000" points="352.5,-222.5 352.5,-252.5 562.5,-252.5 562.5,-222.5 352.5,-222.5"/>
<text text-anchor="start" x="359.5" y="-233.9" font-family="Arial" font-size="14.00" fill="#000000">email_verified_at </text>
<text text-anchor="start" x="469.1802" y="-233.9" font-family="Arial" font-size="14.00" fill="#666666">[timestamp]</text>
<polygon fill="none" stroke="#000000" points="352.5,-192.5 352.5,-222.5 562.5,-222.5 562.5,-192.5 352.5,-192.5"/>
<text text-anchor="start" x="359.5" y="-203.9" font-family="Arial" font-size="14.00" fill="#000000">password </text>
<text text-anchor="start" x="423.2882" y="-203.9" font-family="Arial" font-size="14.00" fill="#666666">[varchar(255)]</text>
<polygon fill="none" stroke="#000000" points="352.5,-162.5 352.5,-192.5 562.5,-192.5 562.5,-162.5 352.5,-162.5"/>
<text text-anchor="start" x="359.5" y="-173.9" font-family="Arial" font-size="14.00" fill="#000000">profile </text>
<text text-anchor="start" x="401.5028" y="-173.9" font-family="Arial" font-size="14.00" fill="#666666">[text]</text>
<polygon fill="none" stroke="#000000" points="352.5,-132.5 352.5,-162.5 562.5,-162.5 562.5,-132.5 352.5,-132.5"/>
<text text-anchor="start" x="359.0982" y="-143.9" font-family="Arial" font-size="14.00" fill="#000000">remember_token </text>
<text text-anchor="start" x="468.7826" y="-143.9" font-family="Arial" font-size="14.00" fill="#666666">[varchar(100)]</text>
<polygon fill="none" stroke="#000000" points="352.5,-102.5 352.5,-132.5 562.5,-132.5 562.5,-102.5 352.5,-102.5"/>
<text text-anchor="start" x="359.5" y="-113.9" font-family="Arial" font-size="14.00" fill="#000000">created_at </text>
<text text-anchor="start" x="429.528" y="-113.9" font-family="Arial" font-size="14.00" fill="#666666">[datetime]</text>
<polygon fill="none" stroke="#000000" points="352.5,-72.5 352.5,-102.5 562.5,-102.5 562.5,-72.5 352.5,-72.5"/>
<text text-anchor="start" x="359.5" y="-83.9" font-family="Arial" font-size="14.00" fill="#000000">updated_at </text>
<text text-anchor="start" x="433.4326" y="-83.9" font-family="Arial" font-size="14.00" fill="#666666">[datetime]</text>
<polygon fill="none" stroke="#000000" points="352.5,-42.5 352.5,-72.5 562.5,-72.5 562.5,-42.5 352.5,-42.5"/>
<text text-anchor="start" x="359.5" y="-53.9" font-family="Arial" font-size="14.00" fill="#000000">deleted_at </text>
<text text-anchor="start" x="428.7566" y="-53.9" font-family="Arial" font-size="14.00" fill="#666666">[datetime]</text>
</g>
<!-- messages&#45;&gt;users -->
<g id="edge2" class="edge">
<title>messages:user_id&#45;&gt;users:id</title>
<path fill="none" stroke="#000000" d="M564.6595,-636.7956C632.0966,-626.9247 603.6956,-515.7383 554.5,-457 495.9467,-387.0889 411.0533,-490.9111 352.5,-421 325.8178,-389.1421 310.9444,-327.5 352.5,-327.5"/>
<polygon fill="#000000" stroke="#000000" points="564.476,-636.8082 554.1887,-633.0108 559.488,-637.1541 554.5,-637.5 554.5,-637.5 554.5,-637.5 559.488,-637.1541 554.8113,-641.9892 564.476,-636.8082 564.476,-636.8082"/>
<text text-anchor="start" x="561.445" y="-647.5" font-family="Arial" font-size="10.00" fill="#000000">FOREIGN KEY (user_id) REFERENCES users (id)</text>
</g>
<!-- companies -->
<g id="node4" class="node">
<title>companies</title>
<polygon fill="#efefef" stroke="transparent" points="666.5,-342.5 666.5,-377.5 880.5,-377.5 880.5,-342.5 666.5,-342.5"/>
<polygon fill="none" stroke="#000000" points="666.5,-342.5 666.5,-377.5 880.5,-377.5 880.5,-342.5 666.5,-342.5"/>
<text text-anchor="start" x="681.3644" y="-355.3" font-family="Arial Bold" font-size="18.00" fill="#000000">companies</text>
<text text-anchor="start" x="768.3818" y="-355.3" font-family="Arial" font-size="14.00" fill="#000000"> </text>
<text text-anchor="start" x="772.2724" y="-355.3" font-family="Arial" font-size="14.00" fill="#666666">[BASE TABLE]</text>
<polygon fill="none" stroke="#000000" points="666.5,-312.5 666.5,-342.5 880.5,-342.5 880.5,-312.5 666.5,-312.5"/>
<text text-anchor="start" x="673.5" y="-323.9" font-family="Arial" font-size="14.00" fill="#000000">id </text>
<text text-anchor="start" x="688.2798" y="-323.9" font-family="Arial" font-size="14.00" fill="#666666">[bigint unsigned]</text>
<polygon fill="none" stroke="#000000" points="666.5,-282.5 666.5,-312.5 880.5,-312.5 880.5,-282.5 666.5,-282.5"/>
<text text-anchor="start" x="673.5" y="-293.9" font-family="Arial" font-size="14.00" fill="#000000">name </text>
<text text-anchor="start" x="712.399" y="-293.9" font-family="Arial" font-size="14.00" fill="#666666">[varchar(255)]</text>
<polygon fill="none" stroke="#000000" points="666.5,-252.5 666.5,-282.5 880.5,-282.5 880.5,-252.5 666.5,-252.5"/>
<text text-anchor="start" x="673.5" y="-263.9" font-family="Arial" font-size="14.00" fill="#000000">email </text>
<text text-anchor="start" x="710.8296" y="-263.9" font-family="Arial" font-size="14.00" fill="#666666">[varchar(255)]</text>
<polygon fill="none" stroke="#000000" points="666.5,-222.5 666.5,-252.5 880.5,-252.5 880.5,-222.5 666.5,-222.5"/>
<text text-anchor="start" x="673.5" y="-233.9" font-family="Arial" font-size="14.00" fill="#000000">password </text>
<text text-anchor="start" x="737.2882" y="-233.9" font-family="Arial" font-size="14.00" fill="#666666">[varchar(255)]</text>
<polygon fill="none" stroke="#000000" points="666.5,-192.5 666.5,-222.5 880.5,-222.5 880.5,-192.5 666.5,-192.5"/>
<text text-anchor="start" x="673.5" y="-203.9" font-family="Arial" font-size="14.00" fill="#000000">profile </text>
<text text-anchor="start" x="715.5028" y="-203.9" font-family="Arial" font-size="14.00" fill="#666666">[varchar(255)]</text>
<polygon fill="none" stroke="#000000" points="666.5,-162.5 666.5,-192.5 880.5,-192.5 880.5,-162.5 666.5,-162.5"/>
<text text-anchor="start" x="673.5" y="-173.9" font-family="Arial" font-size="14.00" fill="#000000">is_enable_interview </text>
<text text-anchor="start" x="800.3008" y="-173.9" font-family="Arial" font-size="14.00" fill="#666666">[tinyint(1)]</text>
<polygon fill="none" stroke="#000000" points="666.5,-132.5 666.5,-162.5 880.5,-162.5 880.5,-132.5 666.5,-132.5"/>
<text text-anchor="start" x="673.141" y="-143.9" font-family="Arial" font-size="14.00" fill="#000000">enable_interview_datetime </text>
<text text-anchor="start" x="843.514" y="-143.9" font-family="Arial" font-size="14.00" fill="#666666">[text]</text>
<polygon fill="none" stroke="#000000" points="666.5,-102.5 666.5,-132.5 880.5,-132.5 880.5,-102.5 666.5,-102.5"/>
<text text-anchor="start" x="673.5" y="-113.9" font-family="Arial" font-size="14.00" fill="#000000">created_at </text>
<text text-anchor="start" x="743.528" y="-113.9" font-family="Arial" font-size="14.00" fill="#666666">[datetime]</text>
<polygon fill="none" stroke="#000000" points="666.5,-72.5 666.5,-102.5 880.5,-102.5 880.5,-72.5 666.5,-72.5"/>
<text text-anchor="start" x="673.5" y="-83.9" font-family="Arial" font-size="14.00" fill="#000000">updated_at </text>
<text text-anchor="start" x="747.4326" y="-83.9" font-family="Arial" font-size="14.00" fill="#666666">[datetime]</text>
<polygon fill="none" stroke="#000000" points="666.5,-42.5 666.5,-72.5 880.5,-72.5 880.5,-42.5 666.5,-42.5"/>
<text text-anchor="start" x="673.5" y="-53.9" font-family="Arial" font-size="14.00" fill="#000000">deleted_at </text>
<text text-anchor="start" x="742.7566" y="-53.9" font-family="Arial" font-size="14.00" fill="#666666">[datetime]</text>
</g>
<!-- messages&#45;&gt;companies -->
<g id="edge3" class="edge">
<title>messages:company_id&#45;&gt;companies:id</title>
<path fill="none" stroke="#000000" d="M564.3853,-605.2462C619.4395,-578.7474 603.0186,-327.5 666.5,-327.5"/>
<polygon fill="#000000" stroke="#000000" points="564.2498,-605.277 553.4996,-603.1126 559.3749,-606.3885 554.5,-607.5 554.5,-607.5 554.5,-607.5 559.3749,-606.3885 555.5004,-611.8874 564.2498,-605.277 564.2498,-605.277"/>
<text text-anchor="start" x="561.938" y="-617.5" font-family="Arial" font-size="10.00" fill="#000000">FOREIGN KEY (company_id) REFERENCES companies (id)</text>
</g>
</g>
</svg>
