<?xml version="1.0" encoding="UTF-8" standalone="no"?>
<!DOCTYPE svg PUBLIC "-//W3C//DTD SVG 1.1//EN"
 "http://www.w3.org/Graphics/SVG/1.1/DTD/svg11.dtd">
<!-- Generated by graphviz version 2.40.1 (20161225.0304)
 -->
<!-- Title: example_app Pages: 1 -->
<svg width="1895pt" height="1253pt"
 viewBox="0.00 0.00 1894.50 1253.00" xmlns="http://www.w3.org/2000/svg" xmlns:xlink="http://www.w3.org/1999/xlink">
<g id="graph0" class="graph" transform="scale(1 1) rotate(0) translate(4 1249)">
<title>example_app</title>
<polygon fill="#ffffff" stroke="transparent" points="-4,4 -4,-1249 1890.5,-1249 1890.5,4 -4,4"/>
<!-- companies -->
<g id="node1" class="node">
<title>companies</title>
<polygon fill="#efefef" stroke="transparent" points="459,-312.5 459,-347.5 661,-347.5 661,-312.5 459,-312.5"/>
<polygon fill="none" stroke="#000000" points="459,-312.5 459,-347.5 661,-347.5 661,-312.5 459,-312.5"/>
<text text-anchor="start" x="467.8644" y="-325.3" font-family="Arial Bold" font-size="18.00" fill="#000000">companies</text>
<text text-anchor="start" x="554.8818" y="-325.3" font-family="Arial" font-size="14.00" fill="#000000"> </text>
<text text-anchor="start" x="558.7724" y="-325.3" font-family="Arial" font-size="14.00" fill="#666666">[BASE TABLE]</text>
<polygon fill="none" stroke="#000000" points="459,-282.5 459,-312.5 661,-312.5 661,-282.5 459,-282.5"/>
<text text-anchor="start" x="466" y="-293.9" font-family="Arial" font-size="14.00" fill="#000000">id </text>
<text text-anchor="start" x="480.7798" y="-293.9" font-family="Arial" font-size="14.00" fill="#666666">[bigint unsigned]</text>
<polygon fill="none" stroke="#000000" points="459,-252.5 459,-282.5 661,-282.5 661,-252.5 459,-252.5"/>
<text text-anchor="start" x="466" y="-263.9" font-family="Arial" font-size="14.00" fill="#000000">name </text>
<text text-anchor="start" x="504.899" y="-263.9" font-family="Arial" font-size="14.00" fill="#666666">[varchar(255)]</text>
<polygon fill="none" stroke="#000000" points="459,-222.5 459,-252.5 661,-252.5 661,-222.5 459,-222.5"/>
<text text-anchor="start" x="466" y="-233.9" font-family="Arial" font-size="14.00" fill="#000000">email </text>
<text text-anchor="start" x="503.3296" y="-233.9" font-family="Arial" font-size="14.00" fill="#666666">[varchar(255)]</text>
<polygon fill="none" stroke="#000000" points="459,-192.5 459,-222.5 661,-222.5 661,-192.5 459,-192.5"/>
<text text-anchor="start" x="466" y="-203.9" font-family="Arial" font-size="14.00" fill="#000000">password </text>
<text text-anchor="start" x="529.7882" y="-203.9" font-family="Arial" font-size="14.00" fill="#666666">[varchar(255)]</text>
<polygon fill="none" stroke="#000000" points="459,-162.5 459,-192.5 661,-192.5 661,-162.5 459,-162.5"/>
<text text-anchor="start" x="466" y="-173.9" font-family="Arial" font-size="14.00" fill="#000000">profile </text>
<text text-anchor="start" x="508.0028" y="-173.9" font-family="Arial" font-size="14.00" fill="#666666">[varchar(255)]</text>
<polygon fill="none" stroke="#000000" points="459,-132.5 459,-162.5 661,-162.5 661,-132.5 459,-132.5"/>
<text text-anchor="start" x="465.8773" y="-143.9" font-family="Arial" font-size="14.00" fill="#000000">is_enable_interview </text>
<text text-anchor="start" x="592.6781" y="-143.9" font-family="Arial" font-size="14.00" fill="#666666">[tinyint(1)]</text>
<polygon fill="none" stroke="#000000" points="459,-102.5 459,-132.5 661,-132.5 661,-102.5 459,-102.5"/>
<text text-anchor="start" x="466" y="-113.9" font-family="Arial" font-size="14.00" fill="#000000">created_at </text>
<text text-anchor="start" x="536.028" y="-113.9" font-family="Arial" font-size="14.00" fill="#666666">[timestamp]</text>
<polygon fill="none" stroke="#000000" points="459,-72.5 459,-102.5 661,-102.5 661,-72.5 459,-72.5"/>
<text text-anchor="start" x="466" y="-83.9" font-family="Arial" font-size="14.00" fill="#000000">updated_at </text>
<text text-anchor="start" x="539.9326" y="-83.9" font-family="Arial" font-size="14.00" fill="#666666">[timestamp]</text>
<polygon fill="none" stroke="#000000" points="459,-42.5 459,-72.5 661,-72.5 661,-42.5 459,-42.5"/>
<text text-anchor="start" x="466" y="-53.9" font-family="Arial" font-size="14.00" fill="#000000">deleted_at </text>
<text text-anchor="start" x="535.2566" y="-53.9" font-family="Arial" font-size="14.00" fill="#666666">[datetime]</text>
</g>
<!-- failed_jobs -->
<g id="node2" class="node">
<title>failed_jobs</title>
<polygon fill="#efefef" stroke="transparent" points="584,-1121.5 584,-1156.5 781,-1156.5 781,-1121.5 584,-1121.5"/>
<polygon fill="none" stroke="#000000" points="584,-1121.5 584,-1156.5 781,-1156.5 781,-1121.5 584,-1121.5"/>
<text text-anchor="start" x="590.8621" y="-1134.3" font-family="Arial Bold" font-size="18.00" fill="#000000">failed_jobs</text>
<text text-anchor="start" x="676.8841" y="-1134.3" font-family="Arial" font-size="14.00" fill="#000000"> </text>
<text text-anchor="start" x="680.7747" y="-1134.3" font-family="Arial" font-size="14.00" fill="#666666">[BASE TABLE]</text>
<polygon fill="none" stroke="#000000" points="584,-1091.5 584,-1121.5 781,-1121.5 781,-1091.5 584,-1091.5"/>
<text text-anchor="start" x="591" y="-1102.9" font-family="Arial" font-size="14.00" fill="#000000">id </text>
<text text-anchor="start" x="605.7798" y="-1102.9" font-family="Arial" font-size="14.00" fill="#666666">[bigint unsigned]</text>
<polygon fill="none" stroke="#000000" points="584,-1061.5 584,-1091.5 781,-1091.5 781,-1061.5 584,-1061.5"/>
<text text-anchor="start" x="591" y="-1072.9" font-family="Arial" font-size="14.00" fill="#000000">uuid </text>
<text text-anchor="start" x="621.345" y="-1072.9" font-family="Arial" font-size="14.00" fill="#666666">[varchar(255)]</text>
<polygon fill="none" stroke="#000000" points="584,-1031.5 584,-1061.5 781,-1061.5 781,-1031.5 584,-1031.5"/>
<text text-anchor="start" x="591" y="-1042.9" font-family="Arial" font-size="14.00" fill="#000000">connection </text>
<text text-anchor="start" x="662.5834" y="-1042.9" font-family="Arial" font-size="14.00" fill="#666666">[text]</text>
<polygon fill="none" stroke="#000000" points="584,-1001.5 584,-1031.5 781,-1031.5 781,-1001.5 584,-1001.5"/>
<text text-anchor="start" x="591" y="-1012.9" font-family="Arial" font-size="14.00" fill="#000000">queue </text>
<text text-anchor="start" x="633.8036" y="-1012.9" font-family="Arial" font-size="14.00" fill="#666666">[text]</text>
<polygon fill="none" stroke="#000000" points="584,-971.5 584,-1001.5 781,-1001.5 781,-971.5 584,-971.5"/>
<text text-anchor="start" x="591" y="-982.9" font-family="Arial" font-size="14.00" fill="#000000">payload </text>
<text text-anchor="start" x="643.9102" y="-982.9" font-family="Arial" font-size="14.00" fill="#666666">[longtext]</text>
<polygon fill="none" stroke="#000000" points="584,-941.5 584,-971.5 781,-971.5 781,-941.5 584,-941.5"/>
<text text-anchor="start" x="591" y="-952.9" font-family="Arial" font-size="14.00" fill="#000000">exception </text>
<text text-anchor="start" x="654.8008" y="-952.9" font-family="Arial" font-size="14.00" fill="#666666">[longtext]</text>
<polygon fill="none" stroke="#000000" points="584,-911.5 584,-941.5 781,-941.5 781,-911.5 584,-911.5"/>
<text text-anchor="start" x="591" y="-922.9" font-family="Arial" font-size="14.00" fill="#000000">failed_at </text>
<text text-anchor="start" x="647.798" y="-922.9" font-family="Arial" font-size="14.00" fill="#666666">[timestamp]</text>
</g>
<!-- favorite_companies -->
<g id="node3" class="node">
<title>favorite_companies</title>
<polygon fill="#efefef" stroke="transparent" points="589,-679.5 589,-714.5 856,-714.5 856,-679.5 589,-679.5"/>
<polygon fill="none" stroke="#000000" points="589,-679.5 589,-714.5 856,-714.5 856,-679.5 589,-679.5"/>
<text text-anchor="start" x="595.8566" y="-692.3" font-family="Arial Bold" font-size="18.00" fill="#000000">favorite_companies</text>
<text text-anchor="start" x="751.8896" y="-692.3" font-family="Arial" font-size="14.00" fill="#000000"> </text>
<text text-anchor="start" x="755.7802" y="-692.3" font-family="Arial" font-size="14.00" fill="#666666">[BASE TABLE]</text>
<polygon fill="none" stroke="#000000" points="589,-649.5 589,-679.5 856,-679.5 856,-649.5 589,-649.5"/>
<text text-anchor="start" x="596" y="-660.9" font-family="Arial" font-size="14.00" fill="#000000">id </text>
<text text-anchor="start" x="610.7798" y="-660.9" font-family="Arial" font-size="14.00" fill="#666666">[bigint unsigned]</text>
<polygon fill="none" stroke="#000000" points="589,-619.5 589,-649.5 856,-649.5 856,-619.5 589,-619.5"/>
<text text-anchor="start" x="596" y="-630.9" font-family="Arial" font-size="14.00" fill="#000000">user_id </text>
<text text-anchor="start" x="645.7882" y="-630.9" font-family="Arial" font-size="14.00" fill="#666666">[bigint unsigned]</text>
<polygon fill="none" stroke="#000000" points="589,-589.5 589,-619.5 856,-619.5 856,-589.5 589,-589.5"/>
<text text-anchor="start" x="596" y="-600.9" font-family="Arial" font-size="14.00" fill="#000000">company_id </text>
<text text-anchor="start" x="675.3534" y="-600.9" font-family="Arial" font-size="14.00" fill="#666666">[bigint unsigned]</text>
<polygon fill="none" stroke="#000000" points="589,-559.5 589,-589.5 856,-589.5 856,-559.5 589,-559.5"/>
<text text-anchor="start" x="596" y="-570.9" font-family="Arial" font-size="14.00" fill="#000000">created_at </text>
<text text-anchor="start" x="666.028" y="-570.9" font-family="Arial" font-size="14.00" fill="#666666">[timestamp]</text>
<polygon fill="none" stroke="#000000" points="589,-529.5 589,-559.5 856,-559.5 856,-529.5 589,-529.5"/>
<text text-anchor="start" x="596" y="-540.9" font-family="Arial" font-size="14.00" fill="#000000">updated_at </text>
<text text-anchor="start" x="669.9326" y="-540.9" font-family="Arial" font-size="14.00" fill="#666666">[timestamp]</text>
<polygon fill="none" stroke="#000000" points="589,-499.5 589,-529.5 856,-529.5 856,-499.5 589,-499.5"/>
<text text-anchor="start" x="596" y="-510.9" font-family="Arial" font-size="14.00" fill="#000000">deleted_at </text>
<text text-anchor="start" x="665.2566" y="-510.9" font-family="Arial" font-size="14.00" fill="#666666">[datetime]</text>
</g>
<!-- favorite_companies&#45;&gt;companies -->
<g id="edge1" class="edge">
<title>favorite_companies:company_id&#45;&gt;companies:id</title>
<path fill="none" stroke="#000000" d="M578.8472,-603.6788C527.8395,-594.6768 564.0983,-513.6074 589,-457 606.4797,-417.2646 643.5203,-430.7354 661,-391 677.7329,-352.9622 702.5556,-297.5 661,-297.5"/>
<polygon fill="#000000" stroke="#000000" points="579.0326,-603.6937 588.6372,-608.9854 584.0163,-604.0969 589,-604.5 589,-604.5 589,-604.5 584.0163,-604.0969 589.3628,-600.0146 579.0326,-603.6937 579.0326,-603.6937"/>
<text text-anchor="start" x="596.438" y="-614.5" font-family="Arial" font-size="10.00" fill="#000000">FOREIGN KEY (company_id) REFERENCES companies (id)</text>
</g>
<!-- users -->
<g id="node10" class="node">
<title>users</title>
<polygon fill="#efefef" stroke="transparent" points="780,-312.5 780,-347.5 990,-347.5 990,-312.5 780,-312.5"/>
<polygon fill="none" stroke="#000000" points="780,-312.5 780,-347.5 990,-347.5 990,-312.5 780,-312.5"/>
<text text-anchor="start" x="814.3708" y="-325.3" font-family="Arial Bold" font-size="18.00" fill="#000000">users</text>
<text text-anchor="start" x="858.3754" y="-325.3" font-family="Arial" font-size="14.00" fill="#000000"> </text>
<text text-anchor="start" x="862.266" y="-325.3" font-family="Arial" font-size="14.00" fill="#666666">[BASE TABLE]</text>
<polygon fill="none" stroke="#000000" points="780,-282.5 780,-312.5 990,-312.5 990,-282.5 780,-282.5"/>
<text text-anchor="start" x="787" y="-293.9" font-family="Arial" font-size="14.00" fill="#000000">id </text>
<text text-anchor="start" x="801.7798" y="-293.9" font-family="Arial" font-size="14.00" fill="#666666">[bigint unsigned]</text>
<polygon fill="none" stroke="#000000" points="780,-252.5 780,-282.5 990,-282.5 990,-252.5 780,-252.5"/>
<text text-anchor="start" x="787" y="-263.9" font-family="Arial" font-size="14.00" fill="#000000">name </text>
<text text-anchor="start" x="825.899" y="-263.9" font-family="Arial" font-size="14.00" fill="#666666">[varchar(255)]</text>
<polygon fill="none" stroke="#000000" points="780,-222.5 780,-252.5 990,-252.5 990,-222.5 780,-222.5"/>
<text text-anchor="start" x="787" y="-233.9" font-family="Arial" font-size="14.00" fill="#000000">email </text>
<text text-anchor="start" x="824.3296" y="-233.9" font-family="Arial" font-size="14.00" fill="#666666">[varchar(255)]</text>
<polygon fill="none" stroke="#000000" points="780,-192.5 780,-222.5 990,-222.5 990,-192.5 780,-192.5"/>
<text text-anchor="start" x="787" y="-203.9" font-family="Arial" font-size="14.00" fill="#000000">email_verified_at </text>
<text text-anchor="start" x="896.6802" y="-203.9" font-family="Arial" font-size="14.00" fill="#666666">[timestamp]</text>
<polygon fill="none" stroke="#000000" points="780,-162.5 780,-192.5 990,-192.5 990,-162.5 780,-162.5"/>
<text text-anchor="start" x="787" y="-173.9" font-family="Arial" font-size="14.00" fill="#000000">password </text>
<text text-anchor="start" x="850.7882" y="-173.9" font-family="Arial" font-size="14.00" fill="#666666">[varchar(255)]</text>
<polygon fill="none" stroke="#000000" points="780,-132.5 780,-162.5 990,-162.5 990,-132.5 780,-132.5"/>
<text text-anchor="start" x="787" y="-143.9" font-family="Arial" font-size="14.00" fill="#000000">profile </text>
<text text-anchor="start" x="829.0028" y="-143.9" font-family="Arial" font-size="14.00" fill="#666666">[varchar(255)]</text>
<polygon fill="none" stroke="#000000" points="780,-102.5 780,-132.5 990,-132.5 990,-102.5 780,-102.5"/>
<text text-anchor="start" x="786.5982" y="-113.9" font-family="Arial" font-size="14.00" fill="#000000">remember_token </text>
<text text-anchor="start" x="896.2826" y="-113.9" font-family="Arial" font-size="14.00" fill="#666666">[varchar(100)]</text>
<polygon fill="none" stroke="#000000" points="780,-72.5 780,-102.5 990,-102.5 990,-72.5 780,-72.5"/>
<text text-anchor="start" x="787" y="-83.9" font-family="Arial" font-size="14.00" fill="#000000">created_at </text>
<text text-anchor="start" x="857.028" y="-83.9" font-family="Arial" font-size="14.00" fill="#666666">[timestamp]</text>
<polygon fill="none" stroke="#000000" points="780,-42.5 780,-72.5 990,-72.5 990,-42.5 780,-42.5"/>
<text text-anchor="start" x="787" y="-53.9" font-family="Arial" font-size="14.00" fill="#000000">updated_at </text>
<text text-anchor="start" x="860.9326" y="-53.9" font-family="Arial" font-size="14.00" fill="#666666">[timestamp]</text>
</g>
<!-- favorite_companies&#45;&gt;users -->
<g id="edge2" class="edge">
<title>favorite_companies:user_id&#45;&gt;users:id</title>
<path fill="none" stroke="#000000" d="M866.2837,-633.8175C930.5912,-624.6631 887.1981,-525.4132 856,-457 837.4379,-416.2958 798.5621,-431.7042 780,-391 762.7579,-353.1903 738.4444,-297.5 780,-297.5"/>
<polygon fill="#000000" stroke="#000000" points="865.978,-633.8377 855.702,-630.0099 860.989,-634.1688 856,-634.5 856,-634.5 856,-634.5 860.989,-634.1688 856.298,-638.9901 865.978,-633.8377 865.978,-633.8377"/>
<text text-anchor="start" x="862.945" y="-644.5" font-family="Arial" font-size="10.00" fill="#000000">FOREIGN KEY (user_id) REFERENCES users (id)</text>
</g>
<!-- favorite_users -->
<g id="node4" class="node">
<title>favorite_users</title>
<polygon fill="#efefef" stroke="transparent" points="960,-679.5 960,-714.5 1184,-714.5 1184,-679.5 960,-679.5"/>
<polygon fill="none" stroke="#000000" points="960,-679.5 960,-714.5 1184,-714.5 1184,-679.5 960,-679.5"/>
<text text-anchor="start" x="966.863" y="-692.3" font-family="Arial Bold" font-size="18.00" fill="#000000">favorite_users</text>
<text text-anchor="start" x="1079.8832" y="-692.3" font-family="Arial" font-size="14.00" fill="#000000"> </text>
<text text-anchor="start" x="1083.7738" y="-692.3" font-family="Arial" font-size="14.00" fill="#666666">[BASE TABLE]</text>
<polygon fill="none" stroke="#000000" points="960,-649.5 960,-679.5 1184,-679.5 1184,-649.5 960,-649.5"/>
<text text-anchor="start" x="967" y="-660.9" font-family="Arial" font-size="14.00" fill="#000000">id </text>
<text text-anchor="start" x="981.7798" y="-660.9" font-family="Arial" font-size="14.00" fill="#666666">[bigint unsigned]</text>
<polygon fill="none" stroke="#000000" points="960,-619.5 960,-649.5 1184,-649.5 1184,-619.5 960,-619.5"/>
<text text-anchor="start" x="967" y="-630.9" font-family="Arial" font-size="14.00" fill="#000000">company_id </text>
<text text-anchor="start" x="1046.3534" y="-630.9" font-family="Arial" font-size="14.00" fill="#666666">[bigint unsigned]</text>
<polygon fill="none" stroke="#000000" points="960,-589.5 960,-619.5 1184,-619.5 1184,-589.5 960,-589.5"/>
<text text-anchor="start" x="967" y="-600.9" font-family="Arial" font-size="14.00" fill="#000000">user_id </text>
<text text-anchor="start" x="1016.7882" y="-600.9" font-family="Arial" font-size="14.00" fill="#666666">[bigint unsigned]</text>
<polygon fill="none" stroke="#000000" points="960,-559.5 960,-589.5 1184,-589.5 1184,-559.5 960,-559.5"/>
<text text-anchor="start" x="967" y="-570.9" font-family="Arial" font-size="14.00" fill="#000000">created_at </text>
<text text-anchor="start" x="1037.028" y="-570.9" font-family="Arial" font-size="14.00" fill="#666666">[timestamp]</text>
<polygon fill="none" stroke="#000000" points="960,-529.5 960,-559.5 1184,-559.5 1184,-529.5 960,-529.5"/>
<text text-anchor="start" x="967" y="-540.9" font-family="Arial" font-size="14.00" fill="#000000">updated_at </text>
<text text-anchor="start" x="1040.9326" y="-540.9" font-family="Arial" font-size="14.00" fill="#666666">[timestamp]</text>
<polygon fill="none" stroke="#000000" points="960,-499.5 960,-529.5 1184,-529.5 1184,-499.5 960,-499.5"/>
<text text-anchor="start" x="967" y="-510.9" font-family="Arial" font-size="14.00" fill="#000000">deleted_at </text>
<text text-anchor="start" x="1036.2566" y="-510.9" font-family="Arial" font-size="14.00" fill="#666666">[datetime]</text>
</g>
<!-- favorite_users&#45;&gt;companies -->
<g id="edge3" class="edge">
<title>favorite_users:company_id&#45;&gt;companies:id</title>
<path fill="none" stroke="#000000" d="M949.7829,-633.8634C873.3925,-623.5297 974.1378,-490.0275 908,-427 848.9392,-370.7166 796.5441,-435.246 728,-391 685.0482,-363.2741 712.1232,-297.5 661,-297.5"/>
<polygon fill="#000000" stroke="#000000" points="950.0194,-633.878 959.7201,-638.9913 955.0097,-634.189 960,-634.5 960,-634.5 960,-634.5 955.0097,-634.189 960.2799,-630.0087 950.0194,-633.878 950.0194,-633.878"/>
<text text-anchor="start" x="967.438" y="-618.5" font-family="Arial" font-size="10.00" fill="#000000">FOREIGN KEY (company_id) REFERENCES companies (id)</text>
</g>
<!-- favorite_users&#45;&gt;users -->
<g id="edge4" class="edge">
<title>favorite_users:user_id&#45;&gt;users:id</title>
<path fill="none" stroke="#000000" d="M949.9608,-603.7157C900.1773,-595.111 946.908,-517.4408 960,-457 966.8213,-425.5089 983.1787,-422.4911 990,-391 998.7973,-350.3863 1031.5556,-297.5 990,-297.5"/>
<polygon fill="#000000" stroke="#000000" points="950.0304,-603.721 959.6495,-608.9863 955.0152,-604.1105 960,-604.5 960,-604.5 960,-604.5 955.0152,-604.1105 960.3505,-600.0137 950.0304,-603.721 950.0304,-603.721"/>
<text text-anchor="start" x="906.945" y="-588.5" font-family="Arial" font-size="10.00" fill="#000000">FOREIGN KEY (user_id) REFERENCES users (id)</text>
</g>
<!-- interviews -->
<g id="node5" class="node">
<title>interviews</title>
<polygon fill="#efefef" stroke="transparent" points="280,-709.5 280,-744.5 485,-744.5 485,-709.5 280,-709.5"/>
<polygon fill="none" stroke="#000000" points="280,-709.5 280,-744.5 485,-744.5 485,-709.5 280,-709.5"/>
<text text-anchor="start" x="293.8753" y="-722.3" font-family="Arial Bold" font-size="18.00" fill="#000000">interviews</text>
<text text-anchor="start" x="373.8709" y="-722.3" font-family="Arial" font-size="14.00" fill="#000000"> </text>
<text text-anchor="start" x="377.7615" y="-722.3" font-family="Arial" font-size="14.00" fill="#666666">[BASE TABLE]</text>
<polygon fill="none" stroke="#000000" points="280,-679.5 280,-709.5 485,-709.5 485,-679.5 280,-679.5"/>
<text text-anchor="start" x="287" y="-690.9" font-family="Arial" font-size="14.00" fill="#000000">id </text>
<text text-anchor="start" x="301.7798" y="-690.9" font-family="Arial" font-size="14.00" fill="#666666">[bigint unsigned]</text>
<polygon fill="none" stroke="#000000" points="280,-649.5 280,-679.5 485,-679.5 485,-649.5 280,-649.5"/>
<text text-anchor="start" x="287" y="-660.9" font-family="Arial" font-size="14.00" fill="#000000">interview_datetime </text>
<text text-anchor="start" x="407.5708" y="-660.9" font-family="Arial" font-size="14.00" fill="#666666">[datetime]</text>
<polygon fill="none" stroke="#000000" points="280,-619.5 280,-649.5 485,-649.5 485,-619.5 280,-619.5"/>
<text text-anchor="start" x="286.8212" y="-630.9" font-family="Arial" font-size="14.00" fill="#000000">interivew_status </text>
<text text-anchor="start" x="391.0596" y="-630.9" font-family="Arial" font-size="14.00" fill="#666666">[varchar(255)]</text>
<polygon fill="none" stroke="#000000" points="280,-589.5 280,-619.5 485,-619.5 485,-589.5 280,-589.5"/>
<text text-anchor="start" x="287" y="-600.9" font-family="Arial" font-size="14.00" fill="#000000">user_id </text>
<text text-anchor="start" x="336.7882" y="-600.9" font-family="Arial" font-size="14.00" fill="#666666">[bigint unsigned]</text>
<polygon fill="none" stroke="#000000" points="280,-559.5 280,-589.5 485,-589.5 485,-559.5 280,-559.5"/>
<text text-anchor="start" x="287" y="-570.9" font-family="Arial" font-size="14.00" fill="#000000">company_id </text>
<text text-anchor="start" x="366.3534" y="-570.9" font-family="Arial" font-size="14.00" fill="#666666">[bigint unsigned]</text>
<polygon fill="none" stroke="#000000" points="280,-529.5 280,-559.5 485,-559.5 485,-529.5 280,-529.5"/>
<text text-anchor="start" x="287" y="-540.9" font-family="Arial" font-size="14.00" fill="#000000">created_at </text>
<text text-anchor="start" x="357.028" y="-540.9" font-family="Arial" font-size="14.00" fill="#666666">[timestamp]</text>
<polygon fill="none" stroke="#000000" points="280,-499.5 280,-529.5 485,-529.5 485,-499.5 280,-499.5"/>
<text text-anchor="start" x="287" y="-510.9" font-family="Arial" font-size="14.00" fill="#000000">updated_at </text>
<text text-anchor="start" x="360.9326" y="-510.9" font-family="Arial" font-size="14.00" fill="#666666">[timestamp]</text>
<polygon fill="none" stroke="#000000" points="280,-469.5 280,-499.5 485,-499.5 485,-469.5 280,-469.5"/>
<text text-anchor="start" x="287" y="-480.9" font-family="Arial" font-size="14.00" fill="#000000">deleted_at </text>
<text text-anchor="start" x="356.2566" y="-480.9" font-family="Arial" font-size="14.00" fill="#666666">[datetime]</text>
</g>
<!-- interviews&#45;&gt;companies -->
<g id="edge5" class="edge">
<title>interviews:company_id&#45;&gt;companies:id</title>
<path fill="none" stroke="#000000" d="M495.0963,-573.7003C545.4951,-564.93 504.027,-485.8427 485,-427 478.9277,-408.2208 465.0723,-409.7792 459,-391 446.2146,-351.4602 417.4444,-297.5 459,-297.5"/>
<polygon fill="#000000" stroke="#000000" points="494.9688,-573.7103 484.6447,-570.014 489.9844,-574.1052 485,-574.5 485,-574.5 485,-574.5 489.9844,-574.1052 485.3553,-578.986 494.9688,-573.7103 494.9688,-573.7103"/>
<text text-anchor="start" x="207.438" y="-584.5" font-family="Arial" font-size="10.00" fill="#000000">FOREIGN KEY (company_id) REFERENCES companies (id)</text>
</g>
<!-- interviews&#45;&gt;users -->
<g id="edge6" class="edge">
<title>interviews:user_id&#45;&gt;users:id</title>
<path fill="none" stroke="#000000" d="M495.0411,-603.7797C559.1776,-593.6903 478.4181,-480.1964 536,-427 594.9656,-372.5252 645.625,-434.6469 713,-391 755.9066,-363.2042 728.8768,-297.5 780,-297.5"/>
<polygon fill="#000000" stroke="#000000" points="494.9744,-603.7843 484.678,-600.0115 489.9872,-604.1422 485,-604.5 485,-604.5 485,-604.5 489.9872,-604.1422 485.322,-608.9885 494.9744,-603.7843 494.9744,-603.7843"/>
<text text-anchor="start" x="251.945" y="-614.5" font-family="Arial" font-size="10.00" fill="#000000">FOREIGN KEY (user_id) REFERENCES users (id)</text>
</g>
<!-- messages -->
<g id="node6" class="node">
<title>messages</title>
<polygon fill="#efefef" stroke="transparent" points="285,-1136.5 285,-1171.5 480,-1171.5 480,-1136.5 285,-1136.5"/>
<polygon fill="none" stroke="#000000" points="285,-1136.5 285,-1171.5 480,-1171.5 480,-1136.5 285,-1136.5"/>
<text text-anchor="start" x="292.8646" y="-1149.3" font-family="Arial Bold" font-size="18.00" fill="#000000">messages</text>
<text text-anchor="start" x="374.8816" y="-1149.3" font-family="Arial" font-size="14.00" fill="#000000"> </text>
<text text-anchor="start" x="378.7722" y="-1149.3" font-family="Arial" font-size="14.00" fill="#666666">[BASE TABLE]</text>
<polygon fill="none" stroke="#000000" points="285,-1106.5 285,-1136.5 480,-1136.5 480,-1106.5 285,-1106.5"/>
<text text-anchor="start" x="292" y="-1117.9" font-family="Arial" font-size="14.00" fill="#000000">id </text>
<text text-anchor="start" x="306.7798" y="-1117.9" font-family="Arial" font-size="14.00" fill="#666666">[bigint unsigned]</text>
<polygon fill="none" stroke="#000000" points="285,-1076.5 285,-1106.5 480,-1106.5 480,-1076.5 285,-1076.5"/>
<text text-anchor="start" x="292" y="-1087.9" font-family="Arial" font-size="14.00" fill="#000000">body </text>
<text text-anchor="start" x="326.2384" y="-1087.9" font-family="Arial" font-size="14.00" fill="#666666">[varchar(255)]</text>
<polygon fill="none" stroke="#000000" points="285,-1046.5 285,-1076.5 480,-1076.5 480,-1046.5 285,-1046.5"/>
<text text-anchor="start" x="292" y="-1057.9" font-family="Arial" font-size="14.00" fill="#000000">interview_id </text>
<text text-anchor="start" x="369.7812" y="-1057.9" font-family="Arial" font-size="14.00" fill="#666666">[bigint unsigned]</text>
<polygon fill="none" stroke="#000000" points="285,-1016.5 285,-1046.5 480,-1046.5 480,-1016.5 285,-1016.5"/>
<text text-anchor="start" x="292" y="-1027.9" font-family="Arial" font-size="14.00" fill="#000000">user_id </text>
<text text-anchor="start" x="341.7882" y="-1027.9" font-family="Arial" font-size="14.00" fill="#666666">[bigint unsigned]</text>
<polygon fill="none" stroke="#000000" points="285,-986.5 285,-1016.5 480,-1016.5 480,-986.5 285,-986.5"/>
<text text-anchor="start" x="291.8605" y="-997.9" font-family="Arial" font-size="14.00" fill="#000000">company_id </text>
<text text-anchor="start" x="371.2139" y="-997.9" font-family="Arial" font-size="14.00" fill="#666666">[bigint unsigned]</text>
<polygon fill="none" stroke="#000000" points="285,-956.5 285,-986.5 480,-986.5 480,-956.5 285,-956.5"/>
<text text-anchor="start" x="292" y="-967.9" font-family="Arial" font-size="14.00" fill="#000000">created_at </text>
<text text-anchor="start" x="362.028" y="-967.9" font-family="Arial" font-size="14.00" fill="#666666">[timestamp]</text>
<polygon fill="none" stroke="#000000" points="285,-926.5 285,-956.5 480,-956.5 480,-926.5 285,-926.5"/>
<text text-anchor="start" x="292" y="-937.9" font-family="Arial" font-size="14.00" fill="#000000">updated_at </text>
<text text-anchor="start" x="365.9326" y="-937.9" font-family="Arial" font-size="14.00" fill="#666666">[timestamp]</text>
<polygon fill="none" stroke="#000000" points="285,-896.5 285,-926.5 480,-926.5 480,-896.5 285,-896.5"/>
<text text-anchor="start" x="292" y="-907.9" font-family="Arial" font-size="14.00" fill="#000000">deleted_at </text>
<text text-anchor="start" x="361.2566" y="-907.9" font-family="Arial" font-size="14.00" fill="#666666">[datetime]</text>
</g>
<!-- messages&#45;&gt;companies -->
<g id="edge7" class="edge">
<title>messages:company_id&#45;&gt;companies:id</title>
<path fill="none" stroke="#000000" d="M274.966,-999.0126C199.5201,-960.7471 188.3008,-492.9214 227,-427 286.7829,-325.1641 340.913,-297.5 459,-297.5"/>
<polygon fill="#000000" stroke="#000000" points="275.2938,-999.0938 283.9172,-1005.8678 280.1469,-1000.2969 285,-1001.5 285,-1001.5 285,-1001.5 280.1469,-1000.2969 286.0828,-997.1322 275.2938,-999.0938 275.2938,-999.0938"/>
<text text-anchor="start" x="7.438" y="-1011.5" font-family="Arial" font-size="10.00" fill="#000000">FOREIGN KEY (company_id) REFERENCES companies (id)</text>
</g>
<!-- messages&#45;&gt;interviews -->
<g id="edge8" class="edge">
<title>messages:interview_id&#45;&gt;interviews:id</title>
<path fill="none" stroke="#000000" d="M274.9109,-1059.5254C203.167,-1030.6385 201.9415,-694.5 280,-694.5"/>
<polygon fill="#000000" stroke="#000000" points="275.1862,-1059.5792 284.1357,-1065.9162 280.0931,-1060.5396 285,-1061.5 285,-1061.5 285,-1061.5 280.0931,-1060.5396 285.8643,-1057.0838 275.1862,-1059.5792 275.1862,-1059.5792"/>
<text text-anchor="start" x="11.95" y="-1071.5" font-family="Arial" font-size="10.00" fill="#000000">FOREIGN KEY (interview_id) REFERENCES interviews (id)</text>
</g>
<!-- messages&#45;&gt;users -->
<g id="edge9" class="edge">
<title>messages:user_id&#45;&gt;users:id</title>
<path fill="none" stroke="#000000" d="M490.1818,-1030.8409C566.1024,-1020.1461 460.6417,-882.1171 531,-824 591.4728,-774.0485 1181.9705,-844.8588 1236,-788 1403.9949,-611.2078 1233.8807,-297.5 990,-297.5"/>
<polygon fill="#000000" stroke="#000000" points="489.9791,-1030.8539 479.7093,-1027.0094 484.9896,-1031.177 480,-1031.5 480,-1031.5 480,-1031.5 484.9896,-1031.177 480.2907,-1035.9906 489.9791,-1030.8539 489.9791,-1030.8539"/>
<text text-anchor="start" x="486.945" y="-1041.5" font-family="Arial" font-size="10.00" fill="#000000">FOREIGN KEY (user_id) REFERENCES users (id)</text>
</g>
<!-- migrations -->
<g id="node7" class="node">
<title>migrations</title>
<polygon fill="#efefef" stroke="transparent" points="885,-1061.5 885,-1096.5 1079,-1096.5 1079,-1061.5 885,-1061.5"/>
<polygon fill="none" stroke="#000000" points="885,-1061.5 885,-1096.5 1079,-1096.5 1079,-1061.5 885,-1061.5"/>
<text text-anchor="start" x="891.8732" y="-1074.3" font-family="Arial Bold" font-size="18.00" fill="#000000">migrations</text>
<text text-anchor="start" x="974.873" y="-1074.3" font-family="Arial" font-size="14.00" fill="#000000"> </text>
<text text-anchor="start" x="978.7636" y="-1074.3" font-family="Arial" font-size="14.00" fill="#666666">[BASE TABLE]</text>
<polygon fill="none" stroke="#000000" points="885,-1031.5 885,-1061.5 1079,-1061.5 1079,-1031.5 885,-1031.5"/>
<text text-anchor="start" x="892" y="-1042.9" font-family="Arial" font-size="14.00" fill="#000000">id </text>
<text text-anchor="start" x="906.7798" y="-1042.9" font-family="Arial" font-size="14.00" fill="#666666">[int unsigned]</text>
<polygon fill="none" stroke="#000000" points="885,-1001.5 885,-1031.5 1079,-1031.5 1079,-1001.5 885,-1001.5"/>
<text text-anchor="start" x="892" y="-1012.9" font-family="Arial" font-size="14.00" fill="#000000">migration </text>
<text text-anchor="start" x="953.446" y="-1012.9" font-family="Arial" font-size="14.00" fill="#666666">[varchar(255)]</text>
<polygon fill="none" stroke="#000000" points="885,-971.5 885,-1001.5 1079,-1001.5 1079,-971.5 885,-971.5"/>
<text text-anchor="start" x="892" y="-982.9" font-family="Arial" font-size="14.00" fill="#000000">batch </text>
<text text-anchor="start" x="930.129" y="-982.9" font-family="Arial" font-size="14.00" fill="#666666">[int]</text>
</g>
<!-- password_resets -->
<g id="node8" class="node">
<title>password_resets</title>
<polygon fill="#efefef" stroke="transparent" points="1184,-1061.5 1184,-1096.5 1431,-1096.5 1431,-1061.5 1184,-1061.5"/>
<polygon fill="none" stroke="#000000" points="1184,-1061.5 1184,-1096.5 1431,-1096.5 1431,-1061.5 1184,-1061.5"/>
<text text-anchor="start" x="1190.861" y="-1074.3" font-family="Arial Bold" font-size="18.00" fill="#000000">password_resets</text>
<text text-anchor="start" x="1326.8852" y="-1074.3" font-family="Arial" font-size="14.00" fill="#000000"> </text>
<text text-anchor="start" x="1330.7758" y="-1074.3" font-family="Arial" font-size="14.00" fill="#666666">[BASE TABLE]</text>
<polygon fill="none" stroke="#000000" points="1184,-1031.5 1184,-1061.5 1431,-1061.5 1431,-1031.5 1184,-1031.5"/>
<text text-anchor="start" x="1191" y="-1042.9" font-family="Arial" font-size="14.00" fill="#000000">email </text>
<text text-anchor="start" x="1228.3296" y="-1042.9" font-family="Arial" font-size="14.00" fill="#666666">[varchar(255)]</text>
<polygon fill="none" stroke="#000000" points="1184,-1001.5 1184,-1031.5 1431,-1031.5 1431,-1001.5 1184,-1001.5"/>
<text text-anchor="start" x="1191" y="-1012.9" font-family="Arial" font-size="14.00" fill="#000000">token </text>
<text text-anchor="start" x="1229.129" y="-1012.9" font-family="Arial" font-size="14.00" fill="#666666">[varchar(255)]</text>
<polygon fill="none" stroke="#000000" points="1184,-971.5 1184,-1001.5 1431,-1001.5 1431,-971.5 1184,-971.5"/>
<text text-anchor="start" x="1191" y="-982.9" font-family="Arial" font-size="14.00" fill="#000000">created_at </text>
<text text-anchor="start" x="1261.028" y="-982.9" font-family="Arial" font-size="14.00" fill="#666666">[timestamp]</text>
</g>
<!-- personal_access_tokens -->
<g id="node9" class="node">
<title>personal_access_tokens</title>
<polygon fill="#efefef" stroke="transparent" points="1535,-1166.5 1535,-1201.5 1844,-1201.5 1844,-1166.5 1535,-1166.5"/>
<polygon fill="none" stroke="#000000" points="1535,-1166.5 1535,-1201.5 1844,-1201.5 1844,-1166.5 1535,-1166.5"/>
<text text-anchor="start" x="1541.8416" y="-1179.3" font-family="Arial Bold" font-size="18.00" fill="#000000">personal_access_tokens</text>
<text text-anchor="start" x="1739.9046" y="-1179.3" font-family="Arial" font-size="14.00" fill="#000000"> </text>
<text text-anchor="start" x="1743.7952" y="-1179.3" font-family="Arial" font-size="14.00" fill="#666666">[BASE TABLE]</text>
<polygon fill="none" stroke="#000000" points="1535,-1136.5 1535,-1166.5 1844,-1166.5 1844,-1136.5 1535,-1136.5"/>
<text text-anchor="start" x="1542" y="-1147.9" font-family="Arial" font-size="14.00" fill="#000000">id </text>
<text text-anchor="start" x="1556.7798" y="-1147.9" font-family="Arial" font-size="14.00" fill="#666666">[bigint unsigned]</text>
<polygon fill="none" stroke="#000000" points="1535,-1106.5 1535,-1136.5 1844,-1136.5 1844,-1106.5 1535,-1106.5"/>
<text text-anchor="start" x="1542" y="-1117.9" font-family="Arial" font-size="14.00" fill="#000000">tokenable_type </text>
<text text-anchor="start" x="1640.8218" y="-1117.9" font-family="Arial" font-size="14.00" fill="#666666">[varchar(255)]</text>
<polygon fill="none" stroke="#000000" points="1535,-1076.5 1535,-1106.5 1844,-1106.5 1844,-1076.5 1535,-1076.5"/>
<text text-anchor="start" x="1542" y="-1087.9" font-family="Arial" font-size="14.00" fill="#000000">tokenable_id </text>
<text text-anchor="start" x="1625.2552" y="-1087.9" font-family="Arial" font-size="14.00" fill="#666666">[bigint unsigned]</text>
<polygon fill="none" stroke="#000000" points="1535,-1046.5 1535,-1076.5 1844,-1076.5 1844,-1046.5 1535,-1046.5"/>
<text text-anchor="start" x="1542" y="-1057.9" font-family="Arial" font-size="14.00" fill="#000000">name </text>
<text text-anchor="start" x="1580.899" y="-1057.9" font-family="Arial" font-size="14.00" fill="#666666">[varchar(255)]</text>
<polygon fill="none" stroke="#000000" points="1535,-1016.5 1535,-1046.5 1844,-1046.5 1844,-1016.5 1535,-1016.5"/>
<text text-anchor="start" x="1542" y="-1027.9" font-family="Arial" font-size="14.00" fill="#000000">token </text>
<text text-anchor="start" x="1580.129" y="-1027.9" font-family="Arial" font-size="14.00" fill="#666666">[varchar(64)]</text>
<polygon fill="none" stroke="#000000" points="1535,-986.5 1535,-1016.5 1844,-1016.5 1844,-986.5 1535,-986.5"/>
<text text-anchor="start" x="1542" y="-997.9" font-family="Arial" font-size="14.00" fill="#000000">abilities </text>
<text text-anchor="start" x="1592.5554" y="-997.9" font-family="Arial" font-size="14.00" fill="#666666">[text]</text>
<polygon fill="none" stroke="#000000" points="1535,-956.5 1535,-986.5 1844,-986.5 1844,-956.5 1535,-956.5"/>
<text text-anchor="start" x="1542" y="-967.9" font-family="Arial" font-size="14.00" fill="#000000">last_used_at </text>
<text text-anchor="start" x="1625.2566" y="-967.9" font-family="Arial" font-size="14.00" fill="#666666">[timestamp]</text>
<polygon fill="none" stroke="#000000" points="1535,-926.5 1535,-956.5 1844,-956.5 1844,-926.5 1535,-926.5"/>
<text text-anchor="start" x="1542" y="-937.9" font-family="Arial" font-size="14.00" fill="#000000">expires_at </text>
<text text-anchor="start" x="1610.4614" y="-937.9" font-family="Arial" font-size="14.00" fill="#666666">[timestamp]</text>
<polygon fill="none" stroke="#000000" points="1535,-896.5 1535,-926.5 1844,-926.5 1844,-896.5 1535,-896.5"/>
<text text-anchor="start" x="1542" y="-907.9" font-family="Arial" font-size="14.00" fill="#000000">created_at </text>
<text text-anchor="start" x="1612.028" y="-907.9" font-family="Arial" font-size="14.00" fill="#666666">[timestamp]</text>
<polygon fill="none" stroke="#000000" points="1535,-866.5 1535,-896.5 1844,-896.5 1844,-866.5 1535,-866.5"/>
<text text-anchor="start" x="1542" y="-877.9" font-family="Arial" font-size="14.00" fill="#000000">updated_at </text>
<text text-anchor="start" x="1615.9326" y="-877.9" font-family="Arial" font-size="14.00" fill="#666666">[timestamp]</text>
</g>
</g>
</svg>
