<?xml version="1.0" encoding="UTF-8" standalone="no"?>
<!DOCTYPE svg PUBLIC "-//W3C//DTD SVG 1.1//EN"
 "http://www.w3.org/Graphics/SVG/1.1/DTD/svg11.dtd">
<!-- Generated by graphviz version 2.40.1 (20161225.0304)
 -->
<!-- Title: example_app Pages: 1 -->
<svg width="1895pt" height="1283pt"
 viewBox="0.00 0.00 1894.50 1283.00" xmlns="http://www.w3.org/2000/svg" xmlns:xlink="http://www.w3.org/1999/xlink">
<g id="graph0" class="graph" transform="scale(1 1) rotate(0) translate(4 1279)">
<title>example_app</title>
<polygon fill="#ffffff" stroke="transparent" points="-4,4 -4,-1279 1890.5,-1279 1890.5,4 -4,4"/>
<!-- companies -->
<g id="node1" class="node">
<title>companies</title>
<polygon fill="#efefef" stroke="transparent" points="452,-342.5 452,-377.5 666,-377.5 666,-342.5 452,-342.5"/>
<polygon fill="none" stroke="#000000" points="452,-342.5 452,-377.5 666,-377.5 666,-342.5 452,-342.5"/>
<text text-anchor="start" x="466.8644" y="-355.3" font-family="Arial Bold" font-size="18.00" fill="#000000">companies</text>
<text text-anchor="start" x="553.8818" y="-355.3" font-family="Arial" font-size="14.00" fill="#000000"> </text>
<text text-anchor="start" x="557.7724" y="-355.3" font-family="Arial" font-size="14.00" fill="#666666">[BASE TABLE]</text>
<polygon fill="none" stroke="#000000" points="452,-312.5 452,-342.5 666,-342.5 666,-312.5 452,-312.5"/>
<text text-anchor="start" x="459" y="-323.9" font-family="Arial" font-size="14.00" fill="#000000">id </text>
<text text-anchor="start" x="473.7798" y="-323.9" font-family="Arial" font-size="14.00" fill="#666666">[bigint unsigned]</text>
<polygon fill="none" stroke="#000000" points="452,-282.5 452,-312.5 666,-312.5 666,-282.5 452,-282.5"/>
<text text-anchor="start" x="459" y="-293.9" font-family="Arial" font-size="14.00" fill="#000000">name </text>
<text text-anchor="start" x="497.899" y="-293.9" font-family="Arial" font-size="14.00" fill="#666666">[varchar(255)]</text>
<polygon fill="none" stroke="#000000" points="452,-252.5 452,-282.5 666,-282.5 666,-252.5 452,-252.5"/>
<text text-anchor="start" x="459" y="-263.9" font-family="Arial" font-size="14.00" fill="#000000">email </text>
<text text-anchor="start" x="496.3296" y="-263.9" font-family="Arial" font-size="14.00" fill="#666666">[varchar(255)]</text>
<polygon fill="none" stroke="#000000" points="452,-222.5 452,-252.5 666,-252.5 666,-222.5 452,-222.5"/>
<text text-anchor="start" x="459" y="-233.9" font-family="Arial" font-size="14.00" fill="#000000">password </text>
<text text-anchor="start" x="522.7882" y="-233.9" font-family="Arial" font-size="14.00" fill="#666666">[varchar(255)]</text>
<polygon fill="none" stroke="#000000" points="452,-192.5 452,-222.5 666,-222.5 666,-192.5 452,-192.5"/>
<text text-anchor="start" x="459" y="-203.9" font-family="Arial" font-size="14.00" fill="#000000">profile </text>
<text text-anchor="start" x="501.0028" y="-203.9" font-family="Arial" font-size="14.00" fill="#666666">[varchar(255)]</text>
<polygon fill="none" stroke="#000000" points="452,-162.5 452,-192.5 666,-192.5 666,-162.5 452,-162.5"/>
<text text-anchor="start" x="459" y="-173.9" font-family="Arial" font-size="14.00" fill="#000000">is_enable_interview </text>
<text text-anchor="start" x="585.8008" y="-173.9" font-family="Arial" font-size="14.00" fill="#666666">[tinyint(1)]</text>
<polygon fill="none" stroke="#000000" points="452,-132.5 452,-162.5 666,-162.5 666,-132.5 452,-132.5"/>
<text text-anchor="start" x="458.641" y="-143.9" font-family="Arial" font-size="14.00" fill="#000000">enable_interview_datetime </text>
<text text-anchor="start" x="629.014" y="-143.9" font-family="Arial" font-size="14.00" fill="#666666">[text]</text>
<polygon fill="none" stroke="#000000" points="452,-102.5 452,-132.5 666,-132.5 666,-102.5 452,-102.5"/>
<text text-anchor="start" x="459" y="-113.9" font-family="Arial" font-size="14.00" fill="#000000">created_at </text>
<text text-anchor="start" x="529.028" y="-113.9" font-family="Arial" font-size="14.00" fill="#666666">[datetime]</text>
<polygon fill="none" stroke="#000000" points="452,-72.5 452,-102.5 666,-102.5 666,-72.5 452,-72.5"/>
<text text-anchor="start" x="459" y="-83.9" font-family="Arial" font-size="14.00" fill="#000000">updated_at </text>
<text text-anchor="start" x="532.9326" y="-83.9" font-family="Arial" font-size="14.00" fill="#666666">[datetime]</text>
<polygon fill="none" stroke="#000000" points="452,-42.5 452,-72.5 666,-72.5 666,-42.5 452,-42.5"/>
<text text-anchor="start" x="459" y="-53.9" font-family="Arial" font-size="14.00" fill="#000000">deleted_at </text>
<text text-anchor="start" x="528.2566" y="-53.9" font-family="Arial" font-size="14.00" fill="#666666">[datetime]</text>
</g>
<!-- failed_jobs -->
<g id="node2" class="node">
<title>failed_jobs</title>
<polygon fill="#efefef" stroke="transparent" points="584,-1151.5 584,-1186.5 781,-1186.5 781,-1151.5 584,-1151.5"/>
<polygon fill="none" stroke="#000000" points="584,-1151.5 584,-1186.5 781,-1186.5 781,-1151.5 584,-1151.5"/>
<text text-anchor="start" x="590.8621" y="-1164.3" font-family="Arial Bold" font-size="18.00" fill="#000000">failed_jobs</text>
<text text-anchor="start" x="676.8841" y="-1164.3" font-family="Arial" font-size="14.00" fill="#000000"> </text>
<text text-anchor="start" x="680.7747" y="-1164.3" font-family="Arial" font-size="14.00" fill="#666666">[BASE TABLE]</text>
<polygon fill="none" stroke="#000000" points="584,-1121.5 584,-1151.5 781,-1151.5 781,-1121.5 584,-1121.5"/>
<text text-anchor="start" x="591" y="-1132.9" font-family="Arial" font-size="14.00" fill="#000000">id </text>
<text text-anchor="start" x="605.7798" y="-1132.9" font-family="Arial" font-size="14.00" fill="#666666">[bigint unsigned]</text>
<polygon fill="none" stroke="#000000" points="584,-1091.5 584,-1121.5 781,-1121.5 781,-1091.5 584,-1091.5"/>
<text text-anchor="start" x="591" y="-1102.9" font-family="Arial" font-size="14.00" fill="#000000">uuid </text>
<text text-anchor="start" x="621.345" y="-1102.9" font-family="Arial" font-size="14.00" fill="#666666">[varchar(255)]</text>
<polygon fill="none" stroke="#000000" points="584,-1061.5 584,-1091.5 781,-1091.5 781,-1061.5 584,-1061.5"/>
<text text-anchor="start" x="591" y="-1072.9" font-family="Arial" font-size="14.00" fill="#000000">connection </text>
<text text-anchor="start" x="662.5834" y="-1072.9" font-family="Arial" font-size="14.00" fill="#666666">[text]</text>
<polygon fill="none" stroke="#000000" points="584,-1031.5 584,-1061.5 781,-1061.5 781,-1031.5 584,-1031.5"/>
<text text-anchor="start" x="591" y="-1042.9" font-family="Arial" font-size="14.00" fill="#000000">queue </text>
<text text-anchor="start" x="633.8036" y="-1042.9" font-family="Arial" font-size="14.00" fill="#666666">[text]</text>
<polygon fill="none" stroke="#000000" points="584,-1001.5 584,-1031.5 781,-1031.5 781,-1001.5 584,-1001.5"/>
<text text-anchor="start" x="591" y="-1012.9" font-family="Arial" font-size="14.00" fill="#000000">payload </text>
<text text-anchor="start" x="643.9102" y="-1012.9" font-family="Arial" font-size="14.00" fill="#666666">[longtext]</text>
<polygon fill="none" stroke="#000000" points="584,-971.5 584,-1001.5 781,-1001.5 781,-971.5 584,-971.5"/>
<text text-anchor="start" x="591" y="-982.9" font-family="Arial" font-size="14.00" fill="#000000">exception </text>
<text text-anchor="start" x="654.8008" y="-982.9" font-family="Arial" font-size="14.00" fill="#666666">[longtext]</text>
<polygon fill="none" stroke="#000000" points="584,-941.5 584,-971.5 781,-971.5 781,-941.5 584,-941.5"/>
<text text-anchor="start" x="591" y="-952.9" font-family="Arial" font-size="14.00" fill="#000000">failed_at </text>
<text text-anchor="start" x="647.798" y="-952.9" font-family="Arial" font-size="14.00" fill="#666666">[timestamp]</text>
</g>
<!-- favorite_companies -->
<g id="node3" class="node">
<title>favorite_companies</title>
<polygon fill="#efefef" stroke="transparent" points="589,-709.5 589,-744.5 856,-744.5 856,-709.5 589,-709.5"/>
<polygon fill="none" stroke="#000000" points="589,-709.5 589,-744.5 856,-744.5 856,-709.5 589,-709.5"/>
<text text-anchor="start" x="595.8566" y="-722.3" font-family="Arial Bold" font-size="18.00" fill="#000000">favorite_companies</text>
<text text-anchor="start" x="751.8896" y="-722.3" font-family="Arial" font-size="14.00" fill="#000000"> </text>
<text text-anchor="start" x="755.7802" y="-722.3" font-family="Arial" font-size="14.00" fill="#666666">[BASE TABLE]</text>
<polygon fill="none" stroke="#000000" points="589,-679.5 589,-709.5 856,-709.5 856,-679.5 589,-679.5"/>
<text text-anchor="start" x="596" y="-690.9" font-family="Arial" font-size="14.00" fill="#000000">id </text>
<text text-anchor="start" x="610.7798" y="-690.9" font-family="Arial" font-size="14.00" fill="#666666">[bigint unsigned]</text>
<polygon fill="none" stroke="#000000" points="589,-649.5 589,-679.5 856,-679.5 856,-649.5 589,-649.5"/>
<text text-anchor="start" x="596" y="-660.9" font-family="Arial" font-size="14.00" fill="#000000">user_id </text>
<text text-anchor="start" x="645.7882" y="-660.9" font-family="Arial" font-size="14.00" fill="#666666">[bigint unsigned]</text>
<polygon fill="none" stroke="#000000" points="589,-619.5 589,-649.5 856,-649.5 856,-619.5 589,-619.5"/>
<text text-anchor="start" x="596" y="-630.9" font-family="Arial" font-size="14.00" fill="#000000">company_id </text>
<text text-anchor="start" x="675.3534" y="-630.9" font-family="Arial" font-size="14.00" fill="#666666">[bigint unsigned]</text>
<polygon fill="none" stroke="#000000" points="589,-589.5 589,-619.5 856,-619.5 856,-589.5 589,-589.5"/>
<text text-anchor="start" x="596" y="-600.9" font-family="Arial" font-size="14.00" fill="#000000">created_at </text>
<text text-anchor="start" x="666.028" y="-600.9" font-family="Arial" font-size="14.00" fill="#666666">[datetime]</text>
<polygon fill="none" stroke="#000000" points="589,-559.5 589,-589.5 856,-589.5 856,-559.5 589,-559.5"/>
<text text-anchor="start" x="596" y="-570.9" font-family="Arial" font-size="14.00" fill="#000000">updated_at </text>
<text text-anchor="start" x="669.9326" y="-570.9" font-family="Arial" font-size="14.00" fill="#666666">[datetime]</text>
<polygon fill="none" stroke="#000000" points="589,-529.5 589,-559.5 856,-559.5 856,-529.5 589,-529.5"/>
<text text-anchor="start" x="596" y="-540.9" font-family="Arial" font-size="14.00" fill="#000000">deleted_at </text>
<text text-anchor="start" x="665.2566" y="-540.9" font-family="Arial" font-size="14.00" fill="#666666">[datetime]</text>
</g>
<!-- favorite_companies&#45;&gt;companies -->
<g id="edge1" class="edge">
<title>favorite_companies:company_id&#45;&gt;companies:id</title>
<path fill="none" stroke="#000000" d="M578.8381,-633.6747C527.733,-624.6289 563.1587,-543.1847 589,-487 607.8342,-446.0503 647.1658,-461.9497 666,-421 683.3643,-383.2462 707.5556,-327.5 666,-327.5"/>
<polygon fill="#000000" stroke="#000000" points="579.0328,-633.6905 588.6357,-638.9852 584.0164,-634.0952 589,-634.5 589,-634.5 589,-634.5 584.0164,-634.0952 589.3643,-630.0148 579.0328,-633.6905 579.0328,-633.6905"/>
<text text-anchor="start" x="596.438" y="-644.5" font-family="Arial" font-size="10.00" fill="#000000">FOREIGN KEY (company_id) REFERENCES companies (id)</text>
</g>
<!-- users -->
<g id="node10" class="node">
<title>users</title>
<polygon fill="#efefef" stroke="transparent" points="782,-342.5 782,-377.5 992,-377.5 992,-342.5 782,-342.5"/>
<polygon fill="none" stroke="#000000" points="782,-342.5 782,-377.5 992,-377.5 992,-342.5 782,-342.5"/>
<text text-anchor="start" x="816.3708" y="-355.3" font-family="Arial Bold" font-size="18.00" fill="#000000">users</text>
<text text-anchor="start" x="860.3754" y="-355.3" font-family="Arial" font-size="14.00" fill="#000000"> </text>
<text text-anchor="start" x="864.266" y="-355.3" font-family="Arial" font-size="14.00" fill="#666666">[BASE TABLE]</text>
<polygon fill="none" stroke="#000000" points="782,-312.5 782,-342.5 992,-342.5 992,-312.5 782,-312.5"/>
<text text-anchor="start" x="789" y="-323.9" font-family="Arial" font-size="14.00" fill="#000000">id </text>
<text text-anchor="start" x="803.7798" y="-323.9" font-family="Arial" font-size="14.00" fill="#666666">[bigint unsigned]</text>
<polygon fill="none" stroke="#000000" points="782,-282.5 782,-312.5 992,-312.5 992,-282.5 782,-282.5"/>
<text text-anchor="start" x="789" y="-293.9" font-family="Arial" font-size="14.00" fill="#000000">name </text>
<text text-anchor="start" x="827.899" y="-293.9" font-family="Arial" font-size="14.00" fill="#666666">[varchar(255)]</text>
<polygon fill="none" stroke="#000000" points="782,-252.5 782,-282.5 992,-282.5 992,-252.5 782,-252.5"/>
<text text-anchor="start" x="789" y="-263.9" font-family="Arial" font-size="14.00" fill="#000000">email </text>
<text text-anchor="start" x="826.3296" y="-263.9" font-family="Arial" font-size="14.00" fill="#666666">[varchar(255)]</text>
<polygon fill="none" stroke="#000000" points="782,-222.5 782,-252.5 992,-252.5 992,-222.5 782,-222.5"/>
<text text-anchor="start" x="789" y="-233.9" font-family="Arial" font-size="14.00" fill="#000000">email_verified_at </text>
<text text-anchor="start" x="898.6802" y="-233.9" font-family="Arial" font-size="14.00" fill="#666666">[timestamp]</text>
<polygon fill="none" stroke="#000000" points="782,-192.5 782,-222.5 992,-222.5 992,-192.5 782,-192.5"/>
<text text-anchor="start" x="789" y="-203.9" font-family="Arial" font-size="14.00" fill="#000000">password </text>
<text text-anchor="start" x="852.7882" y="-203.9" font-family="Arial" font-size="14.00" fill="#666666">[varchar(255)]</text>
<polygon fill="none" stroke="#000000" points="782,-162.5 782,-192.5 992,-192.5 992,-162.5 782,-162.5"/>
<text text-anchor="start" x="789" y="-173.9" font-family="Arial" font-size="14.00" fill="#000000">profile </text>
<text text-anchor="start" x="831.0028" y="-173.9" font-family="Arial" font-size="14.00" fill="#666666">[text]</text>
<polygon fill="none" stroke="#000000" points="782,-132.5 782,-162.5 992,-162.5 992,-132.5 782,-132.5"/>
<text text-anchor="start" x="788.5982" y="-143.9" font-family="Arial" font-size="14.00" fill="#000000">remember_token </text>
<text text-anchor="start" x="898.2826" y="-143.9" font-family="Arial" font-size="14.00" fill="#666666">[varchar(100)]</text>
<polygon fill="none" stroke="#000000" points="782,-102.5 782,-132.5 992,-132.5 992,-102.5 782,-102.5"/>
<text text-anchor="start" x="789" y="-113.9" font-family="Arial" font-size="14.00" fill="#000000">created_at </text>
<text text-anchor="start" x="859.028" y="-113.9" font-family="Arial" font-size="14.00" fill="#666666">[datetime]</text>
<polygon fill="none" stroke="#000000" points="782,-72.5 782,-102.5 992,-102.5 992,-72.5 782,-72.5"/>
<text text-anchor="start" x="789" y="-83.9" font-family="Arial" font-size="14.00" fill="#000000">updated_at </text>
<text text-anchor="start" x="862.9326" y="-83.9" font-family="Arial" font-size="14.00" fill="#666666">[datetime]</text>
<polygon fill="none" stroke="#000000" points="782,-42.5 782,-72.5 992,-72.5 992,-42.5 782,-42.5"/>
<text text-anchor="start" x="789" y="-53.9" font-family="Arial" font-size="14.00" fill="#000000">deleted_at </text>
<text text-anchor="start" x="858.2566" y="-53.9" font-family="Arial" font-size="14.00" fill="#666666">[datetime]</text>
</g>
<!-- favorite_companies&#45;&gt;users -->
<g id="edge2" class="edge">
<title>favorite_companies:user_id&#45;&gt;users:id</title>
<path fill="none" stroke="#000000" d="M866.2808,-663.8188C930.5487,-654.6823 886.745,-555.618 856,-487 837.9803,-446.7829 800.0197,-461.2171 782,-421 765.0083,-383.0771 740.4444,-327.5 782,-327.5"/>
<polygon fill="#000000" stroke="#000000" points="865.9781,-663.8388 855.7025,-660.0098 860.9891,-664.1694 856,-664.5 856,-664.5 856,-664.5 860.9891,-664.1694 856.2975,-668.9902 865.9781,-663.8388 865.9781,-663.8388"/>
<text text-anchor="start" x="862.945" y="-674.5" font-family="Arial" font-size="10.00" fill="#000000">FOREIGN KEY (user_id) REFERENCES users (id)</text>
</g>
<!-- favorite_users -->
<g id="node4" class="node">
<title>favorite_users</title>
<polygon fill="#efefef" stroke="transparent" points="960,-709.5 960,-744.5 1184,-744.5 1184,-709.5 960,-709.5"/>
<polygon fill="none" stroke="#000000" points="960,-709.5 960,-744.5 1184,-744.5 1184,-709.5 960,-709.5"/>
<text text-anchor="start" x="966.863" y="-722.3" font-family="Arial Bold" font-size="18.00" fill="#000000">favorite_users</text>
<text text-anchor="start" x="1079.8832" y="-722.3" font-family="Arial" font-size="14.00" fill="#000000"> </text>
<text text-anchor="start" x="1083.7738" y="-722.3" font-family="Arial" font-size="14.00" fill="#666666">[BASE TABLE]</text>
<polygon fill="none" stroke="#000000" points="960,-679.5 960,-709.5 1184,-709.5 1184,-679.5 960,-679.5"/>
<text text-anchor="start" x="967" y="-690.9" font-family="Arial" font-size="14.00" fill="#000000">id </text>
<text text-anchor="start" x="981.7798" y="-690.9" font-family="Arial" font-size="14.00" fill="#666666">[bigint unsigned]</text>
<polygon fill="none" stroke="#000000" points="960,-649.5 960,-679.5 1184,-679.5 1184,-649.5 960,-649.5"/>
<text text-anchor="start" x="967" y="-660.9" font-family="Arial" font-size="14.00" fill="#000000">company_id </text>
<text text-anchor="start" x="1046.3534" y="-660.9" font-family="Arial" font-size="14.00" fill="#666666">[bigint unsigned]</text>
<polygon fill="none" stroke="#000000" points="960,-619.5 960,-649.5 1184,-649.5 1184,-619.5 960,-619.5"/>
<text text-anchor="start" x="967" y="-630.9" font-family="Arial" font-size="14.00" fill="#000000">user_id </text>
<text text-anchor="start" x="1016.7882" y="-630.9" font-family="Arial" font-size="14.00" fill="#666666">[bigint unsigned]</text>
<polygon fill="none" stroke="#000000" points="960,-589.5 960,-619.5 1184,-619.5 1184,-589.5 960,-589.5"/>
<text text-anchor="start" x="967" y="-600.9" font-family="Arial" font-size="14.00" fill="#000000">created_at </text>
<text text-anchor="start" x="1037.028" y="-600.9" font-family="Arial" font-size="14.00" fill="#666666">[datetime]</text>
<polygon fill="none" stroke="#000000" points="960,-559.5 960,-589.5 1184,-589.5 1184,-559.5 960,-559.5"/>
<text text-anchor="start" x="967" y="-570.9" font-family="Arial" font-size="14.00" fill="#000000">updated_at </text>
<text text-anchor="start" x="1040.9326" y="-570.9" font-family="Arial" font-size="14.00" fill="#666666">[datetime]</text>
<polygon fill="none" stroke="#000000" points="960,-529.5 960,-559.5 1184,-559.5 1184,-529.5 960,-529.5"/>
<text text-anchor="start" x="967" y="-540.9" font-family="Arial" font-size="14.00" fill="#000000">deleted_at </text>
<text text-anchor="start" x="1036.2566" y="-540.9" font-family="Arial" font-size="14.00" fill="#666666">[datetime]</text>
</g>
<!-- favorite_users&#45;&gt;companies -->
<g id="edge3" class="edge">
<title>favorite_users:company_id&#45;&gt;companies:id</title>
<path fill="none" stroke="#000000" d="M949.7826,-663.8637C873.3871,-653.5353 974.0697,-520.0989 908,-457 849.6302,-401.2547 797.2889,-465.5733 730,-421 688.0173,-393.1899 716.3582,-327.5 666,-327.5"/>
<polygon fill="#000000" stroke="#000000" points="950.0193,-663.8784 959.7203,-668.9913 955.0097,-664.1892 960,-664.5 960,-664.5 960,-664.5 955.0097,-664.1892 960.2797,-660.0087 950.0193,-663.8784 950.0193,-663.8784"/>
<text text-anchor="start" x="967.438" y="-648.5" font-family="Arial" font-size="10.00" fill="#000000">FOREIGN KEY (company_id) REFERENCES companies (id)</text>
</g>
<!-- favorite_users&#45;&gt;users -->
<g id="edge4" class="edge">
<title>favorite_users:user_id&#45;&gt;users:id</title>
<path fill="none" stroke="#000000" d="M949.9536,-633.7141C900.0924,-625.0921 946.1588,-547.2736 960,-487 967.2962,-455.2277 984.7038,-452.7723 992,-421 1001.3007,-380.4986 1033.5556,-327.5 992,-327.5"/>
<polygon fill="#000000" stroke="#000000" points="950.0305,-633.72 959.649,-638.9863 955.0152,-634.11 960,-634.5 960,-634.5 960,-634.5 955.0152,-634.11 960.351,-630.0137 950.0305,-633.72 950.0305,-633.72"/>
<text text-anchor="start" x="906.945" y="-618.5" font-family="Arial" font-size="10.00" fill="#000000">FOREIGN KEY (user_id) REFERENCES users (id)</text>
</g>
<!-- interviews -->
<g id="node5" class="node">
<title>interviews</title>
<polygon fill="#efefef" stroke="transparent" points="280,-739.5 280,-774.5 485,-774.5 485,-739.5 280,-739.5"/>
<polygon fill="none" stroke="#000000" points="280,-739.5 280,-774.5 485,-774.5 485,-739.5 280,-739.5"/>
<text text-anchor="start" x="293.8753" y="-752.3" font-family="Arial Bold" font-size="18.00" fill="#000000">interviews</text>
<text text-anchor="start" x="373.8709" y="-752.3" font-family="Arial" font-size="14.00" fill="#000000"> </text>
<text text-anchor="start" x="377.7615" y="-752.3" font-family="Arial" font-size="14.00" fill="#666666">[BASE TABLE]</text>
<polygon fill="none" stroke="#000000" points="280,-709.5 280,-739.5 485,-739.5 485,-709.5 280,-709.5"/>
<text text-anchor="start" x="287" y="-720.9" font-family="Arial" font-size="14.00" fill="#000000">id </text>
<text text-anchor="start" x="301.7798" y="-720.9" font-family="Arial" font-size="14.00" fill="#666666">[bigint unsigned]</text>
<polygon fill="none" stroke="#000000" points="280,-679.5 280,-709.5 485,-709.5 485,-679.5 280,-679.5"/>
<text text-anchor="start" x="287" y="-690.9" font-family="Arial" font-size="14.00" fill="#000000">interview_datetime </text>
<text text-anchor="start" x="407.5708" y="-690.9" font-family="Arial" font-size="14.00" fill="#666666">[datetime]</text>
<polygon fill="none" stroke="#000000" points="280,-649.5 280,-679.5 485,-679.5 485,-649.5 280,-649.5"/>
<text text-anchor="start" x="286.8212" y="-660.9" font-family="Arial" font-size="14.00" fill="#000000">interview_status </text>
<text text-anchor="start" x="391.0596" y="-660.9" font-family="Arial" font-size="14.00" fill="#666666">[varchar(255)]</text>
<polygon fill="none" stroke="#000000" points="280,-619.5 280,-649.5 485,-649.5 485,-619.5 280,-619.5"/>
<text text-anchor="start" x="287" y="-630.9" font-family="Arial" font-size="14.00" fill="#000000">user_id </text>
<text text-anchor="start" x="336.7882" y="-630.9" font-family="Arial" font-size="14.00" fill="#666666">[bigint unsigned]</text>
<polygon fill="none" stroke="#000000" points="280,-589.5 280,-619.5 485,-619.5 485,-589.5 280,-589.5"/>
<text text-anchor="start" x="287" y="-600.9" font-family="Arial" font-size="14.00" fill="#000000">company_id </text>
<text text-anchor="start" x="366.3534" y="-600.9" font-family="Arial" font-size="14.00" fill="#666666">[bigint unsigned]</text>
<polygon fill="none" stroke="#000000" points="280,-559.5 280,-589.5 485,-589.5 485,-559.5 280,-559.5"/>
<text text-anchor="start" x="287" y="-570.9" font-family="Arial" font-size="14.00" fill="#000000">created_at </text>
<text text-anchor="start" x="357.028" y="-570.9" font-family="Arial" font-size="14.00" fill="#666666">[datetime]</text>
<polygon fill="none" stroke="#000000" points="280,-529.5 280,-559.5 485,-559.5 485,-529.5 280,-529.5"/>
<text text-anchor="start" x="287" y="-540.9" font-family="Arial" font-size="14.00" fill="#000000">updated_at </text>
<text text-anchor="start" x="360.9326" y="-540.9" font-family="Arial" font-size="14.00" fill="#666666">[datetime]</text>
<polygon fill="none" stroke="#000000" points="280,-499.5 280,-529.5 485,-529.5 485,-499.5 280,-499.5"/>
<text text-anchor="start" x="287" y="-510.9" font-family="Arial" font-size="14.00" fill="#000000">deleted_at </text>
<text text-anchor="start" x="356.2566" y="-510.9" font-family="Arial" font-size="14.00" fill="#666666">[datetime]</text>
</g>
<!-- interviews&#45;&gt;companies -->
<g id="edge5" class="edge">
<title>interviews:company_id&#45;&gt;companies:id</title>
<path fill="none" stroke="#000000" d="M495.129,-603.6887C545.8793,-594.7933 507.4193,-514.6356 485,-457 477.1314,-436.7714 459.8686,-441.2286 452,-421 436.9352,-382.2713 410.4444,-327.5 452,-327.5"/>
<polygon fill="#000000" stroke="#000000" points="494.9681,-603.7015 484.6407,-600.0144 489.984,-604.1008 485,-604.5 485,-604.5 485,-604.5 489.984,-604.1008 485.3593,-608.9856 494.9681,-603.7015 494.9681,-603.7015"/>
<text text-anchor="start" x="207.438" y="-614.5" font-family="Arial" font-size="10.00" fill="#000000">FOREIGN KEY (company_id) REFERENCES companies (id)</text>
</g>
<!-- interviews&#45;&gt;users -->
<g id="edge6" class="edge">
<title>interviews:user_id&#45;&gt;users:id</title>
<path fill="none" stroke="#000000" d="M495.0402,-633.7787C559.1648,-623.6764 478.2755,-510.0416 536,-457 596.7161,-401.2096 649.1607,-466.389 718,-421 760.0421,-393.2797 731.6418,-327.5 782,-327.5"/>
<polygon fill="#000000" stroke="#000000" points="494.9743,-633.7834 484.6775,-630.0116 489.9871,-634.1417 485,-634.5 485,-634.5 485,-634.5 489.9871,-634.1417 485.3225,-638.9884 494.9743,-633.7834 494.9743,-633.7834"/>
<text text-anchor="start" x="251.945" y="-644.5" font-family="Arial" font-size="10.00" fill="#000000">FOREIGN KEY (user_id) REFERENCES users (id)</text>
</g>
<!-- messages -->
<g id="node6" class="node">
<title>messages</title>
<polygon fill="#efefef" stroke="transparent" points="285,-1166.5 285,-1201.5 480,-1201.5 480,-1166.5 285,-1166.5"/>
<polygon fill="none" stroke="#000000" points="285,-1166.5 285,-1201.5 480,-1201.5 480,-1166.5 285,-1166.5"/>
<text text-anchor="start" x="292.8646" y="-1179.3" font-family="Arial Bold" font-size="18.00" fill="#000000">messages</text>
<text text-anchor="start" x="374.8816" y="-1179.3" font-family="Arial" font-size="14.00" fill="#000000"> </text>
<text text-anchor="start" x="378.7722" y="-1179.3" font-family="Arial" font-size="14.00" fill="#666666">[BASE TABLE]</text>
<polygon fill="none" stroke="#000000" points="285,-1136.5 285,-1166.5 480,-1166.5 480,-1136.5 285,-1136.5"/>
<text text-anchor="start" x="292" y="-1147.9" font-family="Arial" font-size="14.00" fill="#000000">id </text>
<text text-anchor="start" x="306.7798" y="-1147.9" font-family="Arial" font-size="14.00" fill="#666666">[bigint unsigned]</text>
<polygon fill="none" stroke="#000000" points="285,-1106.5 285,-1136.5 480,-1136.5 480,-1106.5 285,-1106.5"/>
<text text-anchor="start" x="292" y="-1117.9" font-family="Arial" font-size="14.00" fill="#000000">body </text>
<text text-anchor="start" x="326.2384" y="-1117.9" font-family="Arial" font-size="14.00" fill="#666666">[varchar(255)]</text>
<polygon fill="none" stroke="#000000" points="285,-1076.5 285,-1106.5 480,-1106.5 480,-1076.5 285,-1076.5"/>
<text text-anchor="start" x="292" y="-1087.9" font-family="Arial" font-size="14.00" fill="#000000">interview_id </text>
<text text-anchor="start" x="369.7812" y="-1087.9" font-family="Arial" font-size="14.00" fill="#666666">[bigint unsigned]</text>
<polygon fill="none" stroke="#000000" points="285,-1046.5 285,-1076.5 480,-1076.5 480,-1046.5 285,-1046.5"/>
<text text-anchor="start" x="292" y="-1057.9" font-family="Arial" font-size="14.00" fill="#000000">user_id </text>
<text text-anchor="start" x="341.7882" y="-1057.9" font-family="Arial" font-size="14.00" fill="#666666">[bigint unsigned]</text>
<polygon fill="none" stroke="#000000" points="285,-1016.5 285,-1046.5 480,-1046.5 480,-1016.5 285,-1016.5"/>
<text text-anchor="start" x="291.8605" y="-1027.9" font-family="Arial" font-size="14.00" fill="#000000">company_id </text>
<text text-anchor="start" x="371.2139" y="-1027.9" font-family="Arial" font-size="14.00" fill="#666666">[bigint unsigned]</text>
<polygon fill="none" stroke="#000000" points="285,-986.5 285,-1016.5 480,-1016.5 480,-986.5 285,-986.5"/>
<text text-anchor="start" x="292" y="-997.9" font-family="Arial" font-size="14.00" fill="#000000">created_at </text>
<text text-anchor="start" x="362.028" y="-997.9" font-family="Arial" font-size="14.00" fill="#666666">[datetime]</text>
<polygon fill="none" stroke="#000000" points="285,-956.5 285,-986.5 480,-986.5 480,-956.5 285,-956.5"/>
<text text-anchor="start" x="292" y="-967.9" font-family="Arial" font-size="14.00" fill="#000000">updated_at </text>
<text text-anchor="start" x="365.9326" y="-967.9" font-family="Arial" font-size="14.00" fill="#666666">[datetime]</text>
<polygon fill="none" stroke="#000000" points="285,-926.5 285,-956.5 480,-956.5 480,-926.5 285,-926.5"/>
<text text-anchor="start" x="292" y="-937.9" font-family="Arial" font-size="14.00" fill="#000000">deleted_at </text>
<text text-anchor="start" x="361.2566" y="-937.9" font-family="Arial" font-size="14.00" fill="#666666">[datetime]</text>
</g>
<!-- messages&#45;&gt;companies -->
<g id="edge7" class="edge">
<title>messages:company_id&#45;&gt;companies:id</title>
<path fill="none" stroke="#000000" d="M275.0109,-1029.0126C199.9087,-990.7471 188.881,-522.9214 227,-457 284.7575,-357.1165 336.6196,-327.5 452,-327.5"/>
<polygon fill="#000000" stroke="#000000" points="275.2963,-1029.0836 283.9126,-1035.8667 280.1482,-1030.2918 285,-1031.5 285,-1031.5 285,-1031.5 280.1482,-1030.2918 286.0874,-1027.1333 275.2963,-1029.0836 275.2963,-1029.0836"/>
<text text-anchor="start" x="7.438" y="-1041.5" font-family="Arial" font-size="10.00" fill="#000000">FOREIGN KEY (company_id) REFERENCES companies (id)</text>
</g>
<!-- messages&#45;&gt;interviews -->
<g id="edge8" class="edge">
<title>messages:interview_id&#45;&gt;interviews:id</title>
<path fill="none" stroke="#000000" d="M274.9109,-1089.5254C203.167,-1060.6385 201.9415,-724.5 280,-724.5"/>
<polygon fill="#000000" stroke="#000000" points="275.1862,-1089.5792 284.1357,-1095.9162 280.0931,-1090.5396 285,-1091.5 285,-1091.5 285,-1091.5 280.0931,-1090.5396 285.8643,-1087.0838 275.1862,-1089.5792 275.1862,-1089.5792"/>
<text text-anchor="start" x="11.95" y="-1101.5" font-family="Arial" font-size="10.00" fill="#000000">FOREIGN KEY (interview_id) REFERENCES interviews (id)</text>
</g>
<!-- messages&#45;&gt;users -->
<g id="edge9" class="edge">
<title>messages:user_id&#45;&gt;users:id</title>
<path fill="none" stroke="#000000" d="M490.1818,-1060.8409C566.1024,-1050.1461 460.6417,-912.1171 531,-854 591.4728,-804.0485 1181.9705,-874.8588 1236,-818 1403.7213,-641.4957 1235.4835,-327.5 992,-327.5"/>
<polygon fill="#000000" stroke="#000000" points="489.9791,-1060.8539 479.7093,-1057.0094 484.9896,-1061.177 480,-1061.5 480,-1061.5 480,-1061.5 484.9896,-1061.177 480.2907,-1065.9906 489.9791,-1060.8539 489.9791,-1060.8539"/>
<text text-anchor="start" x="486.945" y="-1071.5" font-family="Arial" font-size="10.00" fill="#000000">FOREIGN KEY (user_id) REFERENCES users (id)</text>
</g>
<!-- migrations -->
<g id="node7" class="node">
<title>migrations</title>
<polygon fill="#efefef" stroke="transparent" points="885,-1091.5 885,-1126.5 1079,-1126.5 1079,-1091.5 885,-1091.5"/>
<polygon fill="none" stroke="#000000" points="885,-1091.5 885,-1126.5 1079,-1126.5 1079,-1091.5 885,-1091.5"/>
<text text-anchor="start" x="891.8732" y="-1104.3" font-family="Arial Bold" font-size="18.00" fill="#000000">migrations</text>
<text text-anchor="start" x="974.873" y="-1104.3" font-family="Arial" font-size="14.00" fill="#000000"> </text>
<text text-anchor="start" x="978.7636" y="-1104.3" font-family="Arial" font-size="14.00" fill="#666666">[BASE TABLE]</text>
<polygon fill="none" stroke="#000000" points="885,-1061.5 885,-1091.5 1079,-1091.5 1079,-1061.5 885,-1061.5"/>
<text text-anchor="start" x="892" y="-1072.9" font-family="Arial" font-size="14.00" fill="#000000">id </text>
<text text-anchor="start" x="906.7798" y="-1072.9" font-family="Arial" font-size="14.00" fill="#666666">[int unsigned]</text>
<polygon fill="none" stroke="#000000" points="885,-1031.5 885,-1061.5 1079,-1061.5 1079,-1031.5 885,-1031.5"/>
<text text-anchor="start" x="892" y="-1042.9" font-family="Arial" font-size="14.00" fill="#000000">migration </text>
<text text-anchor="start" x="953.446" y="-1042.9" font-family="Arial" font-size="14.00" fill="#666666">[varchar(255)]</text>
<polygon fill="none" stroke="#000000" points="885,-1001.5 885,-1031.5 1079,-1031.5 1079,-1001.5 885,-1001.5"/>
<text text-anchor="start" x="892" y="-1012.9" font-family="Arial" font-size="14.00" fill="#000000">batch </text>
<text text-anchor="start" x="930.129" y="-1012.9" font-family="Arial" font-size="14.00" fill="#666666">[int]</text>
</g>
<!-- password_resets -->
<g id="node8" class="node">
<title>password_resets</title>
<polygon fill="#efefef" stroke="transparent" points="1184,-1091.5 1184,-1126.5 1431,-1126.5 1431,-1091.5 1184,-1091.5"/>
<polygon fill="none" stroke="#000000" points="1184,-1091.5 1184,-1126.5 1431,-1126.5 1431,-1091.5 1184,-1091.5"/>
<text text-anchor="start" x="1190.861" y="-1104.3" font-family="Arial Bold" font-size="18.00" fill="#000000">password_resets</text>
<text text-anchor="start" x="1326.8852" y="-1104.3" font-family="Arial" font-size="14.00" fill="#000000"> </text>
<text text-anchor="start" x="1330.7758" y="-1104.3" font-family="Arial" font-size="14.00" fill="#666666">[BASE TABLE]</text>
<polygon fill="none" stroke="#000000" points="1184,-1061.5 1184,-1091.5 1431,-1091.5 1431,-1061.5 1184,-1061.5"/>
<text text-anchor="start" x="1191" y="-1072.9" font-family="Arial" font-size="14.00" fill="#000000">email </text>
<text text-anchor="start" x="1228.3296" y="-1072.9" font-family="Arial" font-size="14.00" fill="#666666">[varchar(255)]</text>
<polygon fill="none" stroke="#000000" points="1184,-1031.5 1184,-1061.5 1431,-1061.5 1431,-1031.5 1184,-1031.5"/>
<text text-anchor="start" x="1191" y="-1042.9" font-family="Arial" font-size="14.00" fill="#000000">token </text>
<text text-anchor="start" x="1229.129" y="-1042.9" font-family="Arial" font-size="14.00" fill="#666666">[varchar(255)]</text>
<polygon fill="none" stroke="#000000" points="1184,-1001.5 1184,-1031.5 1431,-1031.5 1431,-1001.5 1184,-1001.5"/>
<text text-anchor="start" x="1191" y="-1012.9" font-family="Arial" font-size="14.00" fill="#000000">created_at </text>
<text text-anchor="start" x="1261.028" y="-1012.9" font-family="Arial" font-size="14.00" fill="#666666">[timestamp]</text>
</g>
<!-- personal_access_tokens -->
<g id="node9" class="node">
<title>personal_access_tokens</title>
<polygon fill="#efefef" stroke="transparent" points="1535,-1196.5 1535,-1231.5 1844,-1231.5 1844,-1196.5 1535,-1196.5"/>
<polygon fill="none" stroke="#000000" points="1535,-1196.5 1535,-1231.5 1844,-1231.5 1844,-1196.5 1535,-1196.5"/>
<text text-anchor="start" x="1541.8416" y="-1209.3" font-family="Arial Bold" font-size="18.00" fill="#000000">personal_access_tokens</text>
<text text-anchor="start" x="1739.9046" y="-1209.3" font-family="Arial" font-size="14.00" fill="#000000"> </text>
<text text-anchor="start" x="1743.7952" y="-1209.3" font-family="Arial" font-size="14.00" fill="#666666">[BASE TABLE]</text>
<polygon fill="none" stroke="#000000" points="1535,-1166.5 1535,-1196.5 1844,-1196.5 1844,-1166.5 1535,-1166.5"/>
<text text-anchor="start" x="1542" y="-1177.9" font-family="Arial" font-size="14.00" fill="#000000">id </text>
<text text-anchor="start" x="1556.7798" y="-1177.9" font-family="Arial" font-size="14.00" fill="#666666">[bigint unsigned]</text>
<polygon fill="none" stroke="#000000" points="1535,-1136.5 1535,-1166.5 1844,-1166.5 1844,-1136.5 1535,-1136.5"/>
<text text-anchor="start" x="1542" y="-1147.9" font-family="Arial" font-size="14.00" fill="#000000">tokenable_type </text>
<text text-anchor="start" x="1640.8218" y="-1147.9" font-family="Arial" font-size="14.00" fill="#666666">[varchar(255)]</text>
<polygon fill="none" stroke="#000000" points="1535,-1106.5 1535,-1136.5 1844,-1136.5 1844,-1106.5 1535,-1106.5"/>
<text text-anchor="start" x="1542" y="-1117.9" font-family="Arial" font-size="14.00" fill="#000000">tokenable_id </text>
<text text-anchor="start" x="1625.2552" y="-1117.9" font-family="Arial" font-size="14.00" fill="#666666">[bigint unsigned]</text>
<polygon fill="none" stroke="#000000" points="1535,-1076.5 1535,-1106.5 1844,-1106.5 1844,-1076.5 1535,-1076.5"/>
<text text-anchor="start" x="1542" y="-1087.9" font-family="Arial" font-size="14.00" fill="#000000">name </text>
<text text-anchor="start" x="1580.899" y="-1087.9" font-family="Arial" font-size="14.00" fill="#666666">[varchar(255)]</text>
<polygon fill="none" stroke="#000000" points="1535,-1046.5 1535,-1076.5 1844,-1076.5 1844,-1046.5 1535,-1046.5"/>
<text text-anchor="start" x="1542" y="-1057.9" font-family="Arial" font-size="14.00" fill="#000000">token </text>
<text text-anchor="start" x="1580.129" y="-1057.9" font-family="Arial" font-size="14.00" fill="#666666">[varchar(64)]</text>
<polygon fill="none" stroke="#000000" points="1535,-1016.5 1535,-1046.5 1844,-1046.5 1844,-1016.5 1535,-1016.5"/>
<text text-anchor="start" x="1542" y="-1027.9" font-family="Arial" font-size="14.00" fill="#000000">abilities </text>
<text text-anchor="start" x="1592.5554" y="-1027.9" font-family="Arial" font-size="14.00" fill="#666666">[text]</text>
<polygon fill="none" stroke="#000000" points="1535,-986.5 1535,-1016.5 1844,-1016.5 1844,-986.5 1535,-986.5"/>
<text text-anchor="start" x="1542" y="-997.9" font-family="Arial" font-size="14.00" fill="#000000">last_used_at </text>
<text text-anchor="start" x="1625.2566" y="-997.9" font-family="Arial" font-size="14.00" fill="#666666">[timestamp]</text>
<polygon fill="none" stroke="#000000" points="1535,-956.5 1535,-986.5 1844,-986.5 1844,-956.5 1535,-956.5"/>
<text text-anchor="start" x="1542" y="-967.9" font-family="Arial" font-size="14.00" fill="#000000">expires_at </text>
<text text-anchor="start" x="1610.4614" y="-967.9" font-family="Arial" font-size="14.00" fill="#666666">[timestamp]</text>
<polygon fill="none" stroke="#000000" points="1535,-926.5 1535,-956.5 1844,-956.5 1844,-926.5 1535,-926.5"/>
<text text-anchor="start" x="1542" y="-937.9" font-family="Arial" font-size="14.00" fill="#000000">created_at </text>
<text text-anchor="start" x="1612.028" y="-937.9" font-family="Arial" font-size="14.00" fill="#666666">[timestamp]</text>
<polygon fill="none" stroke="#000000" points="1535,-896.5 1535,-926.5 1844,-926.5 1844,-896.5 1535,-896.5"/>
<text text-anchor="start" x="1542" y="-907.9" font-family="Arial" font-size="14.00" fill="#000000">updated_at </text>
<text text-anchor="start" x="1615.9326" y="-907.9" font-family="Arial" font-size="14.00" fill="#666666">[timestamp]</text>
</g>
</g>
</svg>
