<?xml version="1.0" encoding="UTF-8" standalone="no"?>
<!DOCTYPE svg PUBLIC "-//W3C//DTD SVG 1.1//EN"
 "http://www.w3.org/Graphics/SVG/1.1/DTD/svg11.dtd">
<!-- Generated by graphviz version 2.40.1 (20161225.0304)
 -->
<!-- Title: users Pages: 1 -->
<svg width="1298pt" height="832pt"
 viewBox="0.00 0.00 1298.00 832.00" xmlns="http://www.w3.org/2000/svg" xmlns:xlink="http://www.w3.org/1999/xlink">
<g id="graph0" class="graph" transform="scale(1 1) rotate(0) translate(4 828)">
<title>users</title>
<polygon fill="#ffffff" stroke="transparent" points="-4,4 -4,-828 1294,-828 1294,4 -4,4"/>
<!-- users -->
<g id="node1" class="node">
<title>users</title>
<polygon fill="#efefef" stroke="transparent" points="581.5,-345.5 581.5,-380.5 791.5,-380.5 791.5,-345.5 581.5,-345.5"/>
<polygon fill="none" stroke="#000000" points="581.5,-345.5 581.5,-380.5 791.5,-380.5 791.5,-345.5 581.5,-345.5"/>
<text text-anchor="start" x="615.8708" y="-358.3" font-family="Arial Bold" font-size="18.00" fill="#000000">users</text>
<text text-anchor="start" x="659.8754" y="-358.3" font-family="Arial" font-size="14.00" fill="#000000"> </text>
<text text-anchor="start" x="663.766" y="-358.3" font-family="Arial" font-size="14.00" fill="#666666">[BASE TABLE]</text>
<polygon fill="none" stroke="#000000" points="581.5,-315.5 581.5,-345.5 791.5,-345.5 791.5,-315.5 581.5,-315.5"/>
<text text-anchor="start" x="588.5" y="-326.9" font-family="Arial" font-size="14.00" fill="#000000">id </text>
<text text-anchor="start" x="603.2798" y="-326.9" font-family="Arial" font-size="14.00" fill="#666666">[bigint unsigned]</text>
<polygon fill="none" stroke="#000000" points="581.5,-285.5 581.5,-315.5 791.5,-315.5 791.5,-285.5 581.5,-285.5"/>
<text text-anchor="start" x="588.5" y="-296.9" font-family="Arial" font-size="14.00" fill="#000000">name </text>
<text text-anchor="start" x="627.399" y="-296.9" font-family="Arial" font-size="14.00" fill="#666666">[varchar(255)]</text>
<polygon fill="none" stroke="#000000" points="581.5,-255.5 581.5,-285.5 791.5,-285.5 791.5,-255.5 581.5,-255.5"/>
<text text-anchor="start" x="588.5" y="-266.9" font-family="Arial" font-size="14.00" fill="#000000">email </text>
<text text-anchor="start" x="625.8296" y="-266.9" font-family="Arial" font-size="14.00" fill="#666666">[varchar(255)]</text>
<polygon fill="none" stroke="#000000" points="581.5,-225.5 581.5,-255.5 791.5,-255.5 791.5,-225.5 581.5,-225.5"/>
<text text-anchor="start" x="588.5" y="-236.9" font-family="Arial" font-size="14.00" fill="#000000">email_verified_at </text>
<text text-anchor="start" x="698.1802" y="-236.9" font-family="Arial" font-size="14.00" fill="#666666">[timestamp]</text>
<polygon fill="none" stroke="#000000" points="581.5,-195.5 581.5,-225.5 791.5,-225.5 791.5,-195.5 581.5,-195.5"/>
<text text-anchor="start" x="588.5" y="-206.9" font-family="Arial" font-size="14.00" fill="#000000">password </text>
<text text-anchor="start" x="652.2882" y="-206.9" font-family="Arial" font-size="14.00" fill="#666666">[varchar(255)]</text>
<polygon fill="none" stroke="#000000" points="581.5,-165.5 581.5,-195.5 791.5,-195.5 791.5,-165.5 581.5,-165.5"/>
<text text-anchor="start" x="588.5" y="-176.9" font-family="Arial" font-size="14.00" fill="#000000">profile </text>
<text text-anchor="start" x="630.5028" y="-176.9" font-family="Arial" font-size="14.00" fill="#666666">[text]</text>
<polygon fill="none" stroke="#000000" points="581.5,-135.5 581.5,-165.5 791.5,-165.5 791.5,-135.5 581.5,-135.5"/>
<text text-anchor="start" x="588.0982" y="-146.9" font-family="Arial" font-size="14.00" fill="#000000">remember_token </text>
<text text-anchor="start" x="697.7826" y="-146.9" font-family="Arial" font-size="14.00" fill="#666666">[varchar(100)]</text>
<polygon fill="none" stroke="#000000" points="581.5,-105.5 581.5,-135.5 791.5,-135.5 791.5,-105.5 581.5,-105.5"/>
<text text-anchor="start" x="588.5" y="-116.9" font-family="Arial" font-size="14.00" fill="#000000">created_at </text>
<text text-anchor="start" x="658.528" y="-116.9" font-family="Arial" font-size="14.00" fill="#666666">[datetime]</text>
<polygon fill="none" stroke="#000000" points="581.5,-75.5 581.5,-105.5 791.5,-105.5 791.5,-75.5 581.5,-75.5"/>
<text text-anchor="start" x="588.5" y="-86.9" font-family="Arial" font-size="14.00" fill="#000000">updated_at </text>
<text text-anchor="start" x="662.4326" y="-86.9" font-family="Arial" font-size="14.00" fill="#666666">[datetime]</text>
<polygon fill="none" stroke="#000000" points="581.5,-45.5 581.5,-75.5 791.5,-75.5 791.5,-45.5 581.5,-45.5"/>
<text text-anchor="start" x="588.5" y="-56.9" font-family="Arial" font-size="14.00" fill="#000000">deleted_at </text>
<text text-anchor="start" x="657.7566" y="-56.9" font-family="Arial" font-size="14.00" fill="#666666">[datetime]</text>
<polygon fill="none" stroke="#000000" stroke-width="3" points="580,-44.5 580,-382.5 793,-382.5 793,-44.5 580,-44.5"/>
</g>
<!-- favorite_companies -->
<g id="node2" class="node">
<title>favorite_companies</title>
<polygon fill="#efefef" stroke="transparent" points="43.5,-715.5 43.5,-750.5 310.5,-750.5 310.5,-715.5 43.5,-715.5"/>
<polygon fill="none" stroke="#000000" points="43.5,-715.5 43.5,-750.5 310.5,-750.5 310.5,-715.5 43.5,-715.5"/>
<text text-anchor="start" x="50.3566" y="-728.3" font-family="Arial Bold" font-size="18.00" fill="#000000">favorite_companies</text>
<text text-anchor="start" x="206.3896" y="-728.3" font-family="Arial" font-size="14.00" fill="#000000"> </text>
<text text-anchor="start" x="210.2802" y="-728.3" font-family="Arial" font-size="14.00" fill="#666666">[BASE TABLE]</text>
<polygon fill="none" stroke="#000000" points="43.5,-685.5 43.5,-715.5 310.5,-715.5 310.5,-685.5 43.5,-685.5"/>
<text text-anchor="start" x="50.5" y="-696.9" font-family="Arial" font-size="14.00" fill="#000000">id </text>
<text text-anchor="start" x="65.2798" y="-696.9" font-family="Arial" font-size="14.00" fill="#666666">[bigint unsigned]</text>
<polygon fill="none" stroke="#000000" points="43.5,-655.5 43.5,-685.5 310.5,-685.5 310.5,-655.5 43.5,-655.5"/>
<text text-anchor="start" x="50.5" y="-666.9" font-family="Arial" font-size="14.00" fill="#000000">user_id </text>
<text text-anchor="start" x="100.2882" y="-666.9" font-family="Arial" font-size="14.00" fill="#666666">[bigint unsigned]</text>
<polygon fill="none" stroke="#000000" points="43.5,-625.5 43.5,-655.5 310.5,-655.5 310.5,-625.5 43.5,-625.5"/>
<text text-anchor="start" x="50.5" y="-636.9" font-family="Arial" font-size="14.00" fill="#000000">company_id </text>
<text text-anchor="start" x="129.8534" y="-636.9" font-family="Arial" font-size="14.00" fill="#666666">[bigint unsigned]</text>
<polygon fill="none" stroke="#000000" points="43.5,-595.5 43.5,-625.5 310.5,-625.5 310.5,-595.5 43.5,-595.5"/>
<text text-anchor="start" x="50.5" y="-606.9" font-family="Arial" font-size="14.00" fill="#000000">created_at </text>
<text text-anchor="start" x="120.528" y="-606.9" font-family="Arial" font-size="14.00" fill="#666666">[datetime]</text>
<polygon fill="none" stroke="#000000" points="43.5,-565.5 43.5,-595.5 310.5,-595.5 310.5,-565.5 43.5,-565.5"/>
<text text-anchor="start" x="50.5" y="-576.9" font-family="Arial" font-size="14.00" fill="#000000">updated_at </text>
<text text-anchor="start" x="124.4326" y="-576.9" font-family="Arial" font-size="14.00" fill="#666666">[datetime]</text>
<polygon fill="none" stroke="#000000" points="43.5,-535.5 43.5,-565.5 310.5,-565.5 310.5,-535.5 43.5,-535.5"/>
<text text-anchor="start" x="50.5" y="-546.9" font-family="Arial" font-size="14.00" fill="#000000">deleted_at </text>
<text text-anchor="start" x="119.7566" y="-546.9" font-family="Arial" font-size="14.00" fill="#666666">[datetime]</text>
</g>
<!-- favorite_companies&#45;&gt;users -->
<g id="edge1" class="edge">
<title>favorite_companies:user_id&#45;&gt;users:id</title>
<path fill="none" stroke="#000000" d="M320.7714,-669.9113C398.0343,-660.3472 308.225,-536.4908 362.5,-463 430.0832,-371.4894 467.7385,-330.5 581.5,-330.5"/>
<polygon fill="#000000" stroke="#000000" points="320.4836,-669.9277 310.2425,-666.0074 315.4918,-670.2138 310.5,-670.5 310.5,-670.5 310.5,-670.5 315.4918,-670.2138 310.7575,-674.9926 320.4836,-669.9277 320.4836,-669.9277"/>
<text text-anchor="start" x="197.445" y="-654.5" font-family="Arial" font-size="10.00" fill="#000000">FOREIGN KEY (user_id) REFERENCES users (id)</text>
</g>
<!-- favorite_users -->
<g id="node3" class="node">
<title>favorite_users</title>
<polygon fill="#efefef" stroke="transparent" points="414.5,-715.5 414.5,-750.5 638.5,-750.5 638.5,-715.5 414.5,-715.5"/>
<polygon fill="none" stroke="#000000" points="414.5,-715.5 414.5,-750.5 638.5,-750.5 638.5,-715.5 414.5,-715.5"/>
<text text-anchor="start" x="421.363" y="-728.3" font-family="Arial Bold" font-size="18.00" fill="#000000">favorite_users</text>
<text text-anchor="start" x="534.3832" y="-728.3" font-family="Arial" font-size="14.00" fill="#000000"> </text>
<text text-anchor="start" x="538.2738" y="-728.3" font-family="Arial" font-size="14.00" fill="#666666">[BASE TABLE]</text>
<polygon fill="none" stroke="#000000" points="414.5,-685.5 414.5,-715.5 638.5,-715.5 638.5,-685.5 414.5,-685.5"/>
<text text-anchor="start" x="421.5" y="-696.9" font-family="Arial" font-size="14.00" fill="#000000">id </text>
<text text-anchor="start" x="436.2798" y="-696.9" font-family="Arial" font-size="14.00" fill="#666666">[bigint unsigned]</text>
<polygon fill="none" stroke="#000000" points="414.5,-655.5 414.5,-685.5 638.5,-685.5 638.5,-655.5 414.5,-655.5"/>
<text text-anchor="start" x="421.5" y="-666.9" font-family="Arial" font-size="14.00" fill="#000000">company_id </text>
<text text-anchor="start" x="500.8534" y="-666.9" font-family="Arial" font-size="14.00" fill="#666666">[bigint unsigned]</text>
<polygon fill="none" stroke="#000000" points="414.5,-625.5 414.5,-655.5 638.5,-655.5 638.5,-625.5 414.5,-625.5"/>
<text text-anchor="start" x="421.5" y="-636.9" font-family="Arial" font-size="14.00" fill="#000000">user_id </text>
<text text-anchor="start" x="471.2882" y="-636.9" font-family="Arial" font-size="14.00" fill="#666666">[bigint unsigned]</text>
<polygon fill="none" stroke="#000000" points="414.5,-595.5 414.5,-625.5 638.5,-625.5 638.5,-595.5 414.5,-595.5"/>
<text text-anchor="start" x="421.5" y="-606.9" font-family="Arial" font-size="14.00" fill="#000000">created_at </text>
<text text-anchor="start" x="491.528" y="-606.9" font-family="Arial" font-size="14.00" fill="#666666">[datetime]</text>
<polygon fill="none" stroke="#000000" points="414.5,-565.5 414.5,-595.5 638.5,-595.5 638.5,-565.5 414.5,-565.5"/>
<text text-anchor="start" x="421.5" y="-576.9" font-family="Arial" font-size="14.00" fill="#000000">updated_at </text>
<text text-anchor="start" x="495.4326" y="-576.9" font-family="Arial" font-size="14.00" fill="#666666">[datetime]</text>
<polygon fill="none" stroke="#000000" points="414.5,-535.5 414.5,-565.5 638.5,-565.5 638.5,-535.5 414.5,-535.5"/>
<text text-anchor="start" x="421.5" y="-546.9" font-family="Arial" font-size="14.00" fill="#000000">deleted_at </text>
<text text-anchor="start" x="490.7566" y="-546.9" font-family="Arial" font-size="14.00" fill="#666666">[datetime]</text>
</g>
<!-- favorite_users&#45;&gt;users -->
<g id="edge2" class="edge">
<title>favorite_users:user_id&#45;&gt;users:id</title>
<path fill="none" stroke="#000000" d="M648.6207,-639.6918C699.2825,-630.8301 660.0642,-550.961 638.5,-493 624.9851,-456.6741 595.0149,-463.3259 581.5,-427 566.5448,-386.803 538.6111,-330.5 581.5,-330.5"/>
<polygon fill="#000000" stroke="#000000" points="648.4683,-639.7039 638.1418,-636.0143 643.4841,-640.102 638.5,-640.5 638.5,-640.5 638.5,-640.5 643.4841,-640.102 638.8582,-644.9857 648.4683,-639.7039 648.4683,-639.7039"/>
<text text-anchor="start" x="645.445" y="-650.5" font-family="Arial" font-size="10.00" fill="#000000">FOREIGN KEY (user_id) REFERENCES users (id)</text>
</g>
<!-- interviews -->
<g id="node4" class="node">
<title>interviews</title>
<polygon fill="#efefef" stroke="transparent" points="743.5,-745.5 743.5,-780.5 948.5,-780.5 948.5,-745.5 743.5,-745.5"/>
<polygon fill="none" stroke="#000000" points="743.5,-745.5 743.5,-780.5 948.5,-780.5 948.5,-745.5 743.5,-745.5"/>
<text text-anchor="start" x="757.3753" y="-758.3" font-family="Arial Bold" font-size="18.00" fill="#000000">interviews</text>
<text text-anchor="start" x="837.3709" y="-758.3" font-family="Arial" font-size="14.00" fill="#000000"> </text>
<text text-anchor="start" x="841.2615" y="-758.3" font-family="Arial" font-size="14.00" fill="#666666">[BASE TABLE]</text>
<polygon fill="none" stroke="#000000" points="743.5,-715.5 743.5,-745.5 948.5,-745.5 948.5,-715.5 743.5,-715.5"/>
<text text-anchor="start" x="750.5" y="-726.9" font-family="Arial" font-size="14.00" fill="#000000">id </text>
<text text-anchor="start" x="765.2798" y="-726.9" font-family="Arial" font-size="14.00" fill="#666666">[bigint unsigned]</text>
<polygon fill="none" stroke="#000000" points="743.5,-685.5 743.5,-715.5 948.5,-715.5 948.5,-685.5 743.5,-685.5"/>
<text text-anchor="start" x="750.5" y="-696.9" font-family="Arial" font-size="14.00" fill="#000000">interview_datetime </text>
<text text-anchor="start" x="871.0708" y="-696.9" font-family="Arial" font-size="14.00" fill="#666666">[datetime]</text>
<polygon fill="none" stroke="#000000" points="743.5,-655.5 743.5,-685.5 948.5,-685.5 948.5,-655.5 743.5,-655.5"/>
<text text-anchor="start" x="750.3212" y="-666.9" font-family="Arial" font-size="14.00" fill="#000000">interview_status </text>
<text text-anchor="start" x="854.5596" y="-666.9" font-family="Arial" font-size="14.00" fill="#666666">[varchar(255)]</text>
<polygon fill="none" stroke="#000000" points="743.5,-625.5 743.5,-655.5 948.5,-655.5 948.5,-625.5 743.5,-625.5"/>
<text text-anchor="start" x="750.5" y="-636.9" font-family="Arial" font-size="14.00" fill="#000000">user_id </text>
<text text-anchor="start" x="800.2882" y="-636.9" font-family="Arial" font-size="14.00" fill="#666666">[bigint unsigned]</text>
<polygon fill="none" stroke="#000000" points="743.5,-595.5 743.5,-625.5 948.5,-625.5 948.5,-595.5 743.5,-595.5"/>
<text text-anchor="start" x="750.5" y="-606.9" font-family="Arial" font-size="14.00" fill="#000000">company_id </text>
<text text-anchor="start" x="829.8534" y="-606.9" font-family="Arial" font-size="14.00" fill="#666666">[bigint unsigned]</text>
<polygon fill="none" stroke="#000000" points="743.5,-565.5 743.5,-595.5 948.5,-595.5 948.5,-565.5 743.5,-565.5"/>
<text text-anchor="start" x="750.5" y="-576.9" font-family="Arial" font-size="14.00" fill="#000000">created_at </text>
<text text-anchor="start" x="820.528" y="-576.9" font-family="Arial" font-size="14.00" fill="#666666">[datetime]</text>
<polygon fill="none" stroke="#000000" points="743.5,-535.5 743.5,-565.5 948.5,-565.5 948.5,-535.5 743.5,-535.5"/>
<text text-anchor="start" x="750.5" y="-546.9" font-family="Arial" font-size="14.00" fill="#000000">updated_at </text>
<text text-anchor="start" x="824.4326" y="-546.9" font-family="Arial" font-size="14.00" fill="#666666">[datetime]</text>
<polygon fill="none" stroke="#000000" points="743.5,-505.5 743.5,-535.5 948.5,-535.5 948.5,-505.5 743.5,-505.5"/>
<text text-anchor="start" x="750.5" y="-516.9" font-family="Arial" font-size="14.00" fill="#000000">deleted_at </text>
<text text-anchor="start" x="819.7566" y="-516.9" font-family="Arial" font-size="14.00" fill="#666666">[datetime]</text>
</g>
<!-- interviews&#45;&gt;users -->
<g id="edge3" class="edge">
<title>interviews:user_id&#45;&gt;users:id</title>
<path fill="none" stroke="#000000" d="M733.2003,-639.8098C668.6811,-630.5543 709.8736,-530.2529 743.5,-463 755.4257,-439.1486 779.5743,-450.8514 791.5,-427 810.6805,-388.639 834.3889,-330.5 791.5,-330.5"/>
<polygon fill="#000000" stroke="#000000" points="733.5224,-639.8313 743.1991,-644.9899 738.5112,-640.1657 743.5,-640.5 743.5,-640.5 743.5,-640.5 738.5112,-640.1657 743.8009,-636.0101 733.5224,-639.8313 733.5224,-639.8313"/>
<text text-anchor="start" x="690.445" y="-624.5" font-family="Arial" font-size="10.00" fill="#000000">FOREIGN KEY (user_id) REFERENCES users (id)</text>
</g>
<!-- messages -->
<g id="node5" class="node">
<title>messages</title>
<polygon fill="#efefef" stroke="transparent" points="1052.5,-745.5 1052.5,-780.5 1247.5,-780.5 1247.5,-745.5 1052.5,-745.5"/>
<polygon fill="none" stroke="#000000" points="1052.5,-745.5 1052.5,-780.5 1247.5,-780.5 1247.5,-745.5 1052.5,-745.5"/>
<text text-anchor="start" x="1060.3646" y="-758.3" font-family="Arial Bold" font-size="18.00" fill="#000000">messages</text>
<text text-anchor="start" x="1142.3816" y="-758.3" font-family="Arial" font-size="14.00" fill="#000000"> </text>
<text text-anchor="start" x="1146.2722" y="-758.3" font-family="Arial" font-size="14.00" fill="#666666">[BASE TABLE]</text>
<polygon fill="none" stroke="#000000" points="1052.5,-715.5 1052.5,-745.5 1247.5,-745.5 1247.5,-715.5 1052.5,-715.5"/>
<text text-anchor="start" x="1059.5" y="-726.9" font-family="Arial" font-size="14.00" fill="#000000">id </text>
<text text-anchor="start" x="1074.2798" y="-726.9" font-family="Arial" font-size="14.00" fill="#666666">[bigint unsigned]</text>
<polygon fill="none" stroke="#000000" points="1052.5,-685.5 1052.5,-715.5 1247.5,-715.5 1247.5,-685.5 1052.5,-685.5"/>
<text text-anchor="start" x="1059.5" y="-696.9" font-family="Arial" font-size="14.00" fill="#000000">body </text>
<text text-anchor="start" x="1093.7384" y="-696.9" font-family="Arial" font-size="14.00" fill="#666666">[varchar(255)]</text>
<polygon fill="none" stroke="#000000" points="1052.5,-655.5 1052.5,-685.5 1247.5,-685.5 1247.5,-655.5 1052.5,-655.5"/>
<text text-anchor="start" x="1059.5" y="-666.9" font-family="Arial" font-size="14.00" fill="#000000">interview_id </text>
<text text-anchor="start" x="1137.2812" y="-666.9" font-family="Arial" font-size="14.00" fill="#666666">[bigint unsigned]</text>
<polygon fill="none" stroke="#000000" points="1052.5,-625.5 1052.5,-655.5 1247.5,-655.5 1247.5,-625.5 1052.5,-625.5"/>
<text text-anchor="start" x="1059.5" y="-636.9" font-family="Arial" font-size="14.00" fill="#000000">user_id </text>
<text text-anchor="start" x="1109.2882" y="-636.9" font-family="Arial" font-size="14.00" fill="#666666">[bigint unsigned]</text>
<polygon fill="none" stroke="#000000" points="1052.5,-595.5 1052.5,-625.5 1247.5,-625.5 1247.5,-595.5 1052.5,-595.5"/>
<text text-anchor="start" x="1059.3605" y="-606.9" font-family="Arial" font-size="14.00" fill="#000000">company_id </text>
<text text-anchor="start" x="1138.7139" y="-606.9" font-family="Arial" font-size="14.00" fill="#666666">[bigint unsigned]</text>
<polygon fill="none" stroke="#000000" points="1052.5,-565.5 1052.5,-595.5 1247.5,-595.5 1247.5,-565.5 1052.5,-565.5"/>
<text text-anchor="start" x="1059.5" y="-576.9" font-family="Arial" font-size="14.00" fill="#000000">created_at </text>
<text text-anchor="start" x="1129.528" y="-576.9" font-family="Arial" font-size="14.00" fill="#666666">[datetime]</text>
<polygon fill="none" stroke="#000000" points="1052.5,-535.5 1052.5,-565.5 1247.5,-565.5 1247.5,-535.5 1052.5,-535.5"/>
<text text-anchor="start" x="1059.5" y="-546.9" font-family="Arial" font-size="14.00" fill="#000000">updated_at </text>
<text text-anchor="start" x="1133.4326" y="-546.9" font-family="Arial" font-size="14.00" fill="#666666">[datetime]</text>
<polygon fill="none" stroke="#000000" points="1052.5,-505.5 1052.5,-535.5 1247.5,-535.5 1247.5,-505.5 1052.5,-505.5"/>
<text text-anchor="start" x="1059.5" y="-516.9" font-family="Arial" font-size="14.00" fill="#000000">deleted_at </text>
<text text-anchor="start" x="1128.7566" y="-516.9" font-family="Arial" font-size="14.00" fill="#666666">[datetime]</text>
</g>
<!-- messages&#45;&gt;users -->
<g id="edge4" class="edge">
<title>messages:user_id&#45;&gt;users:id</title>
<path fill="none" stroke="#000000" d="M1042.3751,-639.8373C977.1911,-630.546 1047.7248,-525.7209 1000.5,-463 934.3452,-375.1376 901.4829,-330.5 791.5,-330.5"/>
<polygon fill="#000000" stroke="#000000" points="1042.5214,-639.8468 1052.2061,-644.9904 1047.5107,-640.1734 1052.5,-640.5 1052.5,-640.5 1052.5,-640.5 1047.5107,-640.1734 1052.7939,-636.0096 1042.5214,-639.8468 1042.5214,-639.8468"/>
<text text-anchor="start" x="999.445" y="-624.5" font-family="Arial" font-size="10.00" fill="#000000">FOREIGN KEY (user_id) REFERENCES users (id)</text>
</g>
</g>
</svg>
